<svg xmlns="http://www.w3.org/2000/svg" version="1.1" width="3000px" height="3000px" style="shape-rendering:geometricPrecision; text-rendering:geometricPrecision; image-rendering:optimizeQuality; fill-rule:evenodd; clip-rule:evenodd" xmlns:xlink="http://www.w3.org/1999/xlink">
<g><path style="opacity:1" fill="#000000" d="M 39.5,-0.5 C 1026.17,-0.5 2012.83,-0.5 2999.5,-0.5C 2999.5,918.167 2999.5,1836.83 2999.5,2755.5C 2995.49,2755.67 2991.49,2755.5 2987.5,2755C 2980.02,2752.77 2972.35,2751.44 2964.5,2751C 2943.05,2745.77 2921.39,2741.44 2899.5,2738C 2860.65,2728.24 2821.98,2717.9 2783.5,2707C 2763.84,2699.13 2743.84,2692.13 2723.5,2686C 2708.17,2680 2692.83,2674 2677.5,2668C 2655.69,2657.62 2633.69,2647.62 2611.5,2638C 2557.68,2610.83 2505.68,2580.5 2455.5,2547C 2430.86,2528.37 2406.2,2509.71 2381.5,2491C 2351.57,2463.54 2324.07,2434.04 2299,2402.5C 2286.92,2391.43 2275.92,2379.43 2266,2366.5C 2257.39,2352.23 2248.39,2338.23 2239,2324.5C 2234.4,2316.29 2230.06,2307.96 2226,2299.5C 2212.62,2283.12 2199.62,2266.45 2187,2249.5C 2114.27,2137.41 2043.1,2024.24 1973.5,1910C 1930.85,1840.89 1888.01,1771.72 1845,1702.5C 1812.45,1646.41 1779.12,1590.75 1745,1535.5C 1718.45,1488.07 1691.12,1441.07 1663,1394.5C 1649.03,1369.19 1635.03,1343.85 1621,1318.5C 1602.73,1288.41 1585.56,1257.74 1569.5,1226.5C 1546.27,1186.38 1523.1,1146.04 1500,1105.5C 1493.96,1096.96 1488.13,1088.3 1482.5,1079.5C 1472.12,1067.29 1462.29,1054.62 1453,1041.5C 1359.49,945.218 1250.32,873.385 1125.5,826C 1108.35,819.757 1091.02,814.091 1073.5,809C 1023.86,794.837 973.529,783.837 922.5,776C 920.754,775.529 919.087,774.862 917.5,774C 853.8,764.846 790.134,755.513 726.5,746C 705.396,740.693 684.062,736.36 662.5,733C 646.378,727.923 630.045,723.59 613.5,720C 596.038,714.637 578.704,708.97 561.5,703C 551.257,697.695 540.59,693.362 529.5,690C 512.048,681.112 494.048,673.112 475.5,666C 449.993,653.419 426.326,638.086 404.5,620C 403.663,618.989 403.33,617.822 403.5,616.5C 400.438,615.308 397.438,613.808 394.5,612C 272.801,518.476 181.634,401.31 121,260.5C 109.004,234.875 98.6703,208.542 90,181.5C 89.3333,180.833 88.6667,180.167 88,179.5C 85.2795,170.396 82.2795,161.396 79,152.5C 78.6682,147.482 77.3348,142.816 75,138.5C 68.8719,118.184 62.8719,97.8504 57,77.5C 53.3892,62.5538 50.0559,47.5538 47,32.5C 43.949,23.7739 42.1156,14.7739 41.5,5.5C 40.448,5.64945 39.448,5.48278 38.5,5C 39.4061,3.30054 39.7394,1.4672 39.5,-0.5 Z"/></g>
</svg>
