<svg xmlns="http://www.w3.org/2000/svg" version="1.1" width="1024px" height="1024px" style="shape-rendering:geometricPrecision; text-rendering:geometricPrecision; image-rendering:optimizeQuality; fill-rule:evenodd; clip-rule:evenodd" xmlns:xlink="http://www.w3.org/1999/xlink">
<g><path style="opacity:0.986" fill="#000000" d="M 501.5,51.5 C 529.201,50.2358 554.201,57.7358 576.5,74C 705.167,175.333 833.833,276.667 962.5,378C 974.088,386.676 980.921,398.176 983,412.5C 983.667,427.833 983.667,443.167 983,458.5C 979.746,482.421 966.246,496.587 942.5,501C 919.2,503.268 902.034,494.101 891,473.5C 889.798,470.226 888.798,466.893 888,463.5C 889.047,453.008 886.213,443.841 879.5,436C 767.879,348.714 656.546,261.048 545.5,173C 524.858,156.236 503.524,155.236 481.5,170C 368.167,259.333 254.833,348.667 141.5,438C 138.865,439.961 137.031,442.461 136,445.5C 138.012,472.684 126.512,491.184 101.5,501C 78.1584,505.899 59.6584,498.733 46,479.5C 43.0059,474.184 41.0059,468.518 40,462.5C 39.3333,445.833 39.3333,429.167 40,412.5C 42.2724,399.121 48.7724,388.287 59.5,380C 124.5,329 189.5,278 254.5,227C 321.258,172.905 388.591,119.572 456.5,67C 470.635,58.9007 485.635,53.7341 501.5,51.5 Z"/></g>
<g><path style="opacity:0.995" fill="#000000" d="M 503.5,191.5 C 518.496,189.779 531.83,193.612 543.5,203C 644.317,285.24 745.317,367.24 846.5,449C 854.155,455.988 859.322,464.488 862,474.5C 863.655,625.811 863.988,777.144 863,928.5C 860.409,952.525 847.243,966.691 823.5,971C 759.168,971.5 694.834,971.667 630.5,971.5C 630.667,884.166 630.5,796.833 630,709.5C 627.812,694.98 619.645,685.813 605.5,682C 574.533,680.856 543.533,680.356 512.5,680.5C 481.138,680.36 449.805,680.86 418.5,682C 404.783,685.716 396.616,694.55 394,708.5C 393.818,796.181 393.318,883.848 392.5,971.5C 330.166,971.667 267.832,971.5 205.5,971C 179.873,968.623 165.039,954.789 161,929.5C 160.333,779.5 160.333,629.5 161,479.5C 162.89,466.219 169.056,455.386 179.5,447C 282.167,364 384.833,281 487.5,198C 492.744,195.315 498.077,193.148 503.5,191.5 Z"/></g>
</svg>