<svg xmlns="http://www.w3.org/2000/svg" version="1.1" width="3000px" height="3000px" style="shape-rendering:geometricPrecision; text-rendering:geometricPrecision; image-rendering:optimizeQuality; fill-rule:evenodd; clip-rule:evenodd" xmlns:xlink="http://www.w3.org/1999/xlink">
<g><path style="opacity:0.998" fill="#000000" d="M 2114.5,498.5 C 2148.79,501.094 2183.13,503.26 2217.5,505C 2226.16,506.665 2234.5,509.332 2242.5,513C 2249.88,513.737 2257.21,514.737 2264.5,516C 2268.67,518.588 2273.01,520.921 2277.5,523C 2284.6,523.871 2291.6,525.204 2298.5,527C 2300.93,530.098 2303.93,532.431 2307.5,534C 2312.22,534.786 2316.89,535.786 2321.5,537C 2324.56,539.723 2327.89,542.056 2331.5,544C 2339.44,544.251 2345.44,547.751 2349.5,554.5C 2353.11,555.82 2356.78,556.987 2360.5,558C 2364.31,563.812 2369.64,567.146 2376.5,568C 2378.68,570.016 2380.68,572.183 2382.5,574.5C 2390.32,576.24 2396.66,580.24 2401.5,586.5C 2408.21,587.355 2413.54,590.522 2417.5,596C 2424.86,598.175 2430.53,602.508 2434.5,609C 2439.53,610.853 2442.53,614.353 2443.5,619.5C 2449.63,620.125 2453.46,623.459 2455,629.5C 2460.76,631.092 2464.26,634.758 2465.5,640.5C 2470.62,641.613 2474.29,644.613 2476.5,649.5C 2481.83,651.5 2485.5,655.167 2487.5,660.5C 2492.83,662.493 2496.49,666.159 2498.5,671.5C 2504.02,674.19 2507.52,678.523 2509,684.5C 2514.97,689.642 2519.14,695.975 2521.5,703.5C 2526.27,706.07 2529.27,710.07 2530.5,715.5C 2536.38,720.241 2540.55,726.241 2543,733.5C 2547.71,736.571 2550.71,740.904 2552,746.5C 2554.18,747.928 2556.18,749.595 2558,751.5C 2559.84,756.011 2561.17,760.677 2562,765.5C 2563.57,769.072 2565.9,772.072 2569,774.5C 2570.5,780.003 2572,785.503 2573.5,791C 2579.57,796.359 2582.74,803.192 2583,811.5C 2584.23,814.732 2586.23,817.399 2589,819.5C 2590.88,829.498 2594.88,838.498 2601,846.5C 2602.46,852.411 2603.46,858.411 2604,864.5C 2606.67,869.833 2609.33,875.167 2612,880.5C 2612.97,889.56 2614.3,898.56 2616,907.5C 2618.8,911.443 2620.8,915.777 2622,920.5C 2623.54,933.143 2624.87,945.81 2626,958.5C 2628.81,968.054 2631.14,977.721 2633,987.5C 2634.56,1027.82 2634.89,1068.15 2634,1108.5C 2635.04,1123.88 2632.38,1138.55 2626,1152.5C 2624.8,1166.85 2623.47,1181.18 2622,1195.5C 2620.07,1200.41 2617.74,1205.08 2615,1209.5C 2614.07,1216.84 2613.07,1224.18 2612,1231.5C 2610.11,1236.39 2607.77,1241.06 2605,1245.5C 2603.83,1252.87 2602.5,1260.2 2601,1267.5C 2597.92,1270.66 2595.58,1274.33 2594,1278.5C 2592.99,1284.24 2591.65,1289.91 2590,1295.5C 2587.28,1298.56 2584.94,1301.89 2583,1305.5C 2582.32,1310.57 2581.32,1315.57 2580,1320.5C 2574.1,1327.03 2570.44,1334.7 2569,1343.5C 2565.9,1345.93 2563.57,1348.93 2562,1352.5C 2561.13,1356.98 2559.8,1361.32 2558,1365.5C 2555.28,1367.22 2553.28,1369.55 2552,1372.5C 2550.82,1376.88 2549.49,1381.21 2548,1385.5C 2542.11,1390.46 2538.44,1396.79 2537,1404.5C 2534.98,1406.68 2532.82,1408.68 2530.5,1410.5C 2529.46,1417.13 2526.3,1422.47 2521,1426.5C 2519.14,1430.42 2517.47,1434.42 2516,1438.5C 2514.29,1440.54 2512.29,1442.21 2510,1443.5C 2508.04,1451.13 2504.04,1457.46 2498,1462.5C 2496.55,1468.29 2493.21,1472.62 2488,1475.5C 2486.89,1480.94 2483.89,1484.94 2479,1487.5C 2476.61,1494.96 2472.28,1500.96 2466,1505.5C 2464.98,1511.68 2461.48,1515.35 2455.5,1516.5C 2454.77,1522.4 2451.61,1526.4 2446,1528.5C 2444.09,1533.91 2440.59,1537.91 2435.5,1540.5C 2433.58,1545.25 2430.42,1548.92 2426,1551.5C 2424.92,1554 2423.59,1556.33 2422,1558.5C 2405.93,1574.07 2389.77,1589.4 2373.5,1604.5C 2371.24,1609.26 2367.57,1612.43 2362.5,1614C 2359.69,1618.81 2355.69,1622.14 2350.5,1624C 2348.21,1629.46 2344.21,1632.96 2338.5,1634.5C 2335.91,1639.59 2331.91,1643.09 2326.5,1645C 2322.64,1650.93 2317.31,1654.93 2310.5,1657C 2307.02,1661.99 2302.36,1665.15 2296.5,1666.5C 2293.55,1672.61 2288.72,1676.28 2282,1677.5C 2277.79,1683.03 2272.29,1686.69 2265.5,1688.5C 2261.68,1694.25 2256.34,1697.75 2249.5,1699C 2244.49,1704.9 2238.16,1708.56 2230.5,1710C 2229.07,1712.18 2227.4,1714.18 2225.5,1716C 2221.21,1717.49 2216.88,1718.82 2212.5,1720C 2210.5,1722.33 2208.5,1724.67 2206.5,1727C 2198.84,1727.99 2192.51,1731.33 2187.5,1737C 2182.53,1738.46 2177.53,1739.79 2172.5,1741C 2169.51,1743.29 2166.51,1745.62 2163.5,1748C 2158.47,1749.21 2153.47,1750.54 2148.5,1752C 2146.53,1753.97 2144.53,1755.97 2142.5,1758C 2136.6,1759.76 2130.6,1761.09 2124.5,1762C 2120.89,1763.94 2117.56,1766.28 2114.5,1769C 2107.47,1770.24 2100.47,1771.57 2093.5,1773C 2089.74,1775.76 2085.74,1778.1 2081.5,1780C 2073.47,1781.17 2065.47,1782.5 2057.5,1784C 2053.78,1786.53 2049.78,1788.53 2045.5,1790C 2034.85,1791.46 2024.18,1792.8 2013.5,1794C 2008.18,1795.99 2002.84,1797.99 1997.5,1800C 1980.21,1801.85 1962.88,1803.02 1945.5,1803.5C 1945.39,1836.69 1944.56,1870.03 1943,1903.5C 1941,1920.83 1939,1938.16 1937,1955.5C 1936.23,1989.51 1935.23,2023.51 1934,2057.5C 1932.28,2066.32 1929.95,2074.98 1927,2083.5C 1925.74,2100.84 1924.41,2118.17 1923,2135.5C 1920.67,2143.82 1918.34,2152.15 1916,2160.5C 1915.03,2175.5 1914.03,2190.5 1913,2205.5C 1911.21,2211.09 1908.87,2216.42 1906,2221.5C 1904.55,2231.48 1903.21,2241.48 1902,2251.5C 1899.68,2256.8 1897.35,2262.14 1895,2267.5C 1894,2273.83 1893,2280.17 1892,2286.5C 1890.17,2291.66 1887.5,2296.33 1884,2300.5C 1883.71,2311.01 1880.38,2320.35 1874,2328.5C 1872.67,2333.83 1871.33,2339.17 1870,2344.5C 1868.29,2347.26 1866.12,2349.59 1863.5,2351.5C 1862,2355.49 1860.5,2359.49 1859,2363.5C 1853.6,2368.31 1850.26,2374.31 1849,2381.5C 1844.15,2385.86 1840.82,2391.19 1839,2397.5C 1836.97,2401.03 1834.14,2403.69 1830.5,2405.5C 1828.61,2410.97 1825.11,2414.97 1820,2417.5C 1818.55,2423.12 1815.05,2426.46 1809.5,2427.5C 1808.53,2433.97 1804.87,2438.14 1798.5,2440C 1797.32,2442.69 1795.66,2445.02 1793.5,2447C 1790.38,2448.06 1787.38,2449.39 1784.5,2451C 1780.25,2457.26 1774.25,2460.59 1766.5,2461C 1763.5,2463.33 1760.5,2465.67 1757.5,2468C 1749.24,2469.7 1740.9,2471.03 1732.5,2472C 1729.21,2474.48 1725.54,2476.14 1721.5,2477C 1704.5,2479 1687.5,2479 1670.5,2477C 1665.23,2476.13 1660.23,2474.47 1655.5,2472C 1648.52,2470.85 1641.52,2469.85 1634.5,2469C 1630.36,2467.86 1627.03,2465.53 1624.5,2462C 1619.83,2460.33 1615.17,2458.67 1610.5,2457C 1606.33,2452.41 1601.33,2449.08 1595.5,2447C 1593.3,2444.77 1591.47,2442.27 1590,2439.5C 1584.03,2437.53 1580.03,2433.53 1578,2427.5C 1575.31,2426.32 1572.98,2424.66 1571,2422.5C 1569,2415.16 1565,2409.16 1559,2404.5C 1558.2,2401.76 1557.2,2399.09 1556,2396.5C 1550.79,2393.62 1547.45,2389.29 1546,2383.5C 1539.11,2377.86 1535.44,2370.53 1535,2361.5C 1532.28,2358.44 1529.94,2355.11 1528,2351.5C 1527.03,2341.91 1523.36,2333.57 1517,2326.5C 1515.78,2321.21 1514.78,2315.88 1514,2310.5C 1511.26,2306.08 1508.93,2301.41 1507,2296.5C 1505.52,2287.19 1504.19,2277.86 1503,2268.5C 1499.8,2264.63 1497.46,2260.3 1496,2255.5C 1494.69,2243.53 1493.69,2231.53 1493,2219.5C 1490.13,2209.88 1487.46,2200.22 1485,2190.5C 1484.03,2170.17 1483.03,2149.83 1482,2129.5C 1478.58,2113.66 1476.25,2097.66 1475,2081.5C 1473.42,1993.48 1471.08,1905.48 1468,1817.5C 1466.54,1664.14 1467.87,1510.81 1472,1357.5C 1472.89,1262.83 1473.89,1168.16 1475,1073.5C 1476.67,1043.45 1479,1013.45 1482,983.5C 1483.04,945.835 1484.04,908.168 1485,870.5C 1486.63,849.039 1489.29,827.706 1493,806.5C 1493.67,787.812 1494.67,769.145 1496,750.5C 1497.51,744.485 1499.84,738.819 1503,733.5C 1503.87,728.805 1504.87,724.139 1506,719.5C 1510.87,715.627 1515.04,711.127 1518.5,706C 1521.24,705.197 1523.91,704.197 1526.5,703C 1528.13,700.372 1530.13,698.039 1532.5,696C 1540.11,694.867 1546.11,691.2 1550.5,685C 1557.1,683.699 1562.44,680.366 1566.5,675C 1574.49,674.171 1580.83,670.504 1585.5,664C 1590.29,662.637 1594.96,660.971 1599.5,659C 1600.45,657.045 1601.79,655.378 1603.5,654C 1607.78,652.514 1612.11,651.181 1616.5,650C 1620.07,648.431 1623.07,646.098 1625.5,643C 1630.31,641.423 1635.14,639.923 1640,638.5C 1644.72,632.692 1650.89,629.526 1658.5,629C 1662.07,627.431 1665.07,625.098 1667.5,622C 1675.94,620.972 1682.94,617.306 1688.5,611C 1696.91,610.492 1703.91,607.158 1709.5,601C 1714.07,599.358 1718.73,598.025 1723.5,597C 1727.11,595.056 1730.44,592.723 1733.5,590C 1738.79,588.785 1744.12,587.785 1749.5,587C 1753.11,585.056 1756.44,582.723 1759.5,580C 1765.4,578.239 1771.4,576.905 1777.5,576C 1781.11,574.056 1784.44,571.723 1787.5,569C 1793.19,567.774 1798.86,566.441 1804.5,565C 1807.52,563.487 1810.19,561.487 1812.5,559C 1819.47,557.226 1826.47,555.56 1833.5,554C 1836.13,552.374 1838.46,550.374 1840.5,548C 1847.44,546.389 1854.44,545.056 1861.5,544C 1865.5,541.667 1869.5,539.333 1873.5,537C 1880.46,535.755 1887.46,534.755 1894.5,534C 1899.86,531.287 1905.19,528.621 1910.5,526C 1918.82,524.934 1927.16,523.934 1935.5,523C 1941.02,520.408 1946.69,518.075 1952.5,516C 1962.13,514.64 1971.79,513.64 1981.5,513C 1991.97,509.511 2002.63,506.844 2013.5,505C 2035.49,503.729 2057.49,502.729 2079.5,502C 2091.37,501.392 2103.04,500.225 2114.5,498.5 Z M 2094.5,999.5 C 2104.93,1000.11 2114.93,1002.61 2124.5,1007C 2129.9,1007.72 2135.23,1008.72 2140.5,1010C 2143.28,1014.78 2147.28,1018.11 2152.5,1020C 2154.65,1023.31 2157.31,1026.15 2160.5,1028.5C 2162.69,1033.85 2165.86,1038.52 2170,1042.5C 2171.21,1047.53 2172.54,1052.53 2174,1057.5C 2181.2,1065.42 2184.2,1074.76 2183,1085.5C 2183.67,1105.17 2183.67,1124.83 2183,1144.5C 2182.87,1150.91 2182.2,1157.25 2181,1163.5C 2179,1166.17 2177,1168.83 2175,1171.5C 2173.03,1176.73 2171.36,1182.06 2170,1187.5C 2164.78,1193.27 2161.12,1199.93 2159,1207.5C 2154.08,1211.07 2150.75,1215.74 2149,1221.5C 2144.22,1224.28 2140.89,1228.28 2139,1233.5C 2134.95,1235.89 2131.95,1239.22 2130,1243.5C 2124.83,1246 2121,1249.83 2118.5,1255C 2112.9,1256.43 2109.57,1259.93 2108.5,1265.5C 2103.04,1266.95 2099.04,1270.29 2096.5,1275.5C 2090.99,1276.5 2086.66,1279.33 2083.5,1284C 2076.21,1285.8 2070.55,1289.8 2066.5,1296C 2063.91,1297.2 2061.24,1298.2 2058.5,1299C 2053.32,1304.76 2046.98,1308.76 2039.5,1311C 2037.5,1313.33 2035.5,1315.67 2033.5,1318C 2027.83,1318.83 2023.5,1321.67 2020.5,1326.5C 2016.29,1328.63 2011.96,1330.46 2007.5,1332C 2005.6,1333.82 2003.93,1335.82 2002.5,1338C 1997.83,1339.33 1993.17,1340.67 1988.5,1342C 1986.32,1344.02 1984.32,1346.18 1982.5,1348.5C 1977.55,1350.15 1972.55,1351.65 1967.5,1353C 1965.46,1354.71 1963.79,1356.71 1962.5,1359C 1957.45,1360.51 1952.45,1362.18 1947.5,1364C 1945.58,1367.58 1942.75,1370.08 1939,1371.5C 1937.21,1370.09 1936.04,1368.25 1935.5,1366C 1937.31,1348.27 1938.31,1330.44 1938.5,1312.5C 1936.81,1268.85 1935.65,1225.18 1935,1181.5C 1934.58,1159.89 1931.91,1138.55 1927,1117.5C 1925.35,1095.85 1925.18,1074.18 1926.5,1052.5C 1931.14,1051.23 1935.8,1050.06 1940.5,1049C 1942.93,1045.9 1945.93,1043.57 1949.5,1042C 1958.51,1041.51 1966.18,1038.18 1972.5,1032C 1977.38,1030.29 1982.38,1028.96 1987.5,1028C 1991.5,1025.33 1995.5,1022.67 1999.5,1020C 2010.59,1019.73 2020.59,1016.4 2029.5,1010C 2042.17,1008.33 2054.83,1006.67 2067.5,1005C 2076.48,1002.33 2085.48,1000.5 2094.5,999.5 Z"/></g>
<g><path style="opacity:0.996" fill="#000000" d="M 817.5,1214.5 C 824.241,1214.17 830.908,1214.67 837.5,1216C 843.609,1220.39 850.276,1223.72 857.5,1226C 863.452,1232.74 869.285,1239.57 875,1246.5C 876.333,1249.83 877.667,1253.17 879,1256.5C 881.374,1258.54 883.374,1260.87 885,1263.5C 886.46,1269.13 887.793,1274.8 889,1280.5C 895.862,1291.45 899.195,1303.45 899,1316.5C 902.108,1321.95 904.775,1327.61 907,1333.5C 908,1344.5 909,1355.5 910,1366.5C 911.405,1372.38 913.405,1378.05 916,1383.5C 916.912,1387.79 917.579,1392.13 918,1396.5C 918.733,1415.5 919.4,1434.5 920,1453.5C 921.814,1470.57 924.148,1487.57 927,1504.5C 929.173,1543.38 929.673,1582.21 928.5,1621C 929.941,1625.69 930.608,1630.52 930.5,1635.5C 985.678,1636.15 1041.01,1636.99 1096.5,1638C 1124.81,1637.63 1152.81,1640.29 1180.5,1646C 1198.21,1646.77 1215.88,1648.1 1233.5,1650C 1239.49,1651.99 1245.49,1653.99 1251.5,1656C 1260.51,1657.26 1269.51,1658.59 1278.5,1660C 1281.81,1661.97 1285.15,1663.97 1288.5,1666C 1294.13,1667.46 1299.8,1668.79 1305.5,1670C 1311.74,1675.79 1319.07,1679.45 1327.5,1681C 1329.66,1682.98 1331.32,1685.31 1332.5,1688C 1334.72,1689.28 1337.05,1690.28 1339.5,1691C 1343.3,1695.8 1347.47,1700.3 1352,1704.5C 1353.68,1713.72 1355.51,1722.89 1357.5,1732C 1355.39,1742.93 1352.89,1753.77 1350,1764.5C 1343.57,1768.92 1337.74,1774.09 1332.5,1780C 1327.13,1782.35 1322.46,1785.69 1318.5,1790C 1313.23,1791.59 1307.9,1792.92 1302.5,1794C 1299.5,1796.33 1296.5,1798.67 1293.5,1801C 1285.85,1802.42 1278.18,1803.75 1270.5,1805C 1267.17,1807 1263.83,1809 1260.5,1811C 1244.89,1812.89 1229.22,1814.22 1213.5,1815C 1202.61,1819.55 1191.28,1822.22 1179.5,1823C 1141.83,1823.53 1104.16,1824.2 1066.5,1825C 1021.06,1828.13 975.726,1829.96 930.5,1830.5C 928.862,1854.81 927.362,1879.14 926,1903.5C 923.565,1918.78 921.565,1934.11 920,1949.5C 919.345,1971.19 918.345,1992.85 917,2014.5C 915.143,2025.6 912.809,2036.6 910,2047.5C 909.081,2062.88 907.748,2078.21 906,2093.5C 903.925,2099.31 901.592,2104.98 899,2110.5C 898.132,2118.52 897.132,2126.52 896,2134.5C 893.936,2138.96 891.602,2143.29 889,2147.5C 887.779,2153.33 886.613,2159.16 885.5,2165C 883.739,2168.43 881.572,2171.6 879,2174.5C 877.54,2179.47 876.206,2184.47 875,2189.5C 873.374,2192.13 871.374,2194.46 869,2196.5C 867.333,2201.17 865.667,2205.83 864,2210.5C 861.933,2213.07 859.433,2215.07 856.5,2216.5C 855.111,2222.56 851.445,2226.22 845.5,2227.5C 845.358,2230.62 844.024,2233.12 841.5,2235C 836.934,2236.64 832.268,2237.98 827.5,2239C 824.228,2240.61 821.228,2242.61 818.5,2245C 812.415,2245.86 806.415,2245.53 800.5,2244C 793.879,2240.19 786.879,2237.19 779.5,2235C 777.383,2233.27 775.883,2231.1 775,2228.5C 768.177,2225.17 763.677,2219.84 761.5,2212.5C 758.81,2210.64 756.644,2208.31 755,2205.5C 754.463,2197.65 751.13,2191.31 745,2186.5C 743.12,2179.22 741.453,2171.89 740,2164.5C 738,2161.83 736,2159.17 734,2156.5C 732.56,2150.2 731.227,2143.86 730,2137.5C 727.667,2133.5 725.333,2129.5 723,2125.5C 721.737,2117.54 720.737,2109.54 720,2101.5C 718.459,2096.09 716.126,2091.09 713,2086.5C 711.141,2076.58 709.808,2066.58 709,2056.5C 706.463,2049.22 704.13,2041.89 702,2034.5C 700.625,2019.5 699.292,2004.5 698,1989.5C 696.285,1983.74 694.285,1978.07 692,1972.5C 690.121,1957.22 688.787,1941.89 688,1926.5C 680.6,1900.04 677.267,1873.04 678,1845.5C 677.654,1843.78 677.154,1842.12 676.5,1840.5C 600.213,1836.66 523.879,1834.16 447.5,1833C 435.5,1832.33 423.833,1830 412.5,1826C 395.495,1824.7 378.495,1823.37 361.5,1822C 356.968,1820.48 352.635,1818.48 348.5,1816C 338.239,1814.17 327.906,1812.84 317.5,1812C 311.305,1809.91 305.305,1807.24 299.5,1804C 293.637,1803.41 287.97,1802.08 282.5,1800C 279.202,1795.01 274.535,1792.01 268.5,1791C 265,1786.17 260.833,1782 256,1778.5C 253.997,1773.15 250.997,1768.49 247,1764.5C 244.609,1752.32 245.275,1740.32 249,1728.5C 253.283,1724.41 255.949,1719.41 257,1713.5C 261.202,1709.63 265.035,1705.47 268.5,1701C 273.237,1698.88 276.903,1695.54 279.5,1691C 286.113,1689.69 291.447,1686.36 295.5,1681C 299.77,1679.75 304.104,1678.75 308.5,1678C 312.759,1676.07 316.759,1673.73 320.5,1671C 328.085,1669.26 335.752,1667.93 343.5,1667C 348.412,1665.07 353.078,1662.74 357.5,1660C 366.79,1658.4 376.124,1657.07 385.5,1656C 392.643,1653.1 399.976,1650.76 407.5,1649C 440.299,1646.98 472.966,1643.65 505.5,1639C 554.392,1637.93 603.225,1637.1 652,1636.5C 657.667,1636.83 663.333,1637.17 669,1637.5C 676.087,1636.69 683.253,1636.19 690.5,1636C 691.718,1634.56 692.385,1632.9 692.5,1631C 690.033,1592.97 691.866,1555.14 698,1517.5C 699.18,1492.82 700.513,1468.15 702,1443.5C 703.405,1437.62 705.405,1431.95 708,1426.5C 709.714,1411.51 711.38,1396.51 713,1381.5C 715.254,1377.99 717.254,1374.33 719,1370.5C 720.479,1361.86 721.812,1353.19 723,1344.5C 724.279,1339.28 726.612,1334.61 730,1330.5C 730.871,1323.4 732.204,1316.4 734,1309.5C 740.416,1302.5 743.75,1294.17 744,1284.5C 746.723,1281.44 749.056,1278.11 751,1274.5C 751.428,1266.4 754.928,1260.06 761.5,1255.5C 762.919,1249.25 766.419,1244.58 772,1241.5C 774.032,1236.64 777.532,1233.3 782.5,1231.5C 784.316,1229.18 786.316,1227.02 788.5,1225C 798.259,1221.44 807.925,1217.94 817.5,1214.5 Z"/></g>
</svg>
