<svg xmlns="http://www.w3.org/2000/svg" version="1.1" width="3000px" height="3000px" style="shape-rendering:geometricPrecision; text-rendering:geometricPrecision; image-rendering:optimizeQuality; fill-rule:evenodd; clip-rule:evenodd" xmlns:xlink="http://www.w3.org/1999/xlink">
<g><path style="opacity:0.998" fill="#000000" d="M 2047.5,646.5 C 2073.17,647.899 2098.84,649.399 2124.5,651C 2129.6,652.717 2134.6,654.717 2139.5,657C 2146.5,658 2153.5,659 2160.5,660C 2163.81,661.968 2167.15,663.968 2170.5,666C 2175.83,667.333 2181.17,668.667 2186.5,670C 2187.83,671.333 2189.17,672.667 2190.5,674C 2195.95,675.695 2201.28,677.695 2206.5,680C 2209.48,684.681 2213.81,687.347 2219.5,688C 2223.37,692.772 2228.37,695.772 2234.5,697C 2236.5,699.333 2238.5,701.667 2240.5,704C 2244.83,705.667 2247.83,708.667 2249.5,713C 2254.5,716.347 2259.17,720.013 2263.5,724C 2265.66,725.981 2267.32,728.314 2268.5,731C 2272.64,732.637 2275.64,735.47 2277.5,739.5C 2279.11,740.427 2280.78,741.261 2282.5,742C 2289.31,748.806 2296.14,755.64 2303,762.5C 2304.56,766.724 2307.22,770.057 2311,772.5C 2312.46,777.091 2315.12,780.758 2319,783.5C 2320.9,790.292 2324.56,795.958 2330,800.5C 2331.12,805.289 2333.79,808.956 2338,811.5C 2339.82,817.81 2343.15,823.143 2348,827.5C 2349.17,832.499 2351.83,836.499 2356,839.5C 2357.84,844.011 2359.17,848.677 2360,853.5C 2361.61,856.772 2363.61,859.772 2366,862.5C 2367.21,871.156 2370.55,878.823 2376,885.5C 2377,889.833 2378,894.167 2379,898.5C 2381.35,900.514 2383.35,902.847 2385,905.5C 2386,909.833 2387,914.167 2388,918.5C 2394.38,928.852 2397.38,940.186 2397,952.5C 2399.89,957.609 2402.22,962.943 2404,968.5C 2404.71,976.208 2405.71,983.875 2407,991.5C 2410.06,994.952 2412.06,998.952 2413,1003.5C 2414.05,1014.5 2415.05,1025.5 2416,1036.5C 2418.81,1043.61 2420.81,1050.94 2422,1058.5C 2422.96,1072.84 2423.96,1087.17 2425,1101.5C 2430.55,1132.41 2432.71,1163.58 2431.5,1195C 2431.33,1209.5 2431.17,1224 2431,1238.5C 2430.67,1241.5 2430.33,1244.5 2430,1247.5C 2428.13,1252.1 2426.47,1256.77 2425,1261.5C 2424.09,1272.18 2423.09,1282.84 2422,1293.5C 2420.03,1297.48 2418.03,1301.48 2416,1305.5C 2414.59,1311.76 2413.59,1318.09 2413,1324.5C 2412.02,1328.46 2410.02,1331.8 2407,1334.5C 2405.79,1339.53 2404.46,1344.53 2403,1349.5C 2401.14,1351.36 2399.31,1353.19 2397.5,1355C 2397.13,1362.39 2394.29,1368.56 2389,1373.5C 2387.8,1376.09 2386.8,1378.76 2386,1381.5C 2380.92,1385.33 2377.58,1390.33 2376,1396.5C 2373.98,1398.68 2371.82,1400.68 2369.5,1402.5C 2366.55,1407.61 2363.05,1412.28 2359,1416.5C 2351.2,1423.29 2343.7,1430.46 2336.5,1438C 2332.02,1439.48 2328.35,1442.14 2325.5,1446C 2318.55,1446.75 2312.88,1449.75 2308.5,1455C 2300.79,1456.46 2293.79,1459.46 2287.5,1464C 2253.2,1466.96 2218.87,1467.29 2184.5,1465C 2181.09,1464.7 2177.75,1464.04 2174.5,1463C 2171.95,1460.56 2168.95,1458.89 2165.5,1458C 2160.1,1457.28 2154.77,1456.28 2149.5,1455C 2147.21,1453.71 2145.21,1452.04 2143.5,1450C 2139.91,1448.47 2136.24,1447.14 2132.5,1446C 2128.71,1441.94 2124.37,1438.61 2119.5,1436C 2112.64,1428.8 2105.47,1421.97 2098,1415.5C 2095.76,1411.25 2092.76,1407.59 2089,1404.5C 2086.91,1400.55 2085.41,1396.38 2084.5,1392C 2078.83,1387.18 2075.49,1381.02 2074.5,1373.5C 2072.14,1371.98 2070.31,1369.98 2069,1367.5C 2067.85,1360.52 2066.85,1353.52 2066,1346.5C 2062.74,1341.91 2060.4,1336.91 2059,1331.5C 2057.9,1303.06 2055.57,1274.73 2052,1246.5C 2050.5,1217.51 2049.17,1188.51 2048,1159.5C 2047.67,1157.5 2047.33,1155.5 2047,1153.5C 2044.97,1150.15 2042.97,1146.81 2041,1143.5C 2040.19,1137.8 2039.19,1132.13 2038,1126.5C 2033.63,1124.97 2030.8,1121.97 2029.5,1117.5C 2025.34,1114.84 2021.67,1111.67 2018.5,1108C 1999.42,1105.71 1980.42,1106.04 1961.5,1109C 1959.21,1110.29 1957.21,1111.96 1955.5,1114C 1951.5,1115.33 1947.5,1116.67 1943.5,1118C 1940.15,1122.52 1935.81,1125.85 1930.5,1128C 1927.64,1132.36 1923.98,1135.86 1919.5,1138.5C 1917.67,1141.5 1915.83,1144.5 1914,1147.5C 1906.33,1156.17 1898.67,1164.83 1891,1173.5C 1890.2,1176.89 1889.2,1180.23 1888,1183.5C 1885.81,1185.69 1883.64,1187.86 1881.5,1190C 1880.72,1193.63 1879.55,1197.13 1878,1200.5C 1875.63,1202.54 1873.63,1204.87 1872,1207.5C 1871.44,1214.53 1868.61,1220.37 1863.5,1225C 1862.33,1230.16 1861.17,1235.33 1860,1240.5C 1857.23,1242.6 1855.23,1245.27 1854,1248.5C 1852.92,1253.9 1851.59,1259.23 1850,1264.5C 1847.6,1266.31 1845.93,1268.64 1845,1271.5C 1844.15,1278.93 1842.82,1286.27 1841,1293.5C 1838.94,1295.9 1837.27,1298.57 1836,1301.5C 1834.81,1307.8 1833.81,1314.14 1833,1320.5C 1830.66,1326.51 1828.33,1332.51 1826,1338.5C 1825.36,1348.21 1824.36,1357.87 1823,1367.5C 1821,1372.17 1819,1376.83 1817,1381.5C 1816.17,1391.19 1815.17,1400.85 1814,1410.5C 1811.72,1415.4 1809.72,1420.4 1808,1425.5C 1807.33,1445.22 1804.33,1464.55 1799,1483.5C 1797.91,1500.16 1796.91,1516.83 1796,1533.5C 1794.63,1542.32 1792.63,1550.98 1790,1559.5C 1786.72,1629.84 1786.72,1700.17 1790,1770.5C 1791.67,1777.5 1793.33,1784.5 1795,1791.5C 1796.24,1805.51 1797.57,1819.51 1799,1833.5C 1801.04,1838.19 1803.04,1842.85 1805,1847.5C 1806,1855.83 1807,1864.17 1808,1872.5C 1809.61,1875.77 1811.61,1878.77 1814,1881.5C 1814.59,1889.89 1817.59,1897.23 1823,1903.5C 1824.33,1908.83 1825.67,1914.17 1827,1919.5C 1828.29,1921.79 1829.96,1923.79 1832,1925.5C 1833.4,1929.21 1834.9,1932.87 1836.5,1936.5C 1840.75,1941.98 1845.25,1947.32 1850,1952.5C 1851.67,1956.17 1853.33,1959.83 1855,1963.5C 1858.59,1966.42 1861.42,1969.92 1863.5,1974C 1867.78,1975.95 1871.11,1978.95 1873.5,1983C 1878.86,1984.34 1883.2,1987.18 1886.5,1991.5C 1890.01,1993.13 1893.67,1994.29 1897.5,1995C 1900.67,1996.75 1903.67,1998.75 1906.5,2001C 1922.71,2002.89 1938.87,2004.72 1955,2006.5C 1974.4,2004.49 1993.9,2002.99 2013.5,2002C 2020.59,1999.96 2027.59,1997.62 2034.5,1995C 2041.21,1994.28 2047.88,1993.28 2054.5,1992C 2057.01,1990.58 2059.34,1988.91 2061.5,1987C 2068.77,1985.34 2076.1,1984.01 2083.5,1983C 2087.4,1981.43 2091.07,1979.43 2094.5,1977C 2100.82,1975.92 2107.15,1974.92 2113.5,1974C 2117.33,1972.25 2120.99,1970.25 2124.5,1968C 2130.79,1966.76 2137.12,1965.76 2143.5,1965C 2147.4,1963.43 2151.07,1961.43 2154.5,1959C 2162.15,1957.57 2169.81,1956.24 2177.5,1955C 2179.83,1953.33 2182.17,1951.67 2184.5,1950C 2193.45,1948.34 2202.45,1947.01 2211.5,1946C 2216.95,1943.41 2222.62,1941.41 2228.5,1940C 2257.81,1938.42 2287.14,1938.09 2316.5,1939C 2318.5,1939.33 2320.5,1939.67 2322.5,1940C 2328.92,1945.25 2336.25,1948.59 2344.5,1950C 2346.88,1954.37 2350.55,1957.03 2355.5,1958C 2357.87,1960.04 2359.87,1962.37 2361.5,1965C 2365.33,1966.17 2367.83,1968.67 2369,1972.5C 2373.78,1975.28 2377.11,1979.28 2379,1984.5C 2384.12,1987.8 2387.45,1992.47 2389,1998.5C 2393.79,2002.74 2396.45,2008.07 2397,2014.5C 2399.76,2018.26 2402.1,2022.26 2404,2026.5C 2405.95,2042.22 2408.12,2057.88 2410.5,2073.5C 2407.71,2092.08 2405.55,2110.75 2404,2129.5C 2402.75,2135.32 2400.42,2140.66 2397,2145.5C 2396.71,2153.73 2393.71,2160.73 2388,2166.5C 2387.94,2174.23 2384.77,2180.23 2378.5,2184.5C 2377.95,2189.98 2375.45,2194.31 2371,2197.5C 2369.06,2201.05 2367.39,2204.71 2366,2208.5C 2364.42,2210.04 2362.59,2211.21 2360.5,2212C 2358.56,2216.78 2355.22,2219.95 2350.5,2221.5C 2350.51,2223.31 2350.01,2224.98 2349,2226.5C 2337.84,2238.94 2327.01,2251.77 2316.5,2265C 2307.05,2272.56 2297.38,2279.9 2287.5,2287C 2285.02,2291.48 2281.36,2294.48 2276.5,2296C 2274.76,2300.74 2271.43,2303.74 2266.5,2305C 2262.82,2310.35 2257.82,2314.02 2251.5,2316C 2248.21,2320.32 2243.88,2322.99 2238.5,2324C 2234.08,2329.37 2228.42,2332.7 2221.5,2334C 2220.55,2335.96 2219.21,2337.62 2217.5,2339C 2211.4,2340.21 2206.4,2343.21 2202.5,2348C 2198.88,2349.49 2195.22,2350.82 2191.5,2352C 2190.55,2353.96 2189.21,2355.62 2187.5,2357C 2182.53,2358.46 2177.53,2359.79 2172.5,2361C 2166.52,2366.25 2159.52,2369.25 2151.5,2370C 2148.27,2371.23 2145.6,2373.23 2143.5,2376C 2138.86,2377.13 2134.19,2378.13 2129.5,2379C 2126.87,2380.63 2124.54,2382.63 2122.5,2385C 2116.23,2386.37 2109.9,2387.37 2103.5,2388C 2098.47,2390.38 2093.47,2392.71 2088.5,2395C 2081.44,2395.59 2074.44,2396.59 2067.5,2398C 2063.78,2400.53 2059.78,2402.53 2055.5,2404C 2034.2,2404.41 2013.2,2407.08 1992.5,2412C 1980.83,2412.67 1969.17,2412.67 1957.5,2412C 1930.98,2407.91 1904.31,2405.25 1877.5,2404C 1871.35,2403.39 1865.68,2401.39 1860.5,2398C 1849.81,2396.78 1839.15,2395.44 1828.5,2394C 1825.67,2391.75 1822.67,2389.75 1819.5,2388C 1813.8,2387.19 1808.13,2386.19 1802.5,2385C 1794.85,2379.25 1786.19,2376.25 1776.5,2376C 1771.1,2371.13 1764.76,2368.13 1757.5,2367C 1753.11,2361.64 1747.45,2358.64 1740.5,2358C 1735.96,2352.06 1729.96,2348.73 1722.5,2348C 1718.19,2343.17 1712.86,2339.84 1706.5,2338C 1703.54,2333.85 1699.54,2331.18 1694.5,2330C 1692.47,2328.1 1690.8,2325.94 1689.5,2323.5C 1684.71,2322.38 1681.04,2319.71 1678.5,2315.5C 1672.49,2313.49 1667.49,2309.99 1663.5,2305C 1658.43,2303.43 1654.76,2300.26 1652.5,2295.5C 1647.7,2293.87 1644.37,2290.7 1642.5,2286C 1637.5,2282.65 1632.83,2278.99 1628.5,2275C 1626.38,2273.27 1624.88,2271.1 1624,2268.5C 1622.58,2267.54 1621.08,2266.71 1619.5,2266C 1616.33,2261.5 1612.5,2257.67 1608,2254.5C 1607.33,2253.17 1606.67,2251.83 1606,2250.5C 1600.67,2245.17 1595.33,2239.83 1590,2234.5C 1589.33,2233.17 1588.67,2231.83 1588,2230.5C 1583.58,2227.92 1580.42,2224.25 1578.5,2219.5C 1573.62,2215.43 1569.96,2210.43 1567.5,2204.5C 1563.35,2201.54 1560.68,2197.54 1559.5,2192.5C 1557.25,2191.76 1555.42,2190.42 1554,2188.5C 1552.18,2182.19 1548.85,2176.86 1544,2172.5C 1543.07,2170.54 1542.24,2168.54 1541.5,2166.5C 1535.81,2163.12 1532.64,2158.12 1532,2151.5C 1530.72,2148.55 1528.72,2146.22 1526,2144.5C 1524.83,2137.82 1521.83,2132.15 1517,2127.5C 1515.51,2123.88 1514.18,2120.22 1513,2116.5C 1507.81,2112.45 1504.98,2107.12 1504.5,2100.5C 1498.8,2094.76 1495.63,2087.76 1495,2079.5C 1492.67,2075.83 1490.33,2072.17 1488,2068.5C 1488.03,2061.25 1485.36,2055.25 1480,2050.5C 1478.67,2045.17 1477.33,2039.83 1476,2034.5C 1473.17,2031.67 1471.17,2028.34 1470,2024.5C 1469.11,2018.81 1468.11,2013.15 1467,2007.5C 1464.58,2004.75 1462.58,2001.75 1461,1998.5C 1460,1992.83 1459,1987.17 1458,1981.5C 1455.97,1978.15 1453.97,1974.81 1452,1971.5C 1450.93,1963.84 1449.93,1956.18 1449,1948.5C 1447.26,1944.02 1445.26,1939.68 1443,1935.5C 1442.35,1921.93 1439.35,1908.93 1434,1896.5C 1432.69,1884.53 1431.69,1872.53 1431,1860.5C 1428.67,1851.5 1426.33,1842.5 1424,1833.5C 1423.31,1821.47 1422.31,1809.47 1421,1797.5C 1418.42,1791 1416.42,1784.34 1415,1777.5C 1413.85,1745.84 1412.85,1714.17 1412,1682.5C 1409.63,1665.07 1408.13,1647.57 1407.5,1630C 1408.22,1610.78 1409.72,1591.61 1412,1572.5C 1412.65,1548.48 1413.65,1524.48 1415,1500.5C 1416.38,1492.02 1418.38,1483.69 1421,1475.5C 1422.21,1460.52 1423.21,1445.52 1424,1430.5C 1426.04,1422.75 1428.37,1415.08 1431,1407.5C 1431.72,1397.8 1432.72,1388.13 1434,1378.5C 1436.57,1373.36 1438.57,1368.03 1440,1362.5C 1440.72,1352.8 1441.72,1343.13 1443,1333.5C 1448.45,1322.5 1451.45,1310.83 1452,1298.5C 1453.47,1294.22 1455.47,1290.22 1458,1286.5C 1459,1279.5 1460,1272.5 1461,1265.5C 1462.73,1261.71 1464.73,1258.04 1467,1254.5C 1468.25,1247.54 1469.25,1240.54 1470,1233.5C 1471.12,1229.05 1473.12,1225.05 1476,1221.5C 1477.19,1215.87 1478.19,1210.2 1479,1204.5C 1480.9,1200.26 1483.24,1196.26 1486,1192.5C 1486.11,1183.03 1489.11,1174.7 1495,1167.5C 1496,1162.17 1497,1156.83 1498,1151.5C 1503.73,1144.61 1506.73,1136.61 1507,1127.5C 1508.61,1124.23 1510.61,1121.23 1513,1118.5C 1513.47,1108.92 1516.8,1100.59 1523,1093.5C 1523.87,1089.46 1524.87,1085.46 1526,1081.5C 1528.37,1079.46 1530.37,1077.13 1532,1074.5C 1532.33,1066.83 1535.33,1060.5 1541,1055.5C 1542.02,1050.73 1543.36,1046.07 1545,1041.5C 1550.14,1037.12 1552.81,1031.45 1553,1024.5C 1558.29,1019.31 1561.29,1012.98 1562,1005.5C 1563.63,1002.87 1565.63,1000.54 1568,998.5C 1569.02,991.46 1572.35,985.793 1578,981.5C 1582.81,973.99 1586.81,965.99 1590,957.5C 1595.28,953.958 1598.28,948.958 1599,942.5C 1600.64,939.689 1602.81,937.356 1605.5,935.5C 1606.56,929.696 1609.4,925.029 1614,921.5C 1615.16,915.177 1618.32,910.177 1623.5,906.5C 1624.65,901.522 1627.48,897.855 1632,895.5C 1634.12,889.377 1637.79,884.377 1643,880.5C 1644,878.5 1645,876.5 1646,874.5C 1650.82,869.542 1655.66,864.542 1660.5,859.5C 1667.43,849.286 1674.6,839.286 1682,829.5C 1698.78,813.717 1714.95,797.217 1730.5,780C 1731.83,779.333 1733.17,778.667 1734.5,778C 1739.83,772.667 1745.17,767.333 1750.5,762C 1752.5,761 1754.5,760 1756.5,759C 1762.65,753.429 1768.98,748.096 1775.5,743C 1777.46,742.069 1779.46,741.236 1781.5,740.5C 1783.29,738.424 1784.95,736.257 1786.5,734C 1792.67,732.415 1797.67,729.082 1801.5,724C 1803.87,723.265 1806.2,722.432 1808.5,721.5C 1809.98,719.517 1811.65,717.684 1813.5,716C 1820.25,714.458 1825.92,711.125 1830.5,706C 1836.6,704.787 1841.6,701.787 1845.5,697C 1852.41,696.259 1858.08,693.259 1862.5,688C 1870.32,687.391 1876.98,684.391 1882.5,679C 1890.73,678.094 1898.07,675.094 1904.5,670C 1910.09,668.63 1915.76,667.63 1921.5,667C 1926.65,664.924 1931.65,662.59 1936.5,660C 1944.17,659 1951.83,658 1959.5,657C 1965.36,654.601 1971.36,652.601 1977.5,651C 2001.01,649.829 2024.34,648.329 2047.5,646.5 Z"/></g>
<g><path style="opacity:0.995" fill="#000000" d="M 895.5,1277.5 C 902.175,1277.33 908.842,1277.5 915.5,1278C 918.433,1279.27 921.099,1280.94 923.5,1283C 929.809,1284.24 934.976,1287.41 939,1292.5C 941.857,1296.87 945.19,1300.87 949,1304.5C 950.452,1310.74 953.452,1316.07 958,1320.5C 959.128,1325.14 960.128,1329.81 961,1334.5C 967.147,1344.21 970.147,1354.87 970,1366.5C 971.598,1370.42 973.598,1374.09 976,1377.5C 977.495,1387.1 978.495,1396.77 979,1406.5C 981.626,1414.75 983.96,1423.09 986,1431.5C 985.913,1463.74 988.579,1495.74 994,1527.5C 995.128,1565.53 996.295,1603.53 997.5,1641.5C 1004.72,1642.18 1011.89,1642.85 1019,1643.5C 1019.33,1643.17 1019.67,1642.83 1020,1642.5C 1060.43,1643.63 1100.93,1644.46 1141.5,1645C 1166.1,1644.77 1190.43,1647.11 1214.5,1652C 1228.85,1652.74 1243.19,1653.74 1257.5,1655C 1264.33,1656.41 1270.99,1658.41 1277.5,1661C 1284.84,1661.93 1292.18,1662.93 1299.5,1664C 1302.81,1665.97 1306.15,1667.97 1309.5,1670C 1314.19,1670.87 1318.86,1671.87 1323.5,1673C 1325.79,1674.29 1327.79,1675.96 1329.5,1678C 1333.39,1679.64 1337.39,1680.97 1341.5,1682C 1343.74,1683.74 1345.41,1685.91 1346.5,1688.5C 1348.37,1689.62 1350.37,1690.46 1352.5,1691C 1356.33,1695.5 1360.17,1700 1364,1704.5C 1365.27,1712.06 1366.77,1719.56 1368.5,1727C 1366.67,1735.49 1364.84,1743.99 1363,1752.5C 1358.31,1757.44 1353.47,1762.27 1348.5,1767C 1343.48,1769.84 1338.81,1773.18 1334.5,1777C 1329.91,1778.58 1325.25,1779.92 1320.5,1781C 1318.21,1782.29 1316.21,1783.96 1314.5,1786C 1307.58,1787.74 1300.58,1789.07 1293.5,1790C 1289.48,1792.03 1285.48,1794.03 1281.5,1796C 1268.85,1797.17 1256.18,1798.17 1243.5,1799C 1232.29,1803.59 1220.62,1805.92 1208.5,1806C 1174.83,1806.58 1141.16,1807.25 1107.5,1808C 1070.85,1810.2 1034.18,1812.04 997.5,1813.5C 995.784,1834.79 994.284,1856.12 993,1877.5C 991.853,1886.86 990.52,1896.19 989,1905.5C 987.826,1928.84 986.493,1952.18 985,1975.5C 982.841,1985.14 980.841,1994.8 979,2004.5C 978.309,2016.53 977.309,2028.53 976,2040.5C 974.551,2045.4 972.551,2050.07 970,2054.5C 969.146,2062.19 968.146,2069.85 967,2077.5C 961.551,2085.28 958.551,2093.95 958,2103.5C 952.679,2109.45 949.679,2116.45 949,2124.5C 947.333,2126.17 945.667,2127.83 944,2129.5C 942.333,2134.17 940.667,2138.83 939,2143.5C 937.104,2145.53 934.937,2147.2 932.5,2148.5C 931.259,2152.74 928.592,2155.74 924.5,2157.5C 923.07,2160.43 921.07,2162.93 918.5,2165C 911.007,2165.72 904.34,2168.38 898.5,2173C 893.428,2173.75 888.428,2173.42 883.5,2172C 878.226,2168.53 872.56,2165.86 866.5,2164C 864.126,2161.96 862.126,2159.63 860.5,2157C 855.021,2154.57 851.521,2150.4 850,2144.5C 845.194,2140.06 842.361,2134.56 841.5,2128C 839.688,2126.19 837.855,2124.36 836,2122.5C 834.239,2116.6 832.905,2110.6 832,2104.5C 830.744,2100.98 828.744,2097.98 826,2095.5C 825.613,2085.85 822.613,2077.19 817,2069.5C 815.636,2062.22 814.636,2054.89 814,2047.5C 812.257,2043.02 810.257,2038.68 808,2034.5C 806.404,2025.21 805.071,2015.88 804,2006.5C 802.333,2001.83 800.667,1997.17 799,1992.5C 797.335,1978.53 796.002,1964.53 795,1950.5C 792.71,1944.25 790.71,1937.92 789,1931.5C 788,1919.17 787,1906.83 786,1894.5C 783.585,1885.92 781.585,1877.26 780,1868.5C 779.132,1852.78 777.965,1837.12 776.5,1821.5C 775.009,1820.76 773.509,1820.09 772,1819.5C 768.25,1820.15 764.416,1820.48 760.5,1820.5C 696.861,1817.52 633.194,1815.35 569.5,1814C 560.833,1812 552.167,1810 543.5,1808C 529.811,1807.26 516.144,1806.26 502.5,1805C 497.833,1803 493.167,1801 488.5,1799C 479.826,1798.06 471.159,1797.06 462.5,1796C 458.221,1794.53 454.221,1792.53 450.5,1790C 445.833,1789 441.167,1788 436.5,1787C 433.872,1785.37 431.539,1783.37 429.5,1781C 426.911,1779.8 424.244,1778.8 421.5,1778C 418.237,1773.61 414.403,1769.78 410,1766.5C 409.019,1762.54 407.019,1759.2 404,1756.5C 401.01,1747.31 400.677,1737.97 403,1728.5C 404.173,1724.66 406.173,1721.33 409,1718.5C 409.511,1716.12 410.178,1713.79 411,1711.5C 417.221,1703.95 424.054,1697.11 431.5,1691C 436.939,1690.11 441.272,1687.45 444.5,1683C 449.085,1681.42 453.752,1680.08 458.5,1679C 460.833,1677.33 463.167,1675.67 465.5,1674C 472.756,1672.3 480.089,1670.96 487.5,1670C 498.204,1663.55 509.871,1660.55 522.5,1661C 527.372,1659.9 532.038,1658.23 536.5,1656C 540.114,1655.06 543.781,1654.39 547.5,1654C 573.942,1652.4 600.275,1649.74 626.5,1646C 680.493,1644.87 734.493,1643.87 788.5,1643C 789.167,1641.67 789.833,1640.33 790.5,1639C 788.266,1605.73 789.766,1572.56 795,1539.5C 796.026,1519.17 797.026,1498.83 798,1478.5C 799.201,1472.23 801.201,1466.23 804,1460.5C 805.331,1449.54 806.331,1438.54 807,1427.5C 807.413,1424.77 808.08,1422.1 809,1419.5C 810.829,1417.84 812.163,1415.84 813,1413.5C 814.406,1405.18 815.74,1396.84 817,1388.5C 819,1384.5 821,1380.5 823,1376.5C 822.846,1366.96 825.846,1358.62 832,1351.5C 833,1346.83 834,1342.17 835,1337.5C 837,1334.83 839,1332.17 841,1329.5C 841.871,1325.02 843.204,1320.68 845,1316.5C 849.584,1314.29 852.251,1310.63 853,1305.5C 859.471,1298.7 866.304,1292.2 873.5,1286C 881.235,1283.96 888.569,1281.12 895.5,1277.5 Z"/></g>
</svg>
