<svg xmlns="http://www.w3.org/2000/svg" version="1.1" width="3000px" height="3000px" style="shape-rendering:geometricPrecision; text-rendering:geometricPrecision; image-rendering:optimizeQuality; fill-rule:evenodd; clip-rule:evenodd" xmlns:xlink="http://www.w3.org/1999/xlink">
<g><path style="opacity:0.973" fill="#000000" d="M 1290.5,22.5 C 1430.83,22.3333 1571.17,22.5 1711.5,23C 1710.38,23.2492 1709.38,23.7492 1708.5,24.5C 1710.08,25.2978 1711.74,25.7978 1713.5,26C 1768.16,27.6339 1822.82,28.6339 1877.5,29C 1872.82,29.3383 1868.49,30.6716 1864.5,33C 1868.53,35.5144 1872.86,37.181 1877.5,38C 1902.18,38.9245 1924.85,40.0912 1945.5,41.5C 1945.32,43.9363 1945.98,46.103 1947.5,48C 1950.65,49.6047 1953.98,50.6047 1957.5,51C 1976.17,51.3333 1994.83,51.6667 2013.5,52C 2009.81,52.6904 2008.64,54.8571 2010,58.5C 2012.96,61.2272 2016.46,62.7272 2020.5,63C 2038.18,63.167 2055.84,63.667 2073.5,64.5C 2072.69,65.8139 2071.69,66.9805 2070.5,68C 2073.6,70.8162 2077.27,72.4828 2081.5,73C 2097.15,74.0085 2112.82,74.8419 2128.5,75.5C 2129.67,76.9056 2129.33,78.0723 2127.5,79C 2129.05,82.4462 2131.72,84.4462 2135.5,85C 2147.8,86.1767 2160.13,86.8434 2172.5,87C 2172.63,91.9308 2174.96,95.2641 2179.5,97C 2192.21,97.126 2204.87,97.7927 2217.5,99C 2213.59,101.475 2213.59,104.142 2217.5,107C 2218.83,107.333 2220.17,107.667 2221.5,108C 2235.13,109.171 2248.8,109.838 2262.5,110C 2255.81,113.344 2256.14,116.344 2263.5,119C 2273.8,120.14 2284.14,121.14 2294.5,122C 2293.41,124.064 2293.24,126.231 2294,128.5C 2296.3,130.068 2298.8,131.235 2301.5,132C 2310.17,132.333 2318.83,132.667 2327.5,133C 2324.56,136.973 2325.23,140.307 2329.5,143C 2339.1,144.391 2348.77,144.891 2358.5,144.5C 2357.12,151.31 2360.12,154.81 2367.5,155C 2374.52,155.169 2381.52,155.669 2388.5,156.5C 2388.76,158.343 2388.92,160.343 2389,162.5C 2389.83,163.333 2390.67,164.167 2391.5,165C 2399.36,166.992 2407.36,167.992 2415.5,168C 2415.63,172.931 2417.96,176.264 2422.5,178C 2429.55,178.211 2436.55,178.878 2443.5,180C 2440.36,184.404 2441.36,187.738 2446.5,190C 2454.5,190.333 2462.5,190.667 2470.5,191C 2466.5,194 2466.5,197 2470.5,200C 2477.77,201.492 2485.1,202.659 2492.5,203.5C 2491.03,206.793 2491.7,209.627 2494.5,212C 2501.1,213.163 2507.77,213.83 2514.5,214C 2512.48,218.877 2513.81,222.543 2518.5,225C 2524.49,225.499 2530.49,225.666 2536.5,225.5C 2535.71,229.631 2536.88,232.964 2540,235.5C 2545.46,236.264 2550.96,236.764 2556.5,237C 2558.2,238.403 2558.7,240.236 2558,242.5C 2558.78,244.286 2559.95,245.786 2561.5,247C 2565.75,248.126 2570.08,248.792 2574.5,249C 2575.13,251.8 2576.13,254.467 2577.5,257C 2583.41,258.823 2589.41,260.323 2595.5,261.5C 2594.1,264.904 2594.77,267.904 2597.5,270.5C 2602.81,271.122 2608.15,271.789 2613.5,272.5C 2611.64,274.76 2611.64,277.26 2613.5,280C 2618.77,282.996 2624.44,284.162 2630.5,283.5C 2629.7,293.519 2634.37,297.352 2644.5,295C 2642.9,298.757 2643.57,302.09 2646.5,305C 2650.89,305.303 2655.23,305.97 2659.5,307C 2660.83,308 2660.83,309 2659.5,310C 2660.13,311.892 2661.13,313.559 2662.5,315C 2667.32,316.898 2672.32,318.231 2677.5,319C 2675.76,322.844 2676.43,326.177 2679.5,329C 2682.83,329.333 2686.17,329.667 2689.5,330C 2688.05,333.493 2688.38,336.826 2690.5,340C 2693.85,340.455 2697.19,340.955 2700.5,341.5C 2700.03,345.131 2700.7,348.465 2702.5,351.5C 2706.17,352.167 2709.83,352.833 2713.5,353.5C 2711.71,362.382 2715.38,366.049 2724.5,364.5C 2723.21,372.709 2726.71,376.709 2735,376.5C 2735.18,379.956 2735.85,383.289 2737,386.5C 2740,387.167 2743,387.833 2746,388.5C 2746.26,391.557 2746.76,394.557 2747.5,397.5C 2750.75,398.598 2754.09,399.264 2757.5,399.5C 2757.53,402.959 2758.2,406.292 2759.5,409.5C 2762.16,410.259 2764.82,410.926 2767.5,411.5C 2770.59,417.798 2772.09,424.465 2772,431.5C 2774.51,433.155 2777.34,433.989 2780.5,434C 2781.38,437.45 2782.22,440.95 2783,444.5C 2786.66,445.047 2789.66,446.714 2792,449.5C 2792.33,449.167 2792.67,448.833 2793,448.5C 2794.25,454.725 2794.92,461.058 2795,467.5C 2798.2,468.309 2801.36,469.309 2804.5,470.5C 2806.16,477.394 2806.83,484.394 2806.5,491.5C 2809.96,491.146 2812.46,492.479 2814,495.5C 2814.33,495.167 2814.67,494.833 2815,494.5C 2815.22,496.384 2815.88,498.051 2817,499.5C 2817.23,508.564 2818.06,517.564 2819.5,526.5C 2820.72,527.711 2821.89,527.711 2823,526.5C 2823.5,576.499 2823.67,626.499 2823.5,676.5C 2821.86,676.286 2820.36,676.62 2819,677.5C 2817.95,687.472 2817.29,697.472 2817,707.5C 2813.93,709.569 2810.76,711.403 2807.5,713C 2806.57,719.477 2805.74,725.977 2805,732.5C 2802.1,734.227 2798.93,734.893 2795.5,734.5C 2795,741.547 2794.16,748.547 2793,755.5C 2789.81,756.957 2786.47,757.957 2783,758.5C 2782.67,763.5 2782.33,768.5 2782,773.5C 2777.38,771.701 2775.04,773.367 2775,778.5C 2770.62,781.587 2768.79,785.92 2769.5,791.5C 2766.25,791.901 2763.09,792.568 2760,793.5C 2758.8,796.726 2758.3,800.059 2758.5,803.5C 2750.1,803.046 2746.77,806.546 2748.5,814C 2746.04,815.216 2743.37,815.882 2740.5,816C 2739.67,816.833 2738.83,817.667 2738,818.5C 2737.67,821.167 2737.33,823.833 2737,826.5C 2734.12,828.268 2731.45,830.268 2729,832.5C 2728.82,834.488 2728.99,836.488 2729.5,838.5C 2722.29,839.161 2719.29,842.661 2720.5,849C 2715.75,849.377 2711.42,850.877 2707.5,853.5C 2706.07,855.816 2705.07,858.316 2704.5,861C 2701.17,862 2697.83,863 2694.5,864C 2693.08,866.861 2692.08,869.861 2691.5,873C 2687.79,873.633 2684.29,874.8 2681,876.5C 2679.56,879.047 2679.06,881.547 2679.5,884C 2669.4,882.359 2665.07,886.526 2666.5,896.5C 2662.82,896.335 2659.15,896.501 2655.5,897C 2652.6,900.109 2651.93,903.276 2653.5,906.5C 2647.79,906.766 2642.46,908.266 2637.5,911C 2634.63,914.051 2634.96,916.718 2638.5,919C 2633.5,919.333 2628.5,919.667 2623.5,920C 2619.64,922.516 2618.64,925.849 2620.5,930C 2616.58,931.102 2612.58,931.769 2608.5,932C 2605.5,934.68 2603.83,938.013 2603.5,942C 2598.83,942.333 2594.17,942.667 2589.5,943C 2584.74,945.557 2583.08,949.391 2584.5,954.5C 2579.09,954.229 2573.75,954.729 2568.5,956C 2565.34,958.65 2564.34,961.816 2565.5,965.5C 2560.4,965.175 2555.4,965.675 2550.5,967C 2546.67,969.307 2545.67,972.474 2547.5,976.5C 2541.09,977.08 2534.75,977.913 2528.5,979C 2525.03,981.662 2524.37,984.662 2526.5,988C 2519.53,988.998 2512.53,989.664 2505.5,990C 2501.99,993.048 2501.66,996.381 2504.5,1000C 2497.83,1000.33 2491.17,1000.67 2484.5,1001C 2478.92,1002.8 2477.59,1006.14 2480.5,1011C 2473.9,1012.16 2467.23,1012.83 2460.5,1013C 2459.5,1013.5 2458.5,1014 2457.5,1014.5C 2455.53,1017.26 2454.53,1020.09 2454.5,1023C 2446.34,1022.95 2438.34,1023.95 2430.5,1026C 2428.79,1027.38 2427.45,1029.04 2426.5,1031C 2428.39,1032.1 2429.06,1033.43 2428.5,1035C 2420.5,1035.33 2412.5,1035.67 2404.5,1036C 2399.07,1037.25 2397.41,1040.41 2399.5,1045.5C 2393.19,1046.33 2386.86,1046.83 2380.5,1047C 2375.36,1047.01 2372.02,1049.34 2370.5,1054C 2370.35,1056.19 2371.35,1057.52 2373.5,1058C 2363.78,1058.14 2354.12,1058.81 2344.5,1060C 2341.5,1061 2339.5,1063 2338.5,1066C 2339.17,1067.33 2340.17,1068.33 2341.5,1069C 2330.52,1070.04 2319.52,1070.71 2308.5,1071C 2303.96,1072.74 2301.63,1076.07 2301.5,1081C 2292.83,1081.33 2284.17,1081.67 2275.5,1082C 2268.66,1083.1 2266.99,1086.44 2270.5,1092C 2269.5,1092.33 2268.5,1092.67 2267.5,1093C 2257.5,1093.33 2247.5,1093.67 2237.5,1094C 2233.89,1095.27 2231.23,1097.61 2229.5,1101C 2231.12,1101.85 2231.46,1102.85 2230.5,1104C 2218.07,1103.99 2205.73,1104.99 2193.5,1107C 2187.35,1109.42 2186.35,1112.42 2190.5,1116C 2175.17,1116.33 2159.83,1116.67 2144.5,1117C 2139.48,1118.54 2137.82,1121.7 2139.5,1126.5C 2125.53,1127.73 2111.53,1128.56 2097.5,1129C 2093.81,1130.03 2091.47,1132.36 2090.5,1136C 2092,1137.25 2093.67,1138.25 2095.5,1139C 2080.5,1139.33 2065.5,1139.67 2050.5,1140C 2047.47,1140.54 2044.47,1141.21 2041.5,1142C 2032.29,1144.99 2032.29,1147.66 2041.5,1150C 2018.17,1150.98 1994.83,1151.98 1971.5,1153C 1965.38,1153.38 1963.05,1156.05 1964.5,1161C 1963.5,1161.33 1962.5,1161.67 1961.5,1162C 1941.83,1162.33 1922.17,1162.67 1902.5,1163C 1897.65,1163.42 1893.65,1165.42 1890.5,1169C 1891.83,1169.67 1891.83,1170.33 1890.5,1171C 1891.17,1171.33 1891.83,1171.67 1892.5,1172C 1891.33,1172.42 1890.33,1173.09 1889.5,1174C 1865.5,1174.33 1841.5,1174.67 1817.5,1175C 1812.55,1175.4 1807.89,1176.74 1803.5,1179C 1801.22,1180.85 1801.22,1182.52 1803.5,1184C 1803.17,1184.33 1802.83,1184.67 1802.5,1185C 1614.83,1186.97 1427.17,1186.97 1239.5,1185C 1238.65,1183.44 1239.32,1182.44 1241.5,1182C 1240.5,1181 1239.5,1180 1238.5,1179C 1233.37,1176.91 1228.04,1175.57 1222.5,1175C 1197.83,1174.67 1173.17,1174.33 1148.5,1174C 1146.44,1172.98 1146.1,1171.65 1147.5,1170C 1145.4,1165.44 1141.73,1163.1 1136.5,1163C 1117.5,1162.67 1098.5,1162.33 1079.5,1162C 1078.57,1157.07 1075.57,1154.07 1070.5,1153C 1048.83,1152 1027.17,1151 1005.5,1150C 1008.79,1149.26 1009.79,1147.42 1008.5,1144.5C 1006.21,1142.52 1003.54,1141.35 1000.5,1141C 982.871,1139.75 965.205,1139.09 947.5,1139C 950.797,1138.38 952.463,1136.72 952.5,1134C 950.473,1131.32 947.807,1129.65 944.5,1129C 931.167,1128.33 917.833,1127.67 904.5,1127C 904.167,1126.67 903.833,1126.33 903.5,1126C 905.283,1124.93 905.783,1123.43 905,1121.5C 903.048,1119.11 900.548,1117.61 897.5,1117C 883.167,1116.67 868.833,1116.33 854.5,1116C 858.086,1114.4 858.753,1112.23 856.5,1109.5C 854.615,1108.39 852.615,1107.56 850.5,1107C 837.922,1105.02 825.256,1104.02 812.5,1104C 812.852,1101.86 812.352,1099.7 811,1097.5C 809.745,1096.79 808.579,1095.96 807.5,1095C 796.181,1093.98 784.848,1092.98 773.5,1092C 777.675,1088.33 777.008,1085.33 771.5,1083C 761.573,1081.74 751.573,1081.08 741.5,1081C 741.1,1075.93 738.433,1072.59 733.5,1071C 722.412,1070.93 713.412,1070.09 706.5,1068.5C 706.837,1064.01 704.837,1061.17 700.5,1060C 690.893,1058.78 681.226,1058.11 671.5,1058C 675.103,1053.77 674.103,1050.43 668.5,1048C 660.571,1046.64 652.571,1046.14 644.5,1046.5C 645.999,1041.66 644.332,1038.16 639.5,1036C 631.833,1035.67 624.167,1035.33 616.5,1035C 619.197,1031.73 618.864,1028.73 615.5,1026C 607.625,1024.07 599.625,1023.07 591.5,1023C 591.374,1018.07 589.04,1014.74 584.5,1013C 577.115,1012.8 569.782,1012.13 562.5,1011C 566.219,1007.89 565.885,1004.89 561.5,1002C 554.272,1000.74 546.939,1000.07 539.5,1000C 543.18,997.556 543.514,994.556 540.5,991C 532.908,989.765 525.241,988.765 517.5,988C 519.013,984.571 518.347,981.571 515.5,979C 508.941,977.745 502.274,977.078 495.5,977C 498.155,971.681 496.488,968.015 490.5,966C 486.514,965.501 482.514,965.334 478.5,965.5C 480.33,959.827 478.33,956.327 472.5,955C 468.167,954.667 463.833,954.333 459.5,954C 459.326,950.68 458.326,947.347 456.5,944C 451.614,942.776 446.614,942.109 441.5,942C 440.042,939.943 439.208,937.777 439,935.5C 437.59,934.213 436.09,933.046 434.5,932C 430.416,931.769 426.416,931.102 422.5,930C 424.143,926.36 423.476,923.193 420.5,920.5C 415.887,919.721 411.22,919.221 406.5,919C 409.113,916.205 409.113,913.371 406.5,910.5C 401.099,908.121 395.432,907.121 389.5,907.5C 390.489,897.833 386.156,894.166 376.5,896.5C 377.978,886.407 373.645,882.407 363.5,884.5C 364.241,875.999 360.241,872.166 351.5,873C 349.436,871.982 349.102,870.649 350.5,869C 350.138,867.775 349.638,866.609 349,865.5C 345.61,863.61 342.11,861.943 338.5,860.5C 338.965,857.677 337.965,855.177 335.5,853C 331.354,851.063 327.021,849.729 322.5,849C 323.768,845.379 322.435,842.213 318.5,839.5C 316.5,838.833 314.5,838.167 312.5,837.5C 313.706,835.484 313.706,833.484 312.5,831.5C 309.5,829.5 306.5,827.5 303.5,825.5C 305.023,818.354 302.023,815.354 294.5,816.5C 294.979,812.089 294.312,807.922 292.5,804C 289.574,803.782 286.74,803.282 284,802.5C 283.545,799.146 283.045,795.813 282.5,792.5C 279.119,792.54 275.786,792.207 272.5,791.5C 272.448,787.802 272.114,784.135 271.5,780.5C 270.07,780.579 268.736,780.246 267.5,779.5C 265.833,776.301 263.666,774.301 261,773.5C 259.839,768.584 259.173,763.584 259,758.5C 256,757.833 253,757.167 250,756.5C 248.349,749.965 247.349,743.298 247,736.5C 244.492,734.826 241.658,733.826 238.5,733.5C 236.92,726.547 235.42,719.547 234,712.5C 231.149,711.411 228.482,710.078 226,708.5C 225.239,698.716 223.906,689.05 222,679.5C 220.853,678.542 219.853,678.875 219,680.5C 218.5,629.168 218.333,577.834 218.5,526.5C 220.451,526.773 221.951,526.107 223,524.5C 224.051,515.531 224.718,506.531 225,497.5C 226.02,496.109 226.853,494.609 227.5,493C 230.679,492.447 233.513,491.281 236,489.5C 236.182,483.103 236.848,476.77 238,470.5C 241.058,469.237 244.225,468.237 247.5,467.5C 248.283,462.553 248.783,457.553 249,452.5C 252.973,455.272 255.473,454.105 256.5,449C 255.306,446.342 256.306,445.176 259.5,445.5C 260.016,440.211 260.183,434.877 260,429.5C 260.333,431.167 260.667,432.833 261,434.5C 263.667,433.833 266.333,433.167 269,432.5C 270.153,429.289 270.82,425.956 271,422.5C 272.754,418.921 274.254,415.254 275.5,411.5C 278.039,410.885 280.539,410.218 283,409.5C 284.316,406.312 284.816,402.978 284.5,399.5C 288.136,399.406 291.636,398.739 295,397.5C 295.333,394.5 295.667,391.5 296,388.5C 298.74,387.718 301.574,387.218 304.5,387C 305,386.5 305.5,386 306,385.5C 306.75,382.292 307.25,379.292 307.5,376.5C 316.056,376.687 319.389,372.687 317.5,364.5C 327.112,366.222 331.112,362.222 329.5,352.5C 339.267,355.065 343.267,351.398 341.5,341.5C 344.813,340.955 348.146,340.455 351.5,340C 353.621,336.826 353.954,333.493 352.5,330C 356.222,329.762 359.889,329.262 363.5,328.5C 365.854,325.794 366.521,322.794 365.5,319.5C 366.025,318.808 366.692,318.308 367.5,318C 376.383,319.094 380.716,315.427 380.5,307C 385.607,306.512 390.607,305.512 395.5,304C 397.585,301.163 397.919,298.163 396.5,295C 401.282,294.881 405.949,294.215 410.5,293C 412.536,290.5 412.87,287.833 411.5,285C 415.428,283.927 419.428,282.927 423.5,282C 427.326,279.693 428.326,276.526 426.5,272.5C 432.913,271.92 439.247,271.087 445.5,270C 447.585,267.163 447.919,264.163 446.5,261C 452.672,260.314 458.672,258.981 464.5,257C 465.872,254.467 466.872,251.8 467.5,249C 472.59,249.202 477.257,248.035 481.5,245.5C 483.533,243.548 483.866,241.382 482.5,239C 483.167,238.333 483.833,237.667 484.5,237C 490.942,236.917 497.275,236.251 503.5,235C 505.34,232.174 506.006,229.007 505.5,225.5C 511.925,225.87 518.258,225.37 524.5,224C 527.996,221.676 528.996,218.509 527.5,214.5C 534.326,214.04 540.992,212.873 547.5,211C 549.706,208.791 550.04,206.291 548.5,203.5C 556.237,202.717 563.904,201.55 571.5,200C 574.555,196.832 574.555,193.832 571.5,191C 580.242,190.911 588.909,190.244 597.5,189C 600.179,186.048 600.512,183.048 598.5,180C 606.516,179.039 614.516,178.039 622.5,177C 624.87,174.498 626.203,171.498 626.5,168C 634.977,168.012 643.31,167.012 651.5,165C 652.667,164.5 653.5,163.667 654,162.5C 654.078,160.343 654.245,158.343 654.5,156.5C 663.205,155.878 671.872,155.045 680.5,154C 685.243,152.272 686.576,149.106 684.5,144.5C 693.506,144.666 702.506,144.5 711.5,144C 715.375,143.06 718.042,140.727 719.5,137C 718.939,135.324 717.939,133.991 716.5,133C 725.5,132.667 734.5,132.333 743.5,132C 747.91,131.487 750.577,129.154 751.5,125C 751.245,123.674 750.578,122.674 749.5,122C 760.865,121.158 772.198,120.158 783.5,119C 791.217,115.689 791.217,112.689 783.5,110C 797.529,109.817 811.529,109.151 825.5,108C 830.543,106.131 831.543,103.131 828.5,99C 840.452,97.7753 852.452,97.1087 864.5,97C 870.404,95.8651 872.737,92.8651 871.5,88C 872.167,87.6667 872.833,87.3333 873.5,87C 885.536,86.838 897.536,86.1713 909.5,85C 912.686,84.0942 915.019,82.2609 916.5,79.5C 916.182,78.3527 915.516,77.5194 914.5,77C 916.301,76.6827 916.634,76.016 915.5,75C 931.198,74.8626 946.864,74.1959 962.5,73C 966.211,72.1557 969.877,71.1557 973.5,70C 974.946,67.5068 974.279,65.6735 971.5,64.5C 990.195,63.9198 1008.86,63.0865 1027.5,62C 1032.8,61.3816 1034.97,58.5482 1034,53.5C 1032.93,52.8095 1031.77,52.3095 1030.5,52C 1048.83,51.6667 1067.17,51.3333 1085.5,51C 1091.15,50.9096 1095.48,48.5763 1098.5,44C 1097.62,42.4152 1096.29,41.4152 1094.5,41C 1118.52,40.1495 1142.52,39.1495 1166.5,38C 1182.29,34.5756 1182.29,31.5756 1166.5,29C 1203.55,28.9625 1240.55,28.1292 1277.5,26.5C 1278.09,26.7093 1278.59,27.0426 1279,27.5C 1282.41,26.7069 1285.91,26.2069 1289.5,26C 1290.34,24.9887 1290.67,23.8221 1290.5,22.5 Z"/></g>
<g><path style="opacity:0.944" fill="#000000" d="M 218.5,814.5 C 223.818,814.652 228.985,814.652 234,814.5C 235.087,818.436 235.92,822.436 236.5,826.5C 240.083,826.949 243.25,828.282 246,830.5C 247.086,839.973 247.92,849.473 248.5,859C 248.833,859.833 249.167,860.667 249.5,861.5C 252.603,861.923 255.436,862.923 258,864.5C 258.972,871.135 259.639,877.801 260,884.5C 262.405,885.274 264.905,885.774 267.5,886C 268.428,886.388 269.095,887.055 269.5,888C 270.276,894.463 270.776,900.963 271,907.5C 273.74,908.282 276.574,908.782 279.5,909C 280.917,911.983 281.75,915.15 282,918.5C 283.897,920.016 286.064,920.683 288.5,920.5C 288.34,922.199 288.506,923.866 289,925.5C 291.508,926.418 293.342,928.584 294.5,932C 293.272,935.174 293.439,938.341 295,941.5C 298.049,942.61 301.216,943.277 304.5,943.5C 304.249,946.909 304.583,950.242 305.5,953.5C 308.704,954.204 311.871,954.87 315,955.5C 315.066,959.233 315.899,962.733 317.5,966C 320.146,966.497 322.813,966.664 325.5,966.5C 324.118,974.611 327.451,978.444 335.5,978C 335.282,986.238 339.282,990.238 347.5,990C 347.625,998.456 351.959,1002.46 360.5,1002C 358.847,1006.04 359.847,1009.37 363.5,1012C 366.553,1012.18 369.553,1012.68 372.5,1013.5C 370.925,1017.13 371.592,1020.29 374.5,1023C 378.17,1023.55 381.837,1024.05 385.5,1024.5C 384.26,1034.41 388.593,1038.08 398.5,1035.5C 397.324,1039.2 397.99,1042.7 400.5,1046C 405.156,1046.67 409.823,1047.17 414.5,1047.5C 413.352,1052.44 415.019,1055.94 419.5,1058C 423.211,1058.17 426.878,1058.67 430.5,1059.5C 429.749,1063.59 431.082,1067.09 434.5,1070C 438.5,1070.33 442.5,1070.67 446.5,1071C 446.147,1076.21 448.481,1079.54 453.5,1081C 457.918,1081.21 462.251,1081.87 466.5,1083C 465.081,1086.16 465.415,1089.16 467.5,1092C 473.725,1093.25 480.058,1093.92 486.5,1094C 483.411,1096.33 483.244,1099.16 486,1102.5C 491.925,1104.7 498.091,1106.03 504.5,1106.5C 502.813,1110.24 503.813,1113.08 507.5,1115C 513.757,1116.32 520.091,1116.82 526.5,1116.5C 524.772,1124.23 528.106,1128.06 536.5,1128C 540.152,1128.5 543.818,1128.67 547.5,1128.5C 546.814,1132.29 547.814,1135.45 550.5,1138C 556.753,1139.2 563.086,1139.87 569.5,1140C 570.274,1142.41 570.774,1144.91 571,1147.5C 571.903,1148.7 573.069,1149.53 574.5,1150C 581.791,1151.08 589.124,1151.75 596.5,1152C 597.207,1154.52 598.04,1157.02 599,1159.5C 599.75,1160.13 600.584,1160.63 601.5,1161C 609.15,1162.04 616.817,1163.04 624.5,1164C 622.08,1168.99 623.747,1172.33 629.5,1174C 636.833,1174.33 644.167,1174.67 651.5,1175C 648.57,1179.02 649.237,1182.35 653.5,1185C 662.827,1185.76 672.16,1186.42 681.5,1187C 682.634,1188.02 682.301,1188.68 680.5,1189C 681.401,1193.88 684.734,1196.55 690.5,1197C 698.833,1197.33 707.167,1197.67 715.5,1198C 712.737,1200.95 713.07,1203.62 716.5,1206C 718.957,1207.56 721.624,1208.56 724.5,1209C 731.5,1209.33 738.5,1209.67 745.5,1210C 745.693,1211.65 745.86,1213.48 746,1215.5C 746.833,1217 748,1218.17 749.5,1219C 760.819,1220.02 772.152,1221.02 783.5,1222C 779.595,1224.48 779.595,1227.14 783.5,1230C 786.789,1230.88 790.123,1231.55 793.5,1232C 802.833,1232.33 812.167,1232.67 821.5,1233C 823.016,1235.36 824.35,1237.86 825.5,1240.5C 827.667,1241.79 830,1242.63 832.5,1243C 844.853,1243.32 857.187,1243.99 869.5,1245C 865.754,1246.85 865.754,1249.52 869.5,1253C 870.5,1253.33 871.5,1253.67 872.5,1254C 886.12,1255.24 899.787,1255.91 913.5,1256C 909.81,1256.69 908.643,1258.86 910,1262.5C 913.049,1264.96 916.549,1266.46 920.5,1267C 935.163,1267.5 949.83,1267.67 964.5,1267.5C 964.703,1269.39 964.037,1270.89 962.5,1272C 963.126,1272.75 963.626,1273.58 964,1274.5C 969.584,1276.64 975.417,1277.81 981.5,1278C 997.167,1278.33 1012.83,1278.67 1028.5,1279C 1027.64,1280.14 1026.64,1281.47 1025.5,1283C 1026.76,1285.54 1028.76,1287.2 1031.5,1288C 1035.47,1288.85 1039.47,1289.52 1043.5,1290C 1058.17,1290.33 1072.83,1290.67 1087.5,1291C 1087.98,1297.18 1091.64,1300.51 1098.5,1301C 1120.2,1301.09 1141.86,1301.76 1163.5,1303C 1159.35,1304.45 1158.68,1306.78 1161.5,1310C 1165.65,1311.74 1169.98,1312.74 1174.5,1313C 1217.83,1313.33 1261.17,1313.67 1304.5,1314C 1292.64,1313.97 1280.97,1315.3 1269.5,1318C 1275.63,1320.23 1281.96,1321.56 1288.5,1322C 1297.85,1322.5 1307.18,1323.17 1316.5,1324C 1448.83,1324.67 1581.17,1324.67 1713.5,1324C 1727.19,1323.28 1740.85,1322.28 1754.5,1321C 1760.64,1320.65 1766.64,1319.65 1772.5,1318C 1758.62,1315.87 1744.62,1314.54 1730.5,1314C 1776.17,1313.67 1821.83,1313.33 1867.5,1313C 1873.39,1313.04 1879.05,1312.04 1884.5,1310C 1887.32,1306.78 1886.65,1304.45 1882.5,1303C 1903.8,1301.76 1925.14,1301.1 1946.5,1301C 1952.75,1300.08 1956.09,1296.75 1956.5,1291C 1970.83,1290.67 1985.17,1290.33 1999.5,1290C 2003.87,1289.58 2008.21,1288.91 2012.5,1288C 2014.91,1286.8 2016.91,1285.13 2018.5,1283C 2017.67,1282.09 2016.67,1281.42 2015.5,1281C 2016.83,1280.33 2016.83,1279.67 2015.5,1279C 2030.83,1278.67 2046.17,1278.33 2061.5,1278C 2064.43,1277.78 2067.26,1277.28 2070,1276.5C 2073.63,1277.16 2076.96,1276.16 2080,1273.5C 2080.62,1271.54 2080.12,1269.87 2078.5,1268.5C 2093.16,1267.67 2107.82,1267.17 2122.5,1267C 2126.13,1266.44 2129.29,1264.94 2132,1262.5C 2133.36,1258.86 2132.19,1256.69 2128.5,1256C 2142.88,1255.91 2157.21,1255.24 2171.5,1254C 2175.49,1252.52 2177.15,1249.68 2176.5,1245.5C 2186.48,1244.12 2198.48,1242.96 2212.5,1242C 2216.87,1240.3 2219.87,1237.3 2221.5,1233C 2232.55,1232.88 2243.55,1232.21 2254.5,1231C 2258.77,1230.09 2260.6,1227.59 2260,1223.5C 2259.25,1222.87 2258.42,1222.37 2257.5,1222C 2268.11,1220.76 2278.78,1220.1 2289.5,1220C 2294.63,1218.37 2296.96,1215.03 2296.5,1210C 2305.23,1209.88 2313.89,1209.21 2322.5,1208C 2327.22,1206.23 2328.55,1203.06 2326.5,1198.5C 2336.2,1197.86 2345.86,1197.03 2355.5,1196C 2359.96,1194.58 2361.29,1191.75 2359.5,1187.5C 2369.15,1186.46 2378.81,1185.63 2388.5,1185C 2392.76,1182.35 2393.43,1179.02 2390.5,1175C 2397.17,1174.67 2403.83,1174.33 2410.5,1174C 2416.84,1172.66 2418.51,1169.33 2415.5,1164C 2422.78,1162.87 2430.12,1162.2 2437.5,1162C 2439.59,1161.21 2441.42,1160.04 2443,1158.5C 2443.07,1155.95 2443.9,1153.79 2445.5,1152C 2452.2,1151.64 2458.87,1150.97 2465.5,1150C 2469.82,1148.7 2471.15,1146.03 2469.5,1142C 2470.17,1141.33 2470.83,1140.67 2471.5,1140C 2478.25,1139.88 2484.91,1139.21 2491.5,1138C 2494.56,1135.32 2495.23,1132.15 2493.5,1128.5C 2500.53,1129.2 2507.19,1128.03 2513.5,1125C 2514.17,1123.67 2514.83,1122.33 2515.5,1121C 2514.62,1119.64 2514.29,1118.14 2514.5,1116.5C 2520.26,1116.85 2525.93,1116.35 2531.5,1115C 2534.58,1113.69 2536.25,1111.35 2536.5,1108C 2534.7,1107.68 2534.37,1107.02 2535.5,1106C 2541.22,1105.72 2546.88,1105.05 2552.5,1104C 2556.83,1101.34 2557.5,1098 2554.5,1094C 2560.53,1093.57 2566.53,1092.91 2572.5,1092C 2575.75,1089.14 2576.08,1086.14 2573.5,1083C 2578.89,1082.13 2584.22,1081.13 2589.5,1080C 2591.69,1077.38 2593.02,1074.38 2593.5,1071C 2598.58,1070.83 2603.58,1070.16 2608.5,1069C 2610.26,1065.76 2610.93,1062.26 2610.5,1058.5C 2614.18,1058.67 2617.85,1058.5 2621.5,1058C 2624.84,1055.22 2626.17,1051.88 2625.5,1048C 2630.63,1047.53 2635.63,1046.53 2640.5,1045C 2643.74,1042.36 2644.41,1039.19 2642.5,1035.5C 2646.64,1035.85 2650.64,1035.35 2654.5,1034C 2656.59,1031.16 2656.92,1028.16 2655.5,1025C 2659.73,1024.26 2663.89,1023.42 2668,1022.5C 2669.71,1019.58 2669.88,1016.58 2668.5,1013.5C 2672.12,1012.67 2675.79,1012.17 2679.5,1012C 2682.43,1009.09 2683.1,1005.76 2681.5,1002C 2684.86,1001.27 2688.2,1000.44 2691.5,999.5C 2692.97,996.692 2693.8,993.692 2694,990.5C 2697.23,990.047 2700.23,989.047 2703,987.5C 2704.02,984.361 2704.85,981.195 2705.5,978C 2708.5,977.667 2711.5,977.333 2714.5,977C 2715.92,974.017 2716.75,970.85 2717,967.5C 2720,966.833 2723,966.167 2726,965.5C 2727.11,961.914 2727.61,958.247 2727.5,954.5C 2730.19,954.664 2732.85,954.497 2735.5,954C 2737.13,950.397 2737.96,946.563 2738,942.5C 2746.35,943.814 2749.52,940.314 2747.5,932C 2750.12,928.595 2751.46,924.761 2751.5,920.5C 2754.52,920.296 2757.52,919.963 2760.5,919.5C 2761.04,916.187 2761.54,912.854 2762,909.5C 2765.27,909.105 2768.27,908.105 2771,906.5C 2771.15,900.055 2771.98,893.722 2773.5,887.5C 2776.15,886.028 2778.98,885.028 2782,884.5C 2782.8,877.464 2783.8,870.464 2785,863.5C 2788.05,862.39 2791.22,861.723 2794.5,861.5C 2794.33,852.161 2794.5,842.827 2795,833.5C 2796.04,832.377 2796.71,831.044 2797,829.5C 2800,828.089 2803.16,827.089 2806.5,826.5C 2806.98,822.293 2808.15,818.293 2810,814.5C 2814.39,814.858 2818.89,814.858 2823.5,814.5C 2823.5,969.167 2823.5,1123.83 2823.5,1278.5C 2821.86,1278.29 2820.36,1278.62 2819,1279.5C 2818.21,1289.16 2817.54,1298.82 2817,1308.5C 2816.69,1309.77 2816.19,1310.93 2815.5,1312C 2812.91,1312.23 2810.41,1312.73 2808,1313.5C 2806.56,1320.42 2805.56,1327.42 2805,1334.5C 2802,1335.91 2798.84,1336.91 2795.5,1337.5C 2794.91,1344.2 2794.08,1350.86 2793,1357.5C 2789.76,1359.26 2786.26,1359.93 2782.5,1359.5C 2782.67,1363.85 2782.5,1368.18 2782,1372.5C 2781.67,1372.83 2781.33,1373.17 2781,1373.5C 2778.44,1370.88 2776.11,1371.21 2774,1374.5C 2771.42,1380.58 2769.92,1386.91 2769.5,1393.5C 2766.19,1394.05 2762.86,1394.38 2759.5,1394.5C 2758.96,1397.81 2758.46,1401.15 2758,1404.5C 2754.87,1405.13 2751.7,1405.8 2748.5,1406.5C 2746.91,1409.99 2746.24,1413.66 2746.5,1417.5C 2738.75,1416.41 2735.75,1419.58 2737.5,1427C 2733.97,1428.71 2730.47,1430.55 2727,1432.5C 2726.23,1435.1 2726.4,1437.6 2727.5,1440C 2723.75,1440.75 2720.08,1441.75 2716.5,1443C 2714.46,1445.5 2714.13,1448.17 2715.5,1451C 2711.83,1452 2708.17,1453 2704.5,1454C 2703.03,1456.99 2702.03,1460.16 2701.5,1463.5C 2698.44,1464.2 2695.44,1465.03 2692.5,1466C 2690.85,1468.25 2690.51,1470.58 2691.5,1473C 2688.96,1475.09 2685.96,1476.09 2682.5,1476C 2681.07,1476.47 2679.9,1477.3 2679,1478.5C 2678.5,1481.15 2678.34,1483.81 2678.5,1486.5C 2668.23,1484.11 2663.56,1488.11 2664.5,1498.5C 2661.48,1498.34 2658.48,1498.5 2655.5,1499C 2653.74,1500.01 2652.57,1501.51 2652,1503.5C 2651.86,1505.52 2651.69,1507.35 2651.5,1509C 2646.64,1509.19 2641.98,1510.19 2637.5,1512C 2634.02,1514.71 2633.69,1517.71 2636.5,1521C 2631.5,1521.33 2626.5,1521.67 2621.5,1522C 2618.43,1524.82 2617.76,1528.16 2619.5,1532C 2614.14,1532.93 2608.81,1533.93 2603.5,1535C 2600.39,1537.17 2598.73,1540.17 2598.5,1544C 2594.35,1544.18 2590.35,1545.02 2586.5,1546.5C 2585,1549.48 2584,1552.65 2583.5,1556C 2578.1,1556.23 2572.77,1556.89 2567.5,1558C 2564.24,1560.57 2563.24,1563.74 2564.5,1567.5C 2559.09,1567.23 2553.75,1567.73 2548.5,1569C 2543.33,1571.21 2542.33,1574.55 2545.5,1579C 2539.5,1579.33 2533.5,1579.67 2527.5,1580C 2524.57,1582.91 2523.9,1586.24 2525.5,1590C 2518.43,1590.8 2511.43,1591.8 2504.5,1593C 2500.5,1596 2500.5,1599 2504.5,1602C 2496.76,1602.1 2489.09,1602.77 2481.5,1604C 2477.35,1606.41 2476.69,1609.41 2479.5,1613C 2471.88,1614.15 2464.22,1614.81 2456.5,1615C 2452.72,1617.22 2450.72,1620.56 2450.5,1625C 2442.68,1624.97 2435.01,1625.97 2427.5,1628C 2424.22,1630.76 2423.55,1633.76 2425.5,1637C 2416.76,1637.09 2408.09,1637.76 2399.5,1639C 2395.57,1641.29 2394.57,1644.45 2396.5,1648.5C 2386.73,1648.21 2377.06,1649.05 2367.5,1651C 2363.87,1654.19 2363.87,1657.19 2367.5,1660C 2357.76,1660.08 2348.09,1660.75 2338.5,1662C 2333.46,1663.92 2332.46,1666.92 2335.5,1671C 2326.2,1672.07 2316.86,1672.73 2307.5,1673C 2302.13,1673.89 2299.8,1677.06 2300.5,1682.5C 2295.21,1683.42 2287.21,1683.92 2276.5,1684C 2273.77,1684.41 2271.1,1685.08 2268.5,1686C 2263.24,1688.93 2263.24,1691.6 2268.5,1694C 2255.55,1695.23 2242.55,1695.9 2229.5,1696C 2224.01,1697.68 2222.01,1701.18 2223.5,1706.5C 2212.83,1706.33 2202.16,1706.5 2191.5,1707C 2185.34,1707.48 2182.51,1710.65 2183,1716.5C 2183.5,1717 2184,1717.5 2184.5,1718C 2171.45,1718.1 2158.45,1718.77 2145.5,1720C 2143.41,1720.79 2141.58,1721.96 2140,1723.5C 2139.29,1725.37 2139.79,1726.87 2141.5,1728C 2141.17,1728.33 2140.83,1728.67 2140.5,1729C 2123.79,1729.34 2107.12,1730.34 2090.5,1732C 2080.58,1736 2080.58,1739 2090.5,1741C 2071.5,1741.33 2052.5,1741.67 2033.5,1742C 2026.47,1742.75 2024.47,1746.09 2027.5,1752C 2008.86,1753.19 1990.19,1753.85 1971.5,1754C 1966.54,1754.79 1963.21,1757.46 1961.5,1762C 1961.83,1762.33 1962.17,1762.67 1962.5,1763C 1961.5,1763.33 1960.5,1763.67 1959.5,1764C 1940.14,1764.14 1920.81,1764.81 1901.5,1766C 1894.67,1766.44 1889.34,1768.77 1885.5,1773C 1887.17,1773.33 1888.83,1773.67 1890.5,1774C 1887.77,1774.41 1885.1,1775.08 1882.5,1776C 1853.99,1776.21 1825.49,1776.71 1797,1777.5C 1789.46,1776.71 1781.96,1777.54 1774.5,1780C 1771.65,1782.08 1771.31,1784.24 1773.5,1786.5C 1712.17,1787.33 1650.84,1787.83 1589.5,1788C 1566.82,1789.34 1544.16,1790.51 1521.5,1791.5C 1498.5,1790.59 1475.5,1789.42 1452.5,1788C 1391.5,1787.67 1330.5,1787.33 1269.5,1787C 1269.17,1786.67 1268.83,1786.33 1268.5,1786C 1271.06,1783.72 1270.73,1781.72 1267.5,1780C 1265.21,1779.18 1262.88,1778.51 1260.5,1778C 1227.18,1776.83 1193.85,1776.17 1160.5,1776C 1157.9,1775.08 1155.23,1774.41 1152.5,1774C 1154.17,1773.67 1155.83,1773.33 1157.5,1773C 1155.7,1772.68 1155.37,1772.02 1156.5,1771C 1151.47,1768.41 1146.13,1766.74 1140.5,1766C 1121.19,1764.81 1101.86,1764.14 1082.5,1764C 1081.54,1761.07 1079.54,1758.4 1076.5,1756C 1074.5,1755.33 1072.5,1754.67 1070.5,1754C 1051.81,1753.85 1033.14,1753.19 1014.5,1752C 1017.76,1750.42 1018.26,1748.26 1016,1745.5C 1013.96,1743.4 1011.46,1742.23 1008.5,1742C 990.167,1741.67 971.833,1741.33 953.5,1741C 956.376,1740.56 959.043,1739.56 961.5,1738C 959.659,1734.37 956.659,1732.37 952.5,1732C 935.527,1730.48 918.527,1729.31 901.5,1728.5C 903.465,1726.48 903.631,1724.48 902,1722.5C 899.07,1720.74 895.903,1719.58 892.5,1719C 881.167,1718.67 869.833,1718.33 858.5,1718C 860.325,1716.53 860.825,1714.7 860,1712.5C 858.457,1710.62 856.624,1709.12 854.5,1708C 842.89,1706.75 831.224,1706.09 819.5,1706C 819.941,1703.55 819.441,1701.05 818,1698.5C 816.581,1697.54 815.081,1696.71 813.5,1696C 800.453,1695.9 787.453,1695.23 774.5,1694C 779.756,1691.6 779.756,1688.93 774.5,1686C 771.576,1685.01 768.576,1684.35 765.5,1684C 756.167,1683.67 746.833,1683.33 737.5,1683C 738.833,1682.67 740.167,1682.33 741.5,1682C 742.768,1677.63 740.768,1674.63 735.5,1673C 725.806,1672.7 716.139,1672.03 706.5,1671C 709.484,1667.25 708.818,1664.25 704.5,1662C 694.573,1660.74 684.573,1660.08 674.5,1660C 678.769,1656 678.103,1652.67 672.5,1650C 663.533,1648.89 654.533,1648.39 645.5,1648.5C 647.589,1643.94 646.255,1640.77 641.5,1639C 633.228,1637.8 624.894,1637.13 616.5,1637C 615.939,1635.43 616.606,1634.1 618.5,1633C 617.86,1629.69 615.86,1627.69 612.5,1627C 605.563,1625.83 598.563,1625.16 591.5,1625C 591.624,1620.36 589.624,1617.02 585.5,1615C 577.791,1614.76 570.124,1614.1 562.5,1613C 566.29,1610.5 566.29,1607.83 562.5,1605C 560.913,1604.14 559.246,1603.47 557.5,1603C 551.167,1602.67 544.833,1602.33 538.5,1602C 542.064,1599.15 542.064,1596.15 538.5,1593C 531.542,1591.84 524.542,1590.84 517.5,1590C 518.876,1586.41 517.876,1583.07 514.5,1580C 508.833,1579.67 503.167,1579.33 497.5,1579C 500.167,1576.33 500.167,1573.67 497.5,1571C 495.283,1569.72 492.949,1568.72 490.5,1568C 486.129,1567.83 481.796,1567.33 477.5,1566.5C 479.179,1562.71 478.179,1559.88 474.5,1558C 469.246,1556.73 463.913,1556.23 458.5,1556.5C 459.231,1552.4 458.231,1548.9 455.5,1546C 451.619,1544.81 447.619,1544.14 443.5,1544C 442.12,1542.68 441.786,1541.34 442.5,1540C 441.636,1537.93 440.303,1536.26 438.5,1535C 433.5,1534 428.5,1533 423.5,1532C 425.137,1527.91 424.137,1524.57 420.5,1522C 415.5,1521.67 410.5,1521.33 405.5,1521C 406.5,1520 407.5,1519 408.5,1518C 408.676,1516.34 408.009,1514.67 406.5,1513C 401.478,1510.44 396.145,1509.1 390.5,1509C 390.374,1507.03 390.208,1504.86 390,1502.5C 386.702,1498.84 382.535,1497.5 377.5,1498.5C 379.305,1488.14 374.972,1483.97 364.5,1486C 364.394,1482.8 363.394,1479.63 361.5,1476.5C 358.557,1475.76 355.557,1475.26 352.5,1475C 350.2,1473.89 349.867,1472.39 351.5,1470.5C 351.281,1469.06 350.781,1467.73 350,1466.5C 347.004,1465.09 343.837,1464.09 340.5,1463.5C 339.77,1460.89 339.27,1458.22 339,1455.5C 338.167,1454.67 337.333,1453.83 336.5,1453C 333.086,1452.7 329.753,1452.04 326.5,1451C 328.444,1446.97 327.444,1443.97 323.5,1442C 320.441,1441.36 317.441,1440.52 314.5,1439.5C 316.563,1431.89 313.563,1428.55 305.5,1429.5C 305.816,1426.02 305.316,1422.69 304,1419.5C 301.5,1417.46 298.833,1417.13 296,1418.5C 295.631,1414.14 295.131,1409.8 294.5,1405.5C 291.167,1405.5 287.833,1405.5 284.5,1405.5C 284.326,1402.13 283.826,1398.79 283,1395.5C 279.636,1394.26 276.136,1393.59 272.5,1393.5C 272.664,1390.81 272.497,1388.15 272,1385.5C 271.585,1383.71 270.585,1382.38 269,1381.5C 269.135,1378.06 267.968,1375.23 265.5,1373C 263.555,1373.13 261.722,1372.96 260,1372.5C 259.501,1368.18 259.334,1363.85 259.5,1359.5C 256.813,1359.66 254.146,1359.5 251.5,1359C 250.692,1358.69 250.025,1358.19 249.5,1357.5C 247.608,1350.52 246.941,1343.52 247.5,1336.5C 244.07,1336.89 240.904,1336.23 238,1334.5C 236.862,1328.39 236.029,1322.22 235.5,1316C 235.167,1315.17 234.833,1314.33 234.5,1313.5C 231.342,1313.17 228.508,1312.17 226,1310.5C 224.878,1303.55 224.211,1296.55 224,1289.5C 223,1286.5 222,1283.5 221,1280.5C 220.333,1281.17 219.667,1281.83 219,1282.5C 218.5,1126.5 218.333,970.5 218.5,814.5 Z"/></g>
<g><path style="opacity:0.943" fill="#000000" d="M 218.5,1406.5 C 222.514,1406.33 226.514,1406.5 230.5,1407C 231.931,1407.47 233.097,1408.3 234,1409.5C 235.251,1415.72 235.917,1422.06 236,1428.5C 241.103,1429.22 244.77,1431.88 247,1436.5C 247.333,1443.83 247.667,1451.17 248,1458.5C 248.202,1460.26 248.702,1461.92 249.5,1463.5C 252.603,1463.92 255.436,1464.92 258,1466.5C 258.972,1473.13 259.639,1479.8 260,1486.5C 263.139,1487.08 266.139,1488.08 269,1489.5C 269.906,1496.21 270.906,1502.88 272,1509.5C 274.667,1510.17 277.333,1510.83 280,1511.5C 280.457,1514.8 281.291,1517.96 282.5,1521C 285.063,1522.08 287.729,1522.58 290.5,1522.5C 292.627,1529 294.46,1535.67 296,1542.5C 298.952,1545.18 301.952,1545.51 305,1543.5C 304.337,1547.51 304.503,1551.51 305.5,1555.5C 308.768,1556.49 312.102,1556.82 315.5,1556.5C 315.263,1560.27 315.763,1563.94 317,1567.5C 320.057,1568.45 323.223,1568.78 326.5,1568.5C 326.301,1571.94 326.801,1575.27 328,1578.5C 331.129,1579.13 334.296,1579.8 337.5,1580.5C 337.647,1583.76 338.48,1587.09 340,1590.5C 342.405,1591.27 344.905,1591.77 347.5,1592C 348.093,1595.65 349.426,1598.98 351.5,1602C 354.557,1602.26 357.557,1602.76 360.5,1603.5C 360.317,1607.14 361.317,1610.64 363.5,1614C 367.5,1614.33 371.5,1614.67 375.5,1615C 372.731,1618.61 373.064,1621.94 376.5,1625C 379.827,1625.61 383.161,1626.11 386.5,1626.5C 385.471,1629.9 386.137,1633.07 388.5,1636C 392.716,1637.2 397.049,1637.87 401.5,1638C 399.964,1641.24 400.297,1644.24 402.5,1647C 407.35,1648.73 412.35,1649.73 417.5,1650C 417.626,1651.97 417.792,1654.14 418,1656.5C 418.833,1658 420,1659.17 421.5,1660C 425.152,1660.5 428.818,1660.67 432.5,1660.5C 431.307,1664.25 431.974,1667.75 434.5,1671C 439.083,1672.14 443.749,1672.81 448.5,1673C 450.044,1675.84 451.377,1678.84 452.5,1682C 457.467,1683.07 462.467,1684.07 467.5,1685C 465.396,1689.73 466.73,1693.06 471.5,1695C 477.167,1695.33 482.833,1695.67 488.5,1696C 485.78,1699.88 486.446,1703.21 490.5,1706C 496.117,1707.05 501.784,1707.72 507.5,1708C 505.166,1713.25 506.832,1716.58 512.5,1718C 516.871,1718.17 521.204,1718.67 525.5,1719.5C 523.925,1723.13 524.592,1726.29 527.5,1729C 534.815,1729.87 542.148,1730.54 549.5,1731C 548.543,1736.37 550.876,1739.71 556.5,1741C 561.833,1741.33 567.167,1741.67 572.5,1742C 573.167,1742.67 573.833,1743.33 574.5,1744C 572.972,1746.88 573.638,1749.21 576.5,1751C 582.305,1752.99 588.305,1753.99 594.5,1754C 595.207,1756.52 596.04,1759.02 597,1761.5C 597.75,1762.13 598.584,1762.63 599.5,1763C 608.808,1764.07 618.141,1765.07 627.5,1766C 625.099,1768.38 625.099,1770.88 627.5,1773.5C 629.667,1774.79 632,1775.63 634.5,1776C 642.5,1776.33 650.5,1776.67 658.5,1777C 654.045,1781.68 655.045,1785.01 661.5,1787C 669.138,1787.98 676.805,1788.64 684.5,1789C 685.634,1790.02 685.301,1790.68 683.5,1791C 683.694,1794.62 685.694,1797.29 689.5,1799C 698.167,1799.33 706.833,1799.67 715.5,1800C 714.833,1800.67 714.167,1801.33 713.5,1802C 713.57,1803.62 714.07,1805.46 715,1807.5C 717.304,1809.07 719.804,1810.24 722.5,1811C 732.167,1811.33 741.833,1811.67 751.5,1812C 751.693,1813.65 751.86,1815.48 752,1817.5C 753.41,1818.79 754.91,1819.95 756.5,1821C 766.441,1822.23 776.441,1822.9 786.5,1823C 787.167,1823.67 787.833,1824.33 788.5,1825C 786.995,1828.88 788.329,1831.55 792.5,1833C 802.801,1834.1 813.134,1834.77 823.5,1835C 823.187,1840.69 825.854,1844.02 831.5,1845C 844.192,1845.24 856.859,1845.91 869.5,1847C 866.386,1851.63 867.719,1854.63 873.5,1856C 889.465,1857.22 905.465,1857.89 921.5,1858C 913.075,1860.51 913.409,1863.51 922.5,1867C 938.778,1868.67 955.111,1869.83 971.5,1870.5C 969.876,1871.87 969.376,1873.54 970,1875.5C 972.521,1878.35 975.687,1879.85 979.5,1880C 994.167,1880.33 1008.83,1880.67 1023.5,1881C 1019.53,1885.22 1020.86,1888.56 1027.5,1891C 1049.13,1892.27 1070.8,1892.93 1092.5,1893C 1095.17,1894 1095.17,1895 1092.5,1896C 1093.17,1898 1094.5,1899.33 1096.5,1900C 1104.09,1901.57 1111.75,1902.57 1119.5,1903C 1143.52,1903.13 1167.52,1903.8 1191.5,1905C 1187.95,1905.18 1184.95,1906.51 1182.5,1909C 1189.36,1912.51 1196.69,1914.51 1204.5,1915C 1236.5,1915.33 1268.5,1915.67 1300.5,1916C 1295.52,1916.41 1290.85,1917.74 1286.5,1920C 1292.27,1923.63 1298.6,1925.63 1305.5,1926C 1371.18,1926.18 1436.85,1926.68 1502.5,1927.5C 1580.79,1926.81 1659.12,1926.31 1737.5,1926C 1744.05,1925.53 1750.05,1923.53 1755.5,1920C 1751.22,1917.46 1746.55,1916.13 1741.5,1916C 1773.83,1915.67 1806.17,1915.33 1838.5,1915C 1845.81,1915.01 1852.48,1913.01 1858.5,1909C 1856.62,1906.89 1854.28,1905.56 1851.5,1905C 1875.48,1903.77 1899.48,1903.11 1923.5,1903C 1930.91,1902.49 1938.24,1901.49 1945.5,1900C 1948.95,1898.51 1949.62,1896.51 1947.5,1894C 1948.5,1893.67 1949.5,1893.33 1950.5,1893C 1969.83,1892.67 1989.17,1892.33 2008.5,1892C 2014.41,1892.28 2018.74,1889.94 2021.5,1885C 2020.32,1883.51 2019.32,1882.18 2018.5,1881C 2033.17,1880.67 2047.83,1880.33 2062.5,1880C 2066.39,1879.97 2069.55,1878.47 2072,1875.5C 2072.71,1873.63 2072.21,1872.13 2070.5,1871C 2070.83,1870.67 2071.17,1870.33 2071.5,1870C 2086.51,1869.59 2101.51,1868.93 2116.5,1868C 2121.41,1867.39 2125.08,1865.06 2127.5,1861C 2125.28,1859.72 2122.95,1858.72 2120.5,1858C 2136.86,1857.87 2153.2,1857.2 2169.5,1856C 2172.86,1855.31 2174.86,1853.31 2175.5,1850C 2174.83,1848.67 2173.83,1847.67 2172.5,1847C 2185.14,1845.91 2197.81,1845.24 2210.5,1845C 2216,1843.84 2219,1840.51 2219.5,1835C 2229.53,1834.76 2239.53,1834.09 2249.5,1833C 2254.25,1831.97 2255.92,1829.3 2254.5,1825C 2255.17,1824.33 2255.83,1823.67 2256.5,1823C 2266.23,1822.89 2275.89,1822.22 2285.5,1821C 2287.08,1820.29 2288.58,1819.46 2290,1818.5C 2291.35,1816.3 2291.85,1814.14 2291.5,1812C 2302.22,1811.9 2312.89,1811.24 2323.5,1810C 2328.67,1807.79 2329.67,1804.45 2326.5,1800C 2335.17,1799.67 2343.83,1799.33 2352.5,1799C 2357.48,1797.54 2359.14,1794.38 2357.5,1789.5C 2365.49,1788.6 2373.49,1787.77 2381.5,1787C 2387.58,1784.89 2388.58,1781.56 2384.5,1777C 2393.88,1776.85 2403.22,1776.19 2412.5,1775C 2416.82,1772.75 2417.48,1769.75 2414.5,1766C 2423.87,1765.1 2433.2,1764.1 2442.5,1763C 2443.42,1762.63 2444.25,1762.13 2445,1761.5C 2445.96,1759.02 2446.79,1756.52 2447.5,1754C 2453.99,1753.93 2460.33,1752.93 2466.5,1751C 2469.36,1748.75 2470.02,1746.42 2468.5,1744C 2469.17,1743.33 2469.83,1742.67 2470.5,1742C 2475.5,1741.67 2480.5,1741.33 2485.5,1741C 2491.79,1739.86 2494.12,1736.36 2492.5,1730.5C 2499.87,1730.62 2507.21,1730.12 2514.5,1729C 2517.57,1726.18 2518.24,1722.84 2516.5,1719C 2521.92,1718.84 2527.25,1718.17 2532.5,1717C 2536.06,1714.35 2537.06,1711.35 2535.5,1708C 2541.29,1707.88 2546.96,1707.05 2552.5,1705.5C 2555.92,1702.58 2556.26,1699.41 2553.5,1696C 2560.31,1695.99 2566.98,1695.16 2573.5,1693.5C 2575.63,1690.87 2575.97,1688.04 2574.5,1685C 2579.93,1684.16 2585.27,1682.99 2590.5,1681.5C 2591.92,1679.04 2592.92,1676.37 2593.5,1673.5C 2598.63,1672.9 2603.63,1671.73 2608.5,1670C 2610.18,1667.2 2610.84,1664.36 2610.5,1661.5C 2614.12,1660.67 2617.79,1660.17 2621.5,1660C 2624.23,1657.1 2625.23,1653.6 2624.5,1649.5C 2630,1649.64 2635.34,1648.8 2640.5,1647C 2642.7,1644.24 2643.04,1641.24 2641.5,1638C 2645.62,1637.86 2649.62,1637.19 2653.5,1636C 2656.35,1633.43 2657.01,1630.43 2655.5,1627C 2659.37,1626.16 2663.21,1625.33 2667,1624.5C 2668.71,1621.58 2668.88,1618.58 2667.5,1615.5C 2671.12,1614.67 2674.79,1614.17 2678.5,1614C 2681.43,1611.09 2682.1,1607.76 2680.5,1604C 2684.1,1602.99 2687.77,1602.15 2691.5,1601.5C 2693.11,1598.78 2693.94,1595.78 2694,1592.5C 2702.1,1592.73 2705.77,1588.73 2705,1580.5C 2707.74,1579.72 2710.57,1579.22 2713.5,1579C 2715.07,1576.07 2715.9,1572.9 2716,1569.5C 2718.74,1568.72 2721.57,1568.22 2724.5,1568C 2726.12,1565.63 2727.12,1562.96 2727.5,1560C 2727.36,1559.23 2727.02,1558.56 2726.5,1558C 2730.12,1557.11 2733.62,1555.95 2737,1554.5C 2737.5,1551.18 2737.67,1547.85 2737.5,1544.5C 2740.11,1545.5 2742.78,1545.34 2745.5,1544C 2747.03,1539.98 2748.2,1535.81 2749,1531.5C 2751.21,1529.05 2752.04,1526.38 2751.5,1523.5C 2754.39,1522.32 2757.39,1521.66 2760.5,1521.5C 2761.04,1518.19 2761.54,1514.85 2762,1511.5C 2765.27,1511.1 2768.27,1510.1 2771,1508.5C 2771.04,1501.66 2772.04,1494.99 2774,1488.5C 2776.67,1487.83 2779.33,1487.17 2782,1486.5C 2783,1479.5 2784,1472.5 2785,1465.5C 2788.14,1464.92 2791.14,1463.92 2794,1462.5C 2794.33,1453.5 2794.67,1444.5 2795,1435.5C 2797.39,1430.97 2801.22,1428.97 2806.5,1429.5C 2807.15,1424.86 2807.65,1420.2 2808,1415.5C 2809.02,1416.63 2809.68,1416.3 2810,1414.5C 2813.95,1415.77 2818.45,1415.77 2823.5,1414.5C 2823.67,1572.83 2823.5,1731.17 2823,1889.5C 2822.78,1888.06 2822.28,1886.73 2821.5,1885.5C 2820.85,1887.62 2820.02,1889.62 2819,1891.5C 2818.05,1898.85 2817.05,1906.18 2816,1913.5C 2813.26,1914.48 2810.43,1915.15 2807.5,1915.5C 2806.29,1923.79 2805.45,1932.12 2805,1940.5C 2804.75,1939.38 2804.25,1938.38 2803.5,1937.5C 2801.25,1938.37 2798.92,1938.71 2796.5,1938.5C 2795.68,1945.6 2794.35,1952.6 2792.5,1959.5C 2791.97,1960.19 2791.31,1960.69 2790.5,1961C 2787.85,1961.5 2785.19,1961.66 2782.5,1961.5C 2782.67,1965.85 2782.5,1970.18 2782,1974.5C 2780.67,1974.5 2779.33,1974.5 2778,1974.5C 2777,1975.17 2776,1975.83 2775,1976.5C 2774.75,1978.43 2774.25,1980.27 2773.5,1982C 2773.96,1982.41 2774.29,1982.91 2774.5,1983.5C 2771.77,1984.06 2770.27,1985.73 2770,1988.5C 2769.5,1990.81 2769.34,1993.14 2769.5,1995.5C 2766.12,1995.89 2762.79,1996.55 2759.5,1997.5C 2758.76,2000.44 2758.26,2003.44 2758,2006.5C 2749.33,2006.46 2745.83,2010.79 2747.5,2019.5C 2741.37,2017.85 2737.7,2020.01 2736.5,2026C 2737.7,2027.53 2737.7,2029.03 2736.5,2030.5C 2733.12,2031.46 2729.95,2032.79 2727,2034.5C 2725.51,2037.19 2725.68,2039.53 2727.5,2041.5C 2724.35,2043.16 2721.02,2044.33 2717.5,2045C 2715.46,2047.5 2715.13,2050.17 2716.5,2053C 2712.78,2054.4 2709.12,2055.9 2705.5,2057.5C 2704.52,2060.25 2703.86,2062.75 2703.5,2065C 2700.62,2066.13 2697.62,2066.79 2694.5,2067C 2692.07,2069.63 2690.74,2072.8 2690.5,2076.5C 2686.77,2077.15 2683.1,2077.99 2679.5,2079C 2678.1,2082.03 2677.43,2085.03 2677.5,2088C 2667.91,2086.75 2663.91,2090.92 2665.5,2100.5C 2662.15,2100.33 2658.82,2100.5 2655.5,2101C 2652.22,2103.95 2651.22,2107.12 2652.5,2110.5C 2646.73,2111.27 2641.06,2112.44 2635.5,2114C 2632.14,2116.73 2631.8,2119.73 2634.5,2123C 2630.17,2123.33 2625.83,2123.67 2621.5,2124C 2618.57,2126.91 2617.9,2130.24 2619.5,2134C 2614.77,2134.84 2610.11,2135.84 2605.5,2137C 2603.43,2139.8 2601.76,2142.8 2600.5,2146C 2595.72,2146.12 2591.05,2146.79 2586.5,2148C 2583.26,2150.61 2581.93,2153.78 2582.5,2157.5C 2576.45,2158.14 2570.45,2158.97 2564.5,2160C 2562.66,2162.83 2561.99,2165.99 2562.5,2169.5C 2556.69,2168.77 2551.36,2169.94 2546.5,2173C 2544.34,2175.96 2544.34,2178.62 2546.5,2181C 2539.73,2181.08 2533.06,2181.74 2526.5,2183C 2523.84,2185.16 2522.51,2187.66 2522.5,2190.5C 2523.03,2191.19 2523.69,2191.69 2524.5,2192C 2517.08,2192.67 2509.75,2193.67 2502.5,2195C 2498.52,2198.05 2498.52,2201.05 2502.5,2204C 2495.83,2204.33 2489.17,2204.67 2482.5,2205C 2476.89,2206.86 2475.56,2210.19 2478.5,2215C 2471.55,2216.12 2464.55,2216.79 2457.5,2217C 2454.54,2217.39 2452.38,2218.89 2451,2221.5C 2450.86,2223.52 2450.69,2225.35 2450.5,2227C 2442.39,2227.15 2434.39,2228.15 2426.5,2230C 2423.44,2232.68 2422.77,2235.85 2424.5,2239.5C 2416.16,2239.33 2407.83,2239.5 2399.5,2240C 2395.02,2242.06 2393.35,2245.56 2394.5,2250.5C 2386.01,2249.99 2377.68,2250.82 2369.5,2253C 2365.9,2254.33 2364.73,2256.83 2366,2260.5C 2366.75,2261.13 2367.58,2261.63 2368.5,2262C 2359.12,2262.15 2349.78,2262.81 2340.5,2264C 2337.23,2264.94 2334.9,2266.94 2333.5,2270C 2334.17,2271.33 2335.17,2272.33 2336.5,2273C 2326.52,2274 2316.52,2274.67 2306.5,2275C 2301.97,2275.16 2298.63,2277.16 2296.5,2281C 2297.81,2283.32 2299.81,2284.66 2302.5,2285C 2291.11,2285.09 2279.78,2285.76 2268.5,2287C 2264.26,2288.66 2262.59,2291.49 2263.5,2295.5C 2264.55,2295.35 2265.55,2295.52 2266.5,2296C 2265.17,2296.33 2263.83,2296.67 2262.5,2297C 2251.44,2297.09 2240.44,2297.76 2229.5,2299C 2226.83,2300.33 2224.83,2302.33 2223.5,2305C 2225.12,2305.85 2225.46,2306.85 2224.5,2308C 2212.08,2308.03 2199.74,2309.03 2187.5,2311C 2181.35,2313.42 2180.35,2316.42 2184.5,2320C 2168.83,2320.33 2153.17,2320.67 2137.5,2321C 2131,2321.99 2129,2325.49 2131.5,2331.5C 2118.16,2331.67 2104.82,2332.17 2091.5,2333C 2088.8,2333.76 2086.3,2334.93 2084,2336.5C 2082.96,2339.8 2084.12,2341.97 2087.5,2343C 2071.83,2343.33 2056.17,2343.67 2040.5,2344C 2035.08,2344.54 2030.75,2346.87 2027.5,2351C 2028.38,2352.58 2029.71,2353.58 2031.5,2354C 2008.83,2354.95 1986.16,2355.95 1963.5,2357C 1961.78,2357.35 1960.12,2357.85 1958.5,2358.5C 1956.12,2360.68 1954.79,2363.18 1954.5,2366C 1933.83,2366.33 1913.17,2366.67 1892.5,2367C 1889.25,2367.25 1886.25,2368.25 1883.5,2370C 1881.4,2371.73 1881.07,2373.73 1882.5,2376C 1881.83,2376.67 1881.17,2377.33 1880.5,2378C 1854.8,2378.06 1829.13,2378.72 1803.5,2380C 1799.11,2380.73 1795.45,2382.73 1792.5,2386C 1797.63,2387.53 1797.63,2388.53 1792.5,2389C 1702.17,2389.49 1611.83,2389.99 1521.5,2390.5C 1430.83,2389.99 1340.17,2389.49 1249.5,2389C 1245.73,2388.39 1245.73,2387.39 1249.5,2386C 1246.63,2382.7 1242.96,2380.7 1238.5,2380C 1212.86,2378.73 1187.2,2378.07 1161.5,2378C 1159.44,2376.98 1159.1,2375.65 1160.5,2374C 1159.62,2370.38 1157.28,2368.38 1153.5,2368C 1131.2,2366.73 1108.87,2366.07 1086.5,2366C 1085.11,2358.64 1080.77,2355.8 1073.5,2357.5C 1051.89,2355.87 1030.23,2354.7 1008.5,2354C 1009.83,2353.67 1011.17,2353.33 1012.5,2353C 1011.99,2348.17 1008.99,2345.51 1003.5,2345C 986.205,2343.75 968.872,2343.09 951.5,2343C 957.449,2341.63 958.115,2338.96 953.5,2335C 951.754,2334.53 950.087,2333.86 948.5,2333C 935.167,2332.33 921.833,2331.67 908.5,2331C 908.167,2330.67 907.833,2330.33 907.5,2330C 910.192,2327.37 909.859,2325.03 906.5,2323C 904.608,2322.03 902.608,2321.36 900.5,2321C 885.833,2320.67 871.167,2320.33 856.5,2320C 861.147,2315.66 859.814,2312.66 852.5,2311C 848.886,2310.06 845.219,2309.39 841.5,2309C 832.5,2308.67 823.5,2308.33 814.5,2308C 814.549,2305.51 813.715,2303.01 812,2300.5C 811.25,2299.87 810.416,2299.37 809.5,2299C 799.573,2297.74 789.573,2297.08 779.5,2297C 776.258,2296.72 775.924,2295.88 778.5,2294.5C 779.06,2290.83 777.393,2288.33 773.5,2287C 761.237,2285.73 748.903,2285.06 736.5,2285C 744.115,2282.73 744.449,2279.73 737.5,2276C 725.819,2275.06 716.152,2273.89 708.5,2272.5C 708.968,2267.46 706.635,2264.63 701.5,2264C 691.893,2262.78 682.226,2262.11 672.5,2262C 675.306,2260.69 676.14,2258.53 675,2255.5C 673.421,2253.96 671.587,2252.79 669.5,2252C 662.229,2250.7 654.896,2250.2 647.5,2250.5C 649.499,2245.33 647.833,2241.83 642.5,2240C 634.479,2239.83 626.479,2239.33 618.5,2238.5C 617.522,2237.2 617.855,2236.03 619.5,2235C 619.097,2233.53 618.43,2232.19 617.5,2231C 609.724,2228.14 601.724,2226.81 593.5,2227C 593.853,2221.79 591.519,2218.46 586.5,2217C 579.782,2216.77 573.115,2216.11 566.5,2215C 569.314,2211.41 568.647,2208.41 564.5,2206C 557.245,2204.78 549.911,2204.11 542.5,2204C 547.556,2201.27 547.556,2198.27 542.5,2195C 535.217,2193.78 527.883,2192.78 520.5,2192C 520.944,2190.47 521.277,2188.97 521.5,2187.5C 520.352,2185.85 519.019,2184.35 517.5,2183C 511.581,2181.8 505.581,2181.14 499.5,2181C 502.167,2178.33 502.167,2175.67 499.5,2173C 493.529,2170.02 487.196,2168.85 480.5,2169.5C 481.529,2166.1 480.863,2162.93 478.5,2160C 472.579,2158.92 466.579,2158.08 460.5,2157.5C 459.385,2156.4 459.385,2155.23 460.5,2154C 460.066,2151.68 459.066,2149.68 457.5,2148C 453.284,2146.8 448.951,2146.13 444.5,2146C 443.12,2144.68 442.786,2143.34 443.5,2142C 442.636,2139.93 441.303,2138.26 439.5,2137C 434.554,2135.84 429.554,2135.01 424.5,2134.5C 425.859,2130.4 424.859,2126.9 421.5,2124C 417.167,2123.67 412.833,2123.33 408.5,2123C 411.059,2120.07 411.059,2117.07 408.5,2114C 403.259,2112.68 397.925,2111.68 392.5,2111C 392.374,2109.03 392.208,2106.86 392,2104.5C 391.167,2103.67 390.333,2102.83 389.5,2102C 385.428,2101.07 381.428,2100.07 377.5,2099C 378.62,2095.53 377.62,2092.19 374.5,2089C 371.183,2088.5 367.85,2088.33 364.5,2088.5C 365.803,2079.97 362.137,2076.14 353.5,2077C 351.2,2075.89 350.867,2074.39 352.5,2072.5C 351.24,2066.4 347.574,2064.4 341.5,2066.5C 339.845,2063.54 339.011,2060.54 339,2057.5C 338.167,2056.67 337.333,2055.83 336.5,2055C 333.086,2054.7 329.753,2054.04 326.5,2053C 328.444,2048.97 327.444,2045.97 323.5,2044C 320.529,2043.21 317.529,2042.54 314.5,2042C 316.84,2037.57 315.673,2034.07 311,2031.5C 309.374,2031.85 307.541,2031.85 305.5,2031.5C 308.176,2022.19 304.842,2018.19 295.5,2019.5C 295.737,2015.73 295.237,2012.06 294,2008.5C 290.943,2007.55 287.777,2007.22 284.5,2007.5C 284.699,2004.06 284.199,2000.73 283,1997.5C 279.6,1996.46 276.1,1995.79 272.5,1995.5C 272.448,1991.8 272.114,1988.14 271.5,1984.5C 267.524,1984.86 266.524,1983.36 268.5,1980C 268.507,1978.19 267.84,1976.69 266.5,1975.5C 264.208,1974.69 262.041,1974.36 260,1974.5C 260.822,1970.16 260.655,1965.83 259.5,1961.5C 255.397,1962.23 251.897,1961.23 249,1958.5C 248.201,1952.51 247.535,1946.51 247,1940.5C 244.492,1938.83 241.658,1937.83 238.5,1937.5C 236.926,1930.58 235.76,1923.58 235,1916.5C 232.139,1915.08 229.139,1914.08 226,1913.5C 225.113,1906.86 224.446,1900.19 224,1893.5C 222.599,1891.81 220.766,1891.14 218.5,1891.5C 218.5,1729.83 218.5,1568.17 218.5,1406.5 Z"/></g>
<g><path style="opacity:0.004" fill="#000000" d="M 1496.5,1799.5 C 1512.66,1798.34 1528.99,1798.17 1545.5,1799C 1529.17,1799.5 1512.84,1799.67 1496.5,1799.5 Z"/></g>
<g><path style="opacity:0.945" fill="#000000" d="M 218.5,2017.5 C 224.212,2017.31 229.879,2017.65 235.5,2018.5C 235.467,2022.87 235.8,2027.2 236.5,2031.5C 239.93,2031.11 243.096,2031.77 246,2033.5C 247.083,2043.49 248.083,2053.49 249,2063.5C 251.153,2066.12 253.987,2067.12 257.5,2066.5C 258.773,2073.77 259.606,2081.1 260,2088.5C 263,2089.17 266,2089.83 269,2090.5C 270.128,2097.44 270.961,2104.44 271.5,2111.5C 274.428,2112.48 277.428,2112.82 280.5,2112.5C 280.457,2115.91 280.957,2119.24 282,2122.5C 284.351,2123.71 286.851,2124.55 289.5,2125C 290.88,2126.32 291.214,2127.66 290.5,2129C 291.428,2129.39 292.095,2130.05 292.5,2131C 293.668,2135.86 294.834,2140.69 296,2145.5C 299.159,2147.6 302.159,2147.6 305,2145.5C 304.337,2149.51 304.503,2153.51 305.5,2157.5C 308.704,2158.2 311.871,2158.87 315,2159.5C 314.668,2162.87 315.335,2166.2 317,2169.5C 319.74,2170.28 322.574,2170.78 325.5,2171C 326.149,2174.19 326.982,2177.36 328,2180.5C 330.8,2181.13 333.634,2181.79 336.5,2182.5C 337.121,2185.56 337.955,2188.56 339,2191.5C 341.773,2193.05 344.773,2194.05 348,2194.5C 348.056,2197.78 348.889,2200.78 350.5,2203.5C 353.497,2204.25 356.497,2204.91 359.5,2205.5C 359.478,2214.8 364.144,2218.8 373.5,2217.5C 372.129,2220.66 372.462,2223.66 374.5,2226.5C 378.105,2227.54 381.772,2228.21 385.5,2228.5C 384.769,2232.6 385.769,2236.1 388.5,2239C 392.833,2239.33 397.167,2239.67 401.5,2240C 398.833,2242.67 398.833,2245.33 401.5,2248C 406.496,2250.72 411.829,2251.89 417.5,2251.5C 417.714,2253.14 417.38,2254.64 416.5,2256C 417.46,2257.42 418.293,2258.92 419,2260.5C 422.656,2261.97 426.489,2262.97 430.5,2263.5C 430.104,2267.46 431.437,2270.96 434.5,2274C 439.5,2274.33 444.5,2274.67 449.5,2275C 449.976,2278.38 451.31,2281.38 453.5,2284C 458.467,2285.07 463.467,2286.07 468.5,2287C 466.81,2290.53 467.476,2293.53 470.5,2296C 475.84,2296.95 481.507,2297.61 487.5,2298C 484.833,2301 484.833,2304 487.5,2307C 494.419,2308.27 501.419,2309.27 508.5,2310C 506.745,2313.88 507.745,2316.88 511.5,2319C 517.753,2320.2 524.086,2320.87 530.5,2321C 527.934,2324.02 528.268,2326.86 531.5,2329.5C 537.214,2332.05 543.214,2333.05 549.5,2332.5C 549.337,2334.86 549.503,2337.19 550,2339.5C 550.903,2340.7 552.069,2341.53 553.5,2342C 560.421,2343.22 567.421,2343.89 574.5,2344C 572.613,2350.84 575.613,2354.51 583.5,2355C 588.833,2355.33 594.167,2355.67 599.5,2356C 601.294,2357.68 601.794,2359.51 601,2361.5C 602.227,2363.73 604.061,2365.23 606.5,2366C 613.896,2366.15 621.229,2366.82 628.5,2368C 626.038,2371.48 626.704,2374.48 630.5,2377C 639.106,2378.21 647.773,2378.88 656.5,2379C 652.022,2383.74 653.022,2387.07 659.5,2389C 668.184,2389.68 676.85,2390.51 685.5,2391.5C 683.813,2395.24 684.813,2398.08 688.5,2400C 699.109,2401.24 709.775,2401.9 720.5,2402C 717.833,2404.67 717.833,2407.33 720.5,2410C 723.898,2411.92 727.565,2412.92 731.5,2413C 738.167,2413.33 744.833,2413.67 751.5,2414C 751.059,2416.45 751.559,2418.95 753,2421.5C 754.171,2422.89 755.671,2423.73 757.5,2424C 767.184,2424.17 776.851,2424.67 786.5,2425.5C 786.1,2427.83 786.6,2430.16 788,2432.5C 788.903,2433.7 790.069,2434.53 791.5,2435C 803.452,2436.22 815.452,2436.89 827.5,2437C 828.167,2437.33 828.833,2437.67 829.5,2438C 828.146,2439.96 828.479,2441.96 830.5,2444C 833.363,2445.4 836.363,2446.4 839.5,2447C 851.851,2447.36 864.184,2448.03 876.5,2449C 874.213,2451.05 874.046,2453.21 876,2455.5C 878.304,2457.07 880.804,2458.24 883.5,2459C 896.5,2459.33 909.5,2459.67 922.5,2460C 916.779,2461.44 916.112,2464.1 920.5,2468C 922.087,2468.86 923.754,2469.53 925.5,2470C 940.829,2470.77 956.162,2471.44 971.5,2472C 971.833,2472.33 972.167,2472.67 972.5,2473C 970.388,2473.91 969.555,2475.41 970,2477.5C 972.543,2479.35 975.376,2480.52 978.5,2481C 996.806,2482.2 1015.14,2482.87 1033.5,2483C 1030.83,2483.67 1030.83,2484.33 1033.5,2485C 1031.96,2485.29 1030.62,2485.96 1029.5,2487C 1035.67,2491.63 1042.67,2493.96 1050.5,2494C 1066.17,2494.33 1081.83,2494.67 1097.5,2495C 1097.13,2500.98 1100.13,2504.32 1106.5,2505C 1127.5,2505.33 1148.5,2505.67 1169.5,2506C 1170.83,2506.33 1172.17,2506.67 1173.5,2507C 1169.35,2508.45 1168.68,2510.78 1171.5,2514C 1175.03,2515.47 1178.7,2516.47 1182.5,2517C 1229.17,2517.33 1275.83,2517.67 1322.5,2518C 1309.56,2518.05 1296.72,2518.89 1284,2520.5C 1283.67,2520.17 1283.33,2519.83 1283,2519.5C 1280.48,2520.21 1277.98,2521.04 1275.5,2522C 1283.23,2524.75 1291.23,2526.08 1299.5,2526C 1314.5,2526.64 1329.5,2527.3 1344.5,2528C 1462.5,2528.67 1580.5,2528.67 1698.5,2528C 1719.89,2527.39 1741.22,2526.05 1762.5,2524C 1767.31,2521.9 1766.64,2520.56 1760.5,2520C 1746.86,2518.91 1733.19,2518.25 1719.5,2518C 1766.5,2517.67 1813.5,2517.33 1860.5,2517C 1865.67,2516.72 1870.01,2514.72 1873.5,2511C 1872.73,2508.56 1871.06,2507.23 1868.5,2507C 1870.17,2506.67 1871.83,2506.33 1873.5,2506C 1895.55,2505.96 1917.55,2505.29 1939.5,2504C 1944.02,2502.12 1945.69,2498.95 1944.5,2494.5C 1960.17,2494.67 1975.84,2494.5 1991.5,2494C 1998.1,2493.6 2004.43,2492.1 2010.5,2489.5C 2013.16,2486.93 2012.49,2485.43 2008.5,2485C 2012.5,2484.33 2012.5,2483.67 2008.5,2483C 2027.19,2482.85 2045.86,2482.19 2064.5,2481C 2067.95,2480.11 2070.95,2478.44 2073.5,2476C 2072.31,2474.98 2071.31,2473.81 2070.5,2472.5C 2087.22,2471.66 2103.89,2470.5 2120.5,2469C 2126.31,2465.44 2126.31,2462.44 2120.5,2460C 2133.17,2459.67 2145.83,2459.33 2158.5,2459C 2163.21,2458.62 2166.55,2456.28 2168.5,2452C 2167.83,2450.67 2166.83,2449.67 2165.5,2449C 2178.15,2448.06 2190.82,2447.39 2203.5,2447C 2210.01,2446.44 2214.01,2443.11 2215.5,2437C 2227.55,2436.89 2239.55,2436.22 2251.5,2435C 2252.58,2434.04 2253.75,2433.21 2255,2432.5C 2255.23,2429.91 2255.73,2427.41 2256.5,2425C 2266.17,2424.67 2275.83,2424.33 2285.5,2424C 2289.9,2421.84 2291.9,2418.51 2291.5,2414C 2298.17,2413.67 2304.83,2413.33 2311.5,2413C 2317.17,2413 2321.5,2410.67 2324.5,2406C 2323.71,2404.91 2323.04,2403.75 2322.5,2402.5C 2331.82,2401.67 2341.15,2401.17 2350.5,2401C 2355.46,2400.05 2358.12,2397.38 2358.5,2393C 2357.69,2392.69 2357.03,2392.19 2356.5,2391.5C 2366.24,2390.79 2375.91,2389.62 2385.5,2388C 2390,2384.56 2390,2381.56 2385.5,2379C 2393.89,2378.87 2402.23,2378.2 2410.5,2377C 2415.04,2374.96 2416.04,2371.96 2413.5,2368C 2420.78,2366.87 2428.12,2366.2 2435.5,2366C 2440.04,2364.26 2442.37,2360.93 2442.5,2356C 2449.23,2355.83 2455.9,2355.16 2462.5,2354C 2464.42,2353.64 2466.09,2352.81 2467.5,2351.5C 2468.25,2349.07 2468.58,2346.74 2468.5,2344.5C 2474.14,2343.67 2479.8,2343.17 2485.5,2343C 2491.61,2342.05 2493.95,2338.55 2492.5,2332.5C 2497.93,2332.84 2503.26,2332.34 2508.5,2331C 2513.22,2329.23 2514.55,2326.06 2512.5,2321.5C 2517.8,2320.67 2523.14,2320.17 2528.5,2320C 2533.11,2318.73 2535.45,2315.73 2535.5,2311C 2534.83,2310.67 2534.17,2310.33 2533.5,2310C 2540.13,2309.03 2546.8,2308.36 2553.5,2308C 2557.01,2304.95 2557.34,2301.62 2554.5,2298C 2560.53,2297.57 2566.53,2296.91 2572.5,2296C 2575.8,2293.2 2576.13,2290.2 2573.5,2287C 2578.1,2285.94 2582.77,2285.27 2587.5,2285C 2588.58,2284.04 2589.75,2283.21 2591,2282.5C 2591.55,2279.72 2592.05,2277.22 2592.5,2275C 2597.95,2274.9 2603.28,2274.23 2608.5,2273C 2609.7,2272.1 2610.53,2270.93 2611,2269.5C 2611.08,2267.34 2611.24,2265.34 2611.5,2263.5C 2614.78,2262.68 2618.12,2262.18 2621.5,2262C 2625.26,2259.24 2626.26,2255.74 2624.5,2251.5C 2629.68,2251.73 2634.68,2250.89 2639.5,2249C 2642.98,2246.29 2643.31,2243.29 2640.5,2240C 2644.83,2239.67 2649.17,2239.33 2653.5,2239C 2656.63,2235.98 2657.63,2232.48 2656.5,2228.5C 2660.16,2228.05 2663.83,2227.55 2667.5,2227C 2669.62,2223.83 2669.95,2220.49 2668.5,2217C 2672.17,2216.67 2675.83,2216.33 2679.5,2216C 2681.68,2212.64 2682.68,2209.14 2682.5,2205.5C 2685.44,2204.76 2688.44,2204.26 2691.5,2204C 2693.67,2201.2 2694.34,2198.2 2693.5,2195C 2695.96,2193.78 2698.63,2193.12 2701.5,2193C 2704.01,2189.38 2705.67,2185.71 2706.5,2182C 2709.23,2181.82 2711.89,2181.32 2714.5,2180.5C 2716.03,2177.34 2716.69,2174.01 2716.5,2170.5C 2719.78,2170.78 2722.94,2170.45 2726,2169.5C 2727.24,2165.94 2727.74,2162.27 2727.5,2158.5C 2730.57,2158.82 2733.57,2158.48 2736.5,2157.5C 2737.26,2153.89 2737.76,2150.22 2738,2146.5C 2740.71,2147.33 2743.38,2147 2746,2145.5C 2747.5,2138.69 2749.5,2132.02 2752,2125.5C 2754.69,2124.29 2757.52,2123.62 2760.5,2123.5C 2761.04,2120.19 2761.54,2116.85 2762,2113.5C 2765,2112.83 2768,2112.17 2771,2111.5C 2772.41,2108.32 2772.58,2104.99 2771.5,2101.5C 2771.78,2097.8 2772.28,2094.14 2773,2090.5C 2776,2089.83 2779,2089.17 2782,2088.5C 2783,2081.5 2784,2074.5 2785,2067.5C 2787.07,2066.74 2789.24,2066.24 2791.5,2066C 2792.67,2065.5 2793.5,2064.67 2794,2063.5C 2794.33,2054.83 2794.67,2046.17 2795,2037.5C 2795.4,2036.13 2795.9,2034.79 2796.5,2033.5C 2799.48,2032 2802.65,2031 2806,2030.5C 2807.04,2027.25 2807.7,2023.91 2808,2020.5C 2808.67,2019.17 2809.67,2018.17 2811,2017.5C 2815.04,2017.54 2819.21,2017.87 2823.5,2018.5C 2823.5,2173.17 2823.5,2327.83 2823.5,2482.5C 2821.86,2482.29 2820.36,2482.62 2819,2483.5C 2817.91,2493.47 2817.24,2503.47 2817,2513.5C 2816.63,2514.42 2816.13,2515.25 2815.5,2516C 2812.34,2516.01 2809.51,2516.84 2807,2518.5C 2806.55,2525.19 2805.89,2531.86 2805,2538.5C 2802.05,2540.08 2798.88,2540.74 2795.5,2540.5C 2794.86,2547.18 2794.03,2553.85 2793,2560.5C 2790.1,2563.23 2786.6,2564.23 2782.5,2563.5C 2782.67,2567.85 2782.5,2572.18 2782,2576.5C 2774.27,2574.73 2771.44,2577.73 2773.5,2585.5C 2770.08,2588.76 2768.74,2592.76 2769.5,2597.5C 2766.19,2598.05 2762.86,2598.38 2759.5,2598.5C 2758.96,2601.81 2758.46,2605.15 2758,2608.5C 2754.87,2609.13 2751.7,2609.8 2748.5,2610.5C 2746.78,2613.95 2746.11,2617.62 2746.5,2621.5C 2742.99,2620.99 2739.83,2621.66 2737,2623.5C 2735.56,2626.49 2735.06,2629.49 2735.5,2632.5C 2727.61,2632.97 2724.61,2636.97 2726.5,2644.5C 2723.02,2644.18 2719.69,2644.68 2716.5,2646C 2713.65,2648.57 2712.99,2651.57 2714.5,2655C 2713.68,2656.69 2712.68,2656.85 2711.5,2655.5C 2708.83,2656.17 2706.17,2656.83 2703.5,2657.5C 2701.95,2660.62 2700.95,2663.95 2700.5,2667.5C 2694.62,2666.46 2690.95,2668.96 2689.5,2675C 2690.9,2676.65 2690.56,2677.98 2688.5,2679C 2685.5,2679.33 2682.5,2679.67 2679.5,2680C 2677.74,2683.24 2677.07,2686.74 2677.5,2690.5C 2674.15,2690.33 2670.82,2690.5 2667.5,2691C 2664.34,2694.26 2663.01,2697.92 2663.5,2702C 2657.41,2701.41 2652.24,2703.24 2648,2707.5C 2647.35,2709.24 2647.52,2710.9 2648.5,2712.5C 2643.83,2713.71 2639.16,2714.88 2634.5,2716C 2632.41,2718.63 2632.07,2721.47 2633.5,2724.5C 2628.76,2725.11 2624.09,2725.95 2619.5,2727C 2616.48,2729.47 2615.81,2732.47 2617.5,2736C 2611.12,2736.9 2604.79,2737.9 2598.5,2739C 2596.77,2741.9 2596.11,2745.07 2596.5,2748.5C 2591.96,2748.05 2587.63,2748.72 2583.5,2750.5C 2580.71,2752.51 2580.04,2755.01 2581.5,2758C 2580.83,2758.67 2580.17,2759.33 2579.5,2760C 2574.08,2760.16 2568.75,2760.83 2563.5,2762C 2561.77,2764.9 2561.11,2768.07 2561.5,2771.5C 2555.79,2771.47 2550.12,2771.97 2544.5,2773C 2539.41,2775.7 2538.41,2779.03 2541.5,2783C 2535.1,2783.18 2528.77,2783.85 2522.5,2785C 2518.75,2787.12 2517.75,2790.12 2519.5,2794C 2513.32,2794.1 2507.32,2795.1 2501.5,2797C 2497.65,2800.14 2497.65,2803.14 2501.5,2806C 2495.17,2806.33 2488.83,2806.67 2482.5,2807C 2480.16,2808.17 2477.82,2809.34 2475.5,2810.5C 2473.86,2813.04 2474.19,2815.21 2476.5,2817C 2467.81,2817.93 2459.14,2818.93 2450.5,2820C 2448.13,2822.5 2446.8,2825.5 2446.5,2829C 2439.04,2829.14 2431.7,2830.14 2424.5,2832C 2422.6,2834.73 2421.94,2837.57 2422.5,2840.5C 2415.11,2841.11 2407.78,2841.94 2400.5,2843C 2396.82,2844.88 2395.82,2847.71 2397.5,2851.5C 2387.42,2852.18 2377.42,2853.35 2367.5,2855C 2364.8,2856.82 2363.96,2859.32 2365,2862.5C 2365.75,2863.13 2366.58,2863.63 2367.5,2864C 2357.11,2864.1 2346.77,2864.77 2336.5,2866C 2331.91,2868.12 2330.91,2871.12 2333.5,2875C 2324.53,2876.05 2315.53,2876.72 2306.5,2877C 2303.26,2877.91 2300.92,2879.91 2299.5,2883C 2300.88,2884.71 2302.54,2886.05 2304.5,2887C 2293.45,2887.12 2282.45,2887.79 2271.5,2889C 2266.36,2889.63 2264.03,2892.46 2264.5,2897.5C 2265.55,2897.35 2266.55,2897.52 2267.5,2898C 2265.83,2898.33 2264.17,2898.67 2262.5,2899C 2250.44,2899.08 2238.44,2899.75 2226.5,2901C 2225,2901.83 2223.83,2903 2223,2904.5C 2223.13,2906.45 2222.96,2908.28 2222.5,2910C 2210.45,2910.11 2198.45,2910.78 2186.5,2912C 2180.32,2914.2 2178.99,2917.53 2182.5,2922C 2169.79,2922.1 2157.12,2922.77 2144.5,2924C 2142.41,2924.79 2140.58,2925.96 2139,2927.5C 2138.29,2929.37 2138.79,2930.87 2140.5,2932C 2140.17,2932.33 2139.83,2932.67 2139.5,2933C 2123.11,2933.17 2106.77,2934.17 2090.5,2936C 2086.67,2936.57 2084,2938.57 2082.5,2942C 2084.49,2943.75 2086.82,2944.75 2089.5,2945C 2069.5,2945.33 2049.5,2945.67 2029.5,2946C 2023.6,2946.58 2020.6,2949.75 2020.5,2955.5C 2019.69,2956.59 2016.69,2957.09 2011.5,2957C 1997.83,2957.33 1984.17,2957.67 1970.5,2958C 1965.7,2958.48 1961.7,2960.48 1958.5,2964C 1958.83,2965 1959.17,2966 1959.5,2967C 1958.5,2967.33 1957.5,2967.67 1956.5,2968C 1935.8,2968.07 1915.13,2968.74 1894.5,2970C 1889.48,2970.8 1884.82,2972.46 1880.5,2975C 1881.83,2975.67 1881.83,2976.33 1880.5,2977C 1881.83,2977.33 1883.17,2977.67 1884.5,2978C 1881.83,2978.67 1879.17,2979.33 1876.5,2980C 1841.13,2980.1 1805.8,2980.93 1770.5,2982.5C 1766.24,2981.48 1762.24,2982.15 1758.5,2984.5C 1759.38,2985.25 1760.38,2985.75 1761.5,2986C 1601.17,2986.67 1440.83,2986.67 1280.5,2986C 1282.89,2985.72 1283.55,2984.72 1282.5,2983C 1278.8,2981.93 1275.14,2981.76 1271.5,2982.5C 1237.2,2980.94 1202.87,2980.11 1168.5,2980C 1165.47,2979.46 1162.47,2978.79 1159.5,2978C 1160.83,2977.67 1162.17,2977.33 1163.5,2977C 1162.17,2976.33 1162.17,2975.67 1163.5,2975C 1158.26,2972.08 1152.59,2970.41 1146.5,2970C 1125.5,2968.9 1104.5,2968.06 1083.5,2967.5C 1083.75,2965.17 1083.09,2963.17 1081.5,2961.5C 1078.72,2959.88 1075.72,2958.72 1072.5,2958C 1058.5,2957.67 1044.5,2957.33 1030.5,2957C 1025.31,2957.09 1022.31,2956.59 1021.5,2955.5C 1021.57,2950.07 1018.91,2946.9 1013.5,2946C 993.167,2945.67 972.833,2945.33 952.5,2945C 955.376,2944.56 958.043,2943.56 960.5,2942C 958.659,2938.37 955.659,2936.37 951.5,2936C 935.564,2934.19 919.564,2933.19 903.5,2933C 903.167,2932.67 902.833,2932.33 902.5,2932C 904.211,2930.87 904.711,2929.37 904,2927.5C 902.421,2925.96 900.587,2924.79 898.5,2924C 885.547,2922.77 872.547,2922.1 859.5,2922C 863.501,2917.82 862.168,2914.49 855.5,2912C 843.881,2910.78 832.215,2910.11 820.5,2910C 820.813,2904.31 818.146,2900.98 812.5,2900C 799.786,2899.9 787.12,2899.23 774.5,2898C 778.695,2896.62 779.362,2894.29 776.5,2891C 772.943,2889.59 769.276,2888.59 765.5,2888C 756.5,2887.67 747.5,2887.33 738.5,2887C 743.556,2884.27 743.556,2881.27 738.5,2878C 728.873,2876.86 719.206,2875.86 709.5,2875C 710.167,2874.67 710.833,2874.33 711.5,2874C 710.167,2873.33 710.167,2872.67 711.5,2872C 710.931,2869.1 709.265,2867.1 706.5,2866C 696.225,2864.77 685.892,2864.1 675.5,2864C 679.424,2861.18 679.424,2858.18 675.5,2855C 665.599,2853.09 655.599,2852.26 645.5,2852.5C 647.029,2848.59 646.029,2845.42 642.5,2843C 635.219,2841.94 627.886,2841.11 620.5,2840.5C 620.92,2837.85 620.42,2835.18 619,2832.5C 611.425,2829.89 603.592,2828.89 595.5,2829.5C 596.296,2825.32 594.963,2822.15 591.5,2820C 582.868,2818.88 574.202,2817.88 565.5,2817C 568.955,2815.1 569.288,2812.76 566.5,2810C 564.283,2808.72 561.949,2807.72 559.5,2807C 553.5,2806.67 547.5,2806.33 541.5,2806C 545.103,2801.77 544.103,2798.43 538.5,2796C 533.215,2794.97 527.882,2794.31 522.5,2794C 524.383,2788.44 522.383,2785.11 516.5,2784C 511.5,2783.67 506.5,2783.33 501.5,2783C 503.357,2778.8 502.357,2775.47 498.5,2773C 492.545,2771.93 486.545,2771.43 480.5,2771.5C 481.651,2766.51 479.984,2763.01 475.5,2761C 471.167,2760.67 466.833,2760.33 462.5,2760C 460.436,2758.98 460.102,2757.65 461.5,2756C 461.066,2753.68 460.066,2751.68 458.5,2750C 454.363,2748.94 450.196,2748.1 446,2747.5C 445.989,2744.34 445.155,2741.51 443.5,2739C 437.215,2737.9 430.881,2736.9 424.5,2736C 426.19,2732.47 425.524,2729.47 422.5,2727C 417.949,2725.79 413.282,2725.12 408.5,2725C 411.22,2721.12 410.554,2717.79 406.5,2715C 401.59,2714.81 396.924,2713.81 392.5,2712C 395.223,2709.83 394.89,2707.5 391.5,2705C 387.454,2702.83 383.121,2701.99 378.5,2702.5C 379.586,2692.75 375.253,2688.59 365.5,2690C 365.793,2687.27 365.293,2684.43 364,2681.5C 363.5,2681 363,2680.5 362.5,2680C 359.5,2679.67 356.5,2679.33 353.5,2679C 352.957,2675.53 351.957,2672.19 350.5,2669C 347.538,2667.44 344.538,2667.27 341.5,2668.5C 340.676,2665.22 340.176,2661.88 340,2658.5C 339.5,2658 339,2657.5 338.5,2657C 336.109,2656.71 333.776,2656.21 331.5,2655.5C 330.188,2656.46 328.854,2656.29 327.5,2655C 328.83,2652.12 328.664,2649.29 327,2646.5C 323.397,2644.87 319.563,2644.04 315.5,2644C 317.865,2636.19 314.865,2632.69 306.5,2633.5C 306.891,2629.62 306.224,2625.95 304.5,2622.5C 301.634,2621.79 298.8,2621.13 296,2620.5C 295.754,2617.11 295.254,2613.78 294.5,2610.5C 291.167,2609.83 287.833,2609.17 284.5,2608.5C 284.05,2605.8 283.55,2602.8 283,2599.5C 279.797,2598.69 276.631,2597.69 273.5,2596.5C 272.618,2593.21 271.952,2589.88 271.5,2586.5C 270.325,2586.72 269.325,2586.39 268.5,2585.5C 269.983,2582.59 269.65,2579.92 267.5,2577.5C 265.314,2576.78 263.147,2576.11 261,2575.5C 260.667,2575.83 260.333,2576.17 260,2576.5C 259.501,2572.18 259.334,2567.85 259.5,2563.5C 255.484,2564.1 251.984,2563.1 249,2560.5C 247.57,2553.73 247.07,2547.07 247.5,2540.5C 244.07,2540.89 240.904,2540.23 238,2538.5C 236.902,2532.04 236.069,2525.54 235.5,2519C 232.438,2517.32 229.272,2515.82 226,2514.5C 224.336,2509.37 224.169,2504.2 225.5,2499C 224.251,2493.42 222.751,2487.92 221,2482.5C 220.085,2483.33 219.419,2484.33 219,2485.5C 218.5,2329.5 218.333,2173.5 218.5,2017.5 Z"/></g>
</svg>
