<svg xmlns="http://www.w3.org/2000/svg" version="1.1" width="3000px" height="3000px" style="shape-rendering:geometricPrecision; text-rendering:geometricPrecision; image-rendering:optimizeQuality; fill-rule:evenodd; clip-rule:evenodd" xmlns:xlink="http://www.w3.org/1999/xlink">
<g><path style="opacity:0.998" fill="#000000" d="M 2070.5,584.5 C 2098.85,585.751 2127.18,587.251 2155.5,589C 2161.71,590.773 2167.71,593.106 2173.5,596C 2180.89,596.636 2188.22,597.636 2195.5,599C 2198.17,601 2200.83,603 2203.5,605C 2209.45,606.547 2215.45,607.881 2221.5,609C 2227.07,614.452 2233.74,617.786 2241.5,619C 2245.88,624.365 2251.54,627.698 2258.5,629C 2260.4,630.815 2262.07,632.815 2263.5,635C 2266.95,636.03 2270.28,637.363 2273.5,639C 2299.84,663.024 2325.68,687.19 2351,711.5C 2352.82,717.81 2356.15,723.143 2361,727.5C 2362,729.833 2363,732.167 2364,734.5C 2369.63,738.4 2373.29,743.733 2375,750.5C 2377,752.5 2379,754.5 2381,756.5C 2381.8,759.244 2382.8,761.911 2384,764.5C 2389.81,767.884 2393.47,772.884 2395,779.5C 2400.26,783.923 2403.26,789.589 2404,796.5C 2406,799.167 2408,801.833 2410,804.5C 2411.46,809.469 2412.79,814.469 2414,819.5C 2415.51,822.524 2417.51,825.191 2420,827.5C 2421.33,832.833 2422.67,838.167 2424,843.5C 2425.63,846.128 2427.63,848.461 2430,850.5C 2431.33,855.833 2432.67,861.167 2434,866.5C 2436.37,868.539 2438.37,870.872 2440,873.5C 2441.42,881.154 2442.75,888.821 2444,896.5C 2447.05,899.942 2449.05,903.942 2450,908.5C 2451.2,916.137 2452.2,923.803 2453,931.5C 2455.79,936.626 2458.12,941.959 2460,947.5C 2461,955.167 2462,962.833 2463,970.5C 2465.02,975.207 2467.02,979.874 2469,984.5C 2470.72,1001.47 2472.05,1018.47 2473,1035.5C 2474.8,1042.55 2476.8,1049.55 2479,1056.5C 2483.21,1117.46 2483.88,1178.46 2481,1239.5C 2480.66,1245.54 2480,1251.54 2479,1257.5C 2473.65,1269.59 2470.65,1282.25 2470,1295.5C 2468.52,1299.13 2466.52,1302.47 2464,1305.5C 2462.52,1313.21 2460.85,1320.88 2459,1328.5C 2456.63,1330.54 2454.63,1332.87 2453,1335.5C 2453.06,1343.36 2450.06,1349.69 2444,1354.5C 2442.67,1359.17 2441.33,1363.83 2440,1368.5C 2437.96,1370.87 2435.63,1372.87 2433,1374.5C 2431.89,1379.73 2429.05,1383.73 2424.5,1386.5C 2423.1,1389.88 2421.6,1393.21 2420,1396.5C 2415.91,1399.92 2412.58,1403.92 2410,1408.5C 2397.19,1419.64 2384.36,1430.8 2371.5,1442C 2363.88,1442.98 2357.55,1446.31 2352.5,1452C 2345.63,1452.87 2339.63,1455.54 2334.5,1460C 2328.66,1461.9 2322.66,1462.9 2316.5,1463C 2286.5,1464.86 2256.5,1464.86 2226.5,1463C 2218.8,1462.66 2211.8,1460.32 2205.5,1456C 2199.21,1454.76 2192.88,1453.76 2186.5,1453C 2182.89,1451.73 2180.23,1449.39 2178.5,1446C 2170.42,1445.32 2163.75,1441.98 2158.5,1436C 2153.06,1434.23 2149.23,1430.73 2147,1425.5C 2142.7,1423.7 2139.53,1420.7 2137.5,1416.5C 2131.56,1411.9 2126.06,1406.9 2121,1401.5C 2119.42,1395.33 2116.08,1390.33 2111,1386.5C 2109.83,1382.49 2108.67,1378.49 2107.5,1374.5C 2105.18,1372.68 2103.02,1370.68 2101,1368.5C 2099.77,1362.81 2098.44,1357.14 2097,1351.5C 2094.47,1347.78 2092.47,1343.78 2091,1339.5C 2090.05,1327.85 2087.72,1316.52 2084,1305.5C 2082.61,1299.56 2081.61,1293.56 2081,1287.5C 2079.77,1247.51 2078.77,1207.51 2078,1167.5C 2076.41,1159.4 2074.41,1151.4 2072,1143.5C 2070.89,1133.8 2069.55,1124.13 2068,1114.5C 2064.6,1108.75 2061.6,1102.75 2059,1096.5C 2053.45,1090.95 2047.95,1085.45 2042.5,1080C 2021.38,1076.36 2000.38,1076.7 1979.5,1081C 1977.83,1082.67 1976.17,1084.33 1974.5,1086C 1969.44,1087.51 1964.44,1089.18 1959.5,1091C 1957.35,1095.15 1954.01,1097.82 1949.5,1099C 1947.11,1103.05 1943.78,1106.05 1939.5,1108C 1937.35,1112.65 1934.02,1116.15 1929.5,1118.5C 1928.39,1120.39 1927.56,1122.39 1927,1124.5C 1921.45,1129.89 1916.12,1135.56 1911,1141.5C 1909.23,1148.03 1905.73,1153.36 1900.5,1157.5C 1899.53,1165.27 1896.03,1171.6 1890,1176.5C 1888.82,1180.22 1887.49,1183.88 1886,1187.5C 1880.29,1193.27 1877.29,1200.27 1877,1208.5C 1874.28,1211.56 1871.94,1214.89 1870,1218.5C 1869.21,1223.22 1868.21,1227.89 1867,1232.5C 1863.92,1235.66 1861.58,1239.33 1860,1243.5C 1859.19,1249.2 1858.19,1254.87 1857,1260.5C 1854.23,1264.94 1851.89,1269.61 1850,1274.5C 1849.24,1280.88 1848.24,1287.21 1847,1293.5C 1844.12,1297.93 1841.79,1302.6 1840,1307.5C 1839.24,1316.53 1838.24,1325.53 1837,1334.5C 1834.46,1338.91 1832.46,1343.58 1831,1348.5C 1829.73,1359.51 1828.39,1370.51 1827,1381.5C 1825,1386.17 1823,1390.83 1821,1395.5C 1819.83,1405.15 1818.83,1414.81 1818,1424.5C 1816.22,1431.38 1813.89,1438.05 1811,1444.5C 1810,1460.83 1809,1477.17 1808,1493.5C 1806.46,1504.67 1804.12,1515.67 1801,1526.5C 1799.92,1546.16 1798.92,1565.83 1798,1585.5C 1794.71,1611.98 1792.21,1638.48 1790.5,1665C 1794.91,1720.38 1798.41,1775.88 1801,1831.5C 1802.48,1838.79 1804.81,1845.79 1808,1852.5C 1808.94,1861.17 1809.94,1869.84 1811,1878.5C 1812.74,1882.98 1814.74,1887.32 1817,1891.5C 1818.24,1898.53 1819.57,1905.53 1821,1912.5C 1823,1915.17 1825,1917.83 1827,1920.5C 1827.8,1929.92 1831.14,1938.25 1837,1945.5C 1838.25,1949.77 1839.25,1954.1 1840,1958.5C 1842.25,1960.82 1844.58,1963.15 1847,1965.5C 1849.08,1971.33 1852.41,1976.33 1857,1980.5C 1858.29,1986.1 1861.29,1990.43 1866,1993.5C 1869.37,1999.54 1873.53,2005.04 1878.5,2010C 1882.97,2011.97 1886.3,2015.14 1888.5,2019.5C 1893.45,2020.94 1897.45,2023.78 1900.5,2028C 1905.17,2029.33 1909.83,2030.67 1914.5,2032C 1918.11,2035.64 1922.44,2037.97 1927.5,2039C 1942.75,2040.15 1957.92,2041.65 1973,2043.5C 1995.77,2041.55 2018.6,2039.72 2041.5,2038C 2053.86,2032.26 2066.86,2028.93 2080.5,2028C 2089.04,2021.77 2098.71,2018.77 2109.5,2019C 2114.41,2017.07 2119.08,2014.74 2123.5,2012C 2131.21,2010.91 2138.88,2009.58 2146.5,2008C 2149.85,2005.97 2153.19,2003.97 2156.5,2002C 2163.14,2000.84 2169.81,1999.84 2176.5,1999C 2180.99,1996.92 2185.33,1994.59 2189.5,1992C 2196.5,1991 2203.5,1990 2210.5,1989C 2214.71,1986.4 2219.04,1984.06 2223.5,1982C 2231.82,1980.88 2240.15,1979.88 2248.5,1979C 2254.78,1975.68 2261.45,1973.35 2268.5,1972C 2298.82,1970.47 2329.15,1970.13 2359.5,1971C 2363.25,1971.26 2366.92,1971.93 2370.5,1973C 2375.25,1977.54 2380.92,1980.21 2387.5,1981C 2390.46,1982.96 2393.13,1985.29 2395.5,1988C 2399.29,1989.39 2402.95,1991.06 2406.5,1993C 2414.34,2000.5 2421.84,2008.34 2429,2016.5C 2430.9,2023.29 2434.56,2028.96 2440,2033.5C 2441.78,2040.4 2445.12,2046.4 2450,2051.5C 2451.33,2057.5 2452.67,2063.5 2454,2069.5C 2456.43,2072.93 2458.43,2076.6 2460,2080.5C 2461.93,2106.16 2461.93,2131.83 2460,2157.5C 2457.95,2163.27 2455.62,2168.94 2453,2174.5C 2452.33,2181.22 2451.33,2187.89 2450,2194.5C 2448.57,2197.92 2446.41,2200.76 2443.5,2203C 2442.39,2208.18 2441.22,2213.35 2440,2218.5C 2434.59,2223.32 2431.26,2229.32 2430,2236.5C 2428.32,2238.35 2426.48,2240.02 2424.5,2241.5C 2422.76,2247.99 2419.26,2253.32 2414,2257.5C 2411.84,2262.67 2408.51,2267 2404,2270.5C 2402.33,2273.17 2400.67,2275.83 2399,2278.5C 2390.53,2287.73 2381.86,2296.73 2373,2305.5C 2368.4,2310.89 2363.9,2316.39 2359.5,2322C 2357.83,2322.83 2356.17,2323.67 2354.5,2324.5C 2352.21,2329.29 2348.55,2332.45 2343.5,2334C 2341.83,2336.33 2340.17,2338.67 2338.5,2341C 2331.83,2345.67 2325.17,2350.33 2318.5,2355C 2312.94,2360.58 2307.27,2365.92 2301.5,2371C 2298.79,2372.07 2296.13,2373.24 2293.5,2374.5C 2289.33,2380.29 2283.66,2383.79 2276.5,2385C 2272.35,2390.17 2267.01,2393.5 2260.5,2395C 2256.24,2399.92 2250.91,2403.09 2244.5,2404.5C 2243.02,2406.48 2241.35,2408.32 2239.5,2410C 2232.6,2411.78 2226.6,2415.12 2221.5,2420C 2216.59,2421.65 2211.59,2422.99 2206.5,2424C 2203.87,2425.63 2201.54,2427.63 2199.5,2430C 2194.89,2431.21 2190.22,2432.21 2185.5,2433C 2181.89,2434.94 2178.56,2437.28 2175.5,2440C 2166.54,2440.51 2158.87,2443.85 2152.5,2450C 2146.21,2451.24 2139.88,2452.24 2133.5,2453C 2128.65,2455.59 2123.65,2457.92 2118.5,2460C 2111.18,2461.07 2103.84,2462.07 2096.5,2463C 2092.08,2465.74 2087.41,2468.07 2082.5,2470C 2068.52,2471.29 2054.52,2472.29 2040.5,2473C 2031.17,2475 2021.83,2477 2012.5,2479C 2001.83,2479.67 1991.17,2479.67 1980.5,2479C 1949.99,2474.42 1919.32,2471.42 1888.5,2470C 1881.62,2468.22 1874.95,2465.89 1868.5,2463C 1858.81,2462.17 1849.15,2461.17 1839.5,2460C 1836.23,2458.39 1833.23,2456.39 1830.5,2454C 1823.12,2452.55 1815.79,2450.88 1808.5,2449C 1806.69,2446.6 1804.36,2444.93 1801.5,2444C 1795.2,2442.56 1788.86,2441.23 1782.5,2440C 1776.19,2434.51 1768.86,2431.18 1760.5,2430C 1756.67,2424.42 1751.34,2421.42 1744.5,2421C 1741.87,2419.37 1739.54,2417.37 1737.5,2415C 1733.31,2412.94 1728.98,2411.27 1724.5,2410C 1720.36,2404.95 1715.03,2401.95 1708.5,2401C 1706.13,2398.96 1704.13,2396.63 1702.5,2394C 1697.06,2392.89 1693.06,2389.89 1690.5,2385C 1683.63,2383.3 1678.3,2379.46 1674.5,2373.5C 1669.52,2372.35 1665.86,2369.52 1663.5,2365C 1657.83,2363.34 1653.49,2360 1650.5,2355C 1645.88,2352.72 1642.22,2349.38 1639.5,2345C 1628.12,2336.07 1617.28,2326.57 1607,2316.5C 1598.53,2306.9 1590.53,2296.9 1583,2286.5C 1578.52,2284.02 1575.52,2280.36 1574,2275.5C 1568.39,2273.4 1565.23,2269.4 1564.5,2263.5C 1561.74,2263.26 1559.57,2261.92 1558,2259.5C 1555.81,2253.12 1552.15,2247.79 1547,2243.5C 1546.22,2237.59 1543.22,2233.26 1538,2230.5C 1536.42,2224.33 1533.08,2219.33 1528,2215.5C 1526.99,2209.47 1523.99,2204.8 1519,2201.5C 1517.39,2193.66 1513.73,2187 1508,2181.5C 1506.83,2174.83 1503.83,2169.16 1499,2164.5C 1497.51,2160.88 1496.18,2157.22 1495,2153.5C 1489.02,2148.21 1485.69,2141.54 1485,2133.5C 1482.67,2129.83 1480.33,2126.17 1478,2122.5C 1477,2118.17 1476,2113.83 1475,2109.5C 1472.67,2106.17 1470.33,2102.83 1468,2099.5C 1467.88,2091.46 1464.88,2084.79 1459,2079.5C 1457.67,2072.83 1456.33,2066.17 1455,2059.5C 1453.25,2056.33 1451.25,2053.33 1449,2050.5C 1447.67,2043.83 1446.33,2037.17 1445,2030.5C 1443.25,2027.33 1441.25,2024.33 1439,2021.5C 1437.67,2013.51 1436.33,2005.51 1435,1997.5C 1432.57,1994.07 1430.57,1990.4 1429,1986.5C 1427.93,1977.12 1426.6,1967.79 1425,1958.5C 1422.73,1954.96 1420.73,1951.29 1419,1947.5C 1417.81,1936.19 1416.81,1924.85 1416,1913.5C 1413.05,1905.67 1410.72,1897.67 1409,1889.5C 1407.92,1876.84 1406.92,1864.17 1406,1851.5C 1403.06,1843.68 1400.73,1835.68 1399,1827.5C 1396,1789.46 1392.66,1751.46 1389,1713.5C 1388.08,1654.82 1388.41,1596.15 1390,1537.5C 1391.59,1528.74 1393.59,1520.08 1396,1511.5C 1397,1492.81 1398.33,1474.14 1400,1455.5C 1405.56,1436.93 1408.56,1417.93 1409,1398.5C 1411.05,1392.07 1413.38,1385.73 1416,1379.5C 1417,1369.17 1418,1358.83 1419,1348.5C 1421.05,1342.07 1423.38,1335.73 1426,1329.5C 1426.67,1320.12 1427.67,1310.79 1429,1301.5C 1431.74,1297.08 1434.07,1292.41 1436,1287.5C 1436.78,1280.13 1437.78,1272.8 1439,1265.5C 1440.73,1261.71 1442.73,1258.04 1445,1254.5C 1446.45,1245.12 1448.12,1235.79 1450,1226.5C 1452.06,1224.1 1453.73,1221.43 1455,1218.5C 1456.17,1210.47 1457.5,1202.47 1459,1194.5C 1460.75,1190.67 1462.75,1187.01 1465,1183.5C 1466.33,1177.5 1467.67,1171.5 1469,1165.5C 1471.77,1163.4 1473.77,1160.73 1475,1157.5C 1476.01,1151.09 1477.35,1144.76 1479,1138.5C 1481,1135.83 1483,1133.17 1485,1130.5C 1485.91,1125.15 1486.91,1119.81 1488,1114.5C 1489.9,1110.26 1492.24,1106.26 1495,1102.5C 1495.91,1097.15 1496.91,1091.81 1498,1086.5C 1500.58,1083 1502.92,1079.34 1505,1075.5C 1505.64,1066.89 1508.98,1059.56 1515,1053.5C 1516,1049.5 1517,1045.5 1518,1041.5C 1520.33,1038.5 1522.67,1035.5 1525,1032.5C 1525.33,1024.83 1528.33,1018.5 1534,1013.5C 1535.21,1008.47 1536.54,1003.47 1538,998.5C 1539.67,996.833 1541.33,995.167 1543,993.5C 1544.97,988.272 1546.64,982.938 1548,977.5C 1549.67,975.833 1551.33,974.167 1553,972.5C 1554.7,967.053 1556.7,961.72 1559,956.5C 1560.67,955.167 1562.33,953.833 1564,952.5C 1564.95,945.986 1567.95,940.653 1573,936.5C 1574.94,932.952 1576.61,929.286 1578,925.5C 1583.05,921.401 1586.05,916.067 1587,909.5C 1589.02,907.316 1591.18,905.316 1593.5,903.5C 1594.77,900.204 1595.93,896.871 1597,893.5C 1602.03,889.287 1605.36,883.953 1607,877.5C 1612.12,872.921 1615.46,867.254 1617,860.5C 1622.67,854.5 1628.33,848.5 1634,842.5C 1635.18,837.986 1637.85,834.653 1642,832.5C 1643.33,829.833 1644.67,827.167 1646,824.5C 1651.61,817.605 1657.44,810.939 1663.5,804.5C 1665.11,799.896 1668.11,796.562 1672.5,794.5C 1674.01,789.163 1677.17,785.163 1682,782.5C 1683.51,778.319 1685.85,774.652 1689,771.5C 1707.59,752.245 1726.75,733.745 1746.5,716C 1750.53,715.573 1753.03,713.406 1754,709.5C 1756.03,707.263 1758.53,705.763 1761.5,705C 1763.17,702.667 1764.83,700.333 1766.5,698C 1768.83,697 1771.17,696 1773.5,695C 1777.2,688.975 1782.54,685.141 1789.5,683.5C 1792.27,678.948 1796.27,676.115 1801.5,675C 1803.5,672.667 1805.5,670.333 1807.5,668C 1813.15,666.508 1817.82,663.508 1821.5,659C 1824.99,657.209 1828.66,655.876 1832.5,655C 1837.09,649.199 1843.09,645.699 1850.5,644.5C 1852.32,642.183 1854.32,640.016 1856.5,638C 1864.26,636.786 1870.93,633.452 1876.5,628C 1884.48,627.688 1891.14,624.688 1896.5,619C 1901.47,617.54 1906.47,616.206 1911.5,615C 1913.79,613.71 1915.79,612.043 1917.5,610C 1924.69,607.925 1932.02,606.592 1939.5,606C 1943.83,603.667 1948.17,601.333 1952.5,599C 1961.83,597.667 1971.17,596.333 1980.5,595C 1985.95,592.405 1991.62,590.405 1997.5,589C 2022.01,587.805 2046.34,586.305 2070.5,584.5 Z"/></g>
<g><path style="opacity:0.997" fill="#000000" d="M 845.5,593.5 C 853.809,593.811 861.809,595.645 869.5,599C 872,602.833 875.167,606 879,608.5C 880.069,611.208 881.236,613.875 882.5,616.5C 884.817,618.316 886.984,620.316 889,622.5C 890.128,627.139 891.128,631.805 892,636.5C 894.752,639.578 897.086,642.911 899,646.5C 900,653.5 901,660.5 902,667.5C 904.59,672.349 906.924,677.349 909,682.5C 909.232,696.81 912.232,710.477 918,723.5C 919.522,736.812 920.856,750.145 922,763.5C 924.205,771.115 926.205,778.782 928,786.5C 929.365,802.807 930.365,819.141 931,835.5C 932.542,846.668 934.875,857.668 938,868.5C 939.388,887.81 940.388,907.143 941,926.5C 941.994,934.798 943.494,942.965 945.5,951C 948.833,951.667 952.167,951.667 955.5,951C 960.307,944.945 966.641,941.945 974.5,942C 978.11,940.056 981.443,937.723 984.5,935C 991.086,933.771 997.419,931.771 1003.5,929C 1004.83,927.667 1006.17,926.333 1007.5,925C 1012.81,923.908 1018.15,922.908 1023.5,922C 1026.77,920.392 1029.77,918.392 1032.5,916C 1038.73,914.205 1045.06,912.872 1051.5,912C 1054.73,910.77 1057.4,908.77 1059.5,906C 1066.83,904.333 1074.17,902.667 1081.5,901C 1083.71,897.793 1086.71,895.793 1090.5,895C 1097.51,894.082 1104.51,893.082 1111.5,892C 1115.04,889.731 1118.71,887.731 1122.5,886C 1130.82,884.585 1139.15,883.252 1147.5,882C 1151.04,879.731 1154.71,877.731 1158.5,876C 1167.47,874.47 1176.47,873.136 1185.5,872C 1190.39,869.723 1195.39,867.723 1200.5,866C 1232.8,863.219 1265.14,862.885 1297.5,865C 1298.5,865.333 1299.5,865.667 1300.5,866C 1304.36,870.625 1308.86,874.458 1314,877.5C 1317.26,892.457 1317.26,907.457 1314,922.5C 1312.36,925.311 1310.19,927.644 1307.5,929.5C 1306.17,934.825 1303.34,939.159 1299,942.5C 1297.41,944.67 1296.08,947.004 1295,949.5C 1290.25,953.578 1286.25,958.245 1283,963.5C 1263.41,982.092 1243.58,1000.26 1223.5,1018C 1218.9,1019.61 1215.56,1022.61 1213.5,1027C 1211.16,1028.17 1208.82,1029.34 1206.5,1030.5C 1204.24,1035.26 1200.57,1038.43 1195.5,1040C 1193.17,1042.33 1190.83,1044.67 1188.5,1047C 1185.42,1048.14 1182.42,1049.47 1179.5,1051C 1176.94,1055.89 1172.94,1058.89 1167.5,1060C 1164.32,1065.51 1159.65,1069.18 1153.5,1071C 1150.09,1075.88 1145.42,1079.05 1139.5,1080.5C 1137.14,1085.69 1133.14,1088.85 1127.5,1090C 1124.51,1095 1120.17,1098.34 1114.5,1100C 1110.32,1105.26 1104.99,1108.76 1098.5,1110.5C 1096.01,1115.42 1092.01,1118.42 1086.5,1119.5C 1082.68,1125.25 1077.34,1128.75 1070.5,1130C 1069.21,1132.29 1067.54,1134.29 1065.5,1136C 1062.58,1136.41 1060.25,1137.74 1058.5,1140C 1062.12,1142.32 1065.12,1145.32 1067.5,1149C 1070.09,1150.2 1072.76,1151.2 1075.5,1152C 1077.66,1156.83 1081.33,1159.83 1086.5,1161C 1090.38,1166.21 1095.38,1169.88 1101.5,1172C 1104.28,1176.78 1108.28,1180.11 1113.5,1182C 1116.28,1186.78 1120.28,1190.11 1125.5,1192C 1127.08,1193.83 1128.41,1195.83 1129.5,1198C 1136.19,1202.7 1142.86,1207.37 1149.5,1212C 1151.95,1216.45 1155.62,1219.45 1160.5,1221C 1163.07,1223.07 1165.07,1225.57 1166.5,1228.5C 1171.86,1229.69 1175.53,1232.86 1177.5,1238C 1182.77,1239.6 1186.43,1242.93 1188.5,1248C 1190.09,1248.86 1191.75,1249.53 1193.5,1250C 1214.2,1269.02 1234.7,1288.52 1255,1308.5C 1259.33,1313.83 1263.67,1319.17 1268,1324.5C 1272.75,1327.42 1276.25,1331.42 1278.5,1336.5C 1282.96,1338.46 1285.79,1341.79 1287,1346.5C 1291.78,1349.28 1295.11,1353.28 1297,1358.5C 1299.33,1360.83 1301.67,1363.17 1304,1365.5C 1304.79,1372.39 1307.79,1378.06 1313,1382.5C 1317.99,1399.31 1318.66,1416.31 1315,1433.5C 1314.39,1436.55 1312.89,1439.05 1310.5,1441C 1304.38,1443.42 1298.05,1445.09 1291.5,1446C 1283.53,1451.13 1274.86,1452.8 1265.5,1451C 1247.77,1446.42 1229.77,1443.42 1211.5,1442C 1207.22,1440.53 1203.22,1438.53 1199.5,1436C 1192.44,1434.94 1185.44,1433.61 1178.5,1432C 1176.04,1429.75 1173.37,1427.75 1170.5,1426C 1164.14,1424.77 1157.8,1423.44 1151.5,1422C 1148.83,1420 1146.17,1418 1143.5,1416C 1137.45,1414.88 1131.45,1413.55 1125.5,1412C 1118.3,1406.11 1109.97,1403.11 1100.5,1403C 1097.5,1400.67 1094.5,1398.33 1091.5,1396C 1087.17,1395 1082.83,1394 1078.5,1393C 1075.49,1390.62 1072.49,1388.29 1069.5,1386C 1065.17,1385 1060.83,1384 1056.5,1383C 1054.46,1380.63 1052.13,1378.63 1049.5,1377C 1044.53,1375.54 1039.53,1374.21 1034.5,1373C 1028.44,1366.98 1021.11,1363.64 1012.5,1363C 1006.9,1356.87 999.9,1353.53 991.5,1353C 985.9,1346.87 978.9,1343.53 970.5,1343C 965.382,1336.44 958.715,1333.77 950.5,1335C 949.227,1355.44 948.061,1375.94 947,1396.5C 944.679,1407.12 942.679,1417.78 941,1428.5C 940.36,1448.19 939.36,1467.85 938,1487.5C 936.317,1496.9 934.317,1506.23 932,1515.5C 930.819,1529.18 929.486,1542.85 928,1556.5C 926.277,1561.61 924.277,1566.61 922,1571.5C 921.061,1580.9 919.727,1590.23 918,1599.5C 916.269,1603.29 914.269,1606.96 912,1610.5C 910.854,1617.48 909.854,1624.48 909,1631.5C 906.698,1635.15 904.364,1638.81 902,1642.5C 901.921,1650.88 898.587,1657.54 892,1662.5C 889.027,1669.15 884.86,1674.98 879.5,1680C 874.295,1681.77 869.962,1684.77 866.5,1689C 854.175,1690.98 841.842,1690.98 829.5,1689C 825.356,1683.93 820.023,1680.93 813.5,1680C 808.325,1674.12 802.825,1668.62 797,1663.5C 795.181,1657.19 791.848,1651.86 787,1647.5C 785.253,1640.01 781.92,1633.34 777,1627.5C 775.785,1622.21 774.785,1616.88 774,1611.5C 767.319,1603.49 763.985,1594.15 764,1583.5C 762.527,1579.22 760.527,1575.22 758,1571.5C 756.207,1561.9 754.873,1552.24 754,1542.5C 750.289,1537.41 747.956,1531.74 747,1525.5C 745.967,1510.5 744.967,1495.5 744,1480.5C 741.253,1470.93 738.919,1461.26 737,1451.5C 736.492,1423.22 733.492,1395.22 728,1367.5C 727.315,1356.84 726.815,1346.17 726.5,1335.5C 724.04,1335.7 721.707,1336.37 719.5,1337.5C 718.018,1339.48 716.351,1341.32 714.5,1343C 709.617,1344.07 704.95,1345.74 700.5,1348C 699.743,1349.51 698.743,1350.85 697.5,1352C 692.556,1353.99 687.556,1355.82 682.5,1357.5C 681.018,1359.48 679.351,1361.32 677.5,1363C 669.376,1363.69 662.71,1367.02 657.5,1373C 648.959,1373.29 641.959,1376.62 636.5,1383C 632.465,1383.87 628.465,1384.87 624.5,1386C 621.5,1388.33 618.5,1390.67 615.5,1393C 611.465,1393.87 607.465,1394.87 603.5,1396C 600.5,1398.33 597.5,1400.67 594.5,1403C 590.167,1404 585.833,1405 581.5,1406C 577.739,1408.76 573.739,1411.1 569.5,1413C 560.602,1413.13 552.935,1416.13 546.5,1422C 540.5,1423.33 534.5,1424.67 528.5,1426C 525.228,1427.61 522.228,1429.61 519.5,1432C 513.5,1433.33 507.5,1434.67 501.5,1436C 498.567,1437.27 495.901,1438.94 493.5,1441C 484.96,1443.06 476.293,1444.39 467.5,1445C 462.416,1447.54 457.083,1449.54 451.5,1451C 434.865,1452.54 418.199,1452.87 401.5,1452C 397.248,1451.54 393.915,1449.54 391.5,1446C 385.017,1444.84 379.184,1442.34 374,1438.5C 370.38,1433.21 366.38,1428.21 362,1423.5C 359.087,1406.58 358.754,1389.58 361,1372.5C 365.705,1365.76 369.372,1358.42 372,1350.5C 376.574,1346.36 379.907,1341.36 382,1335.5C 384.039,1333.13 386.372,1331.13 389,1329.5C 390.91,1324.09 394.41,1320.09 399.5,1317.5C 400.658,1313.18 403.325,1310.34 407.5,1309C 410,1303.83 413.833,1300 419,1297.5C 421,1292.83 424.333,1289.5 429,1287.5C 430.726,1282.94 433.892,1279.94 438.5,1278.5C 440.892,1273.77 444.559,1270.44 449.5,1268.5C 451.695,1264.14 455.028,1260.97 459.5,1259C 463.635,1253.86 468.635,1249.86 474.5,1247C 477.753,1242.41 482.086,1239.41 487.5,1238C 489.67,1232.5 493.67,1229.17 499.5,1228C 503.179,1222.65 508.179,1218.98 514.5,1217C 517.55,1212.78 521.55,1209.94 526.5,1208.5C 528.89,1203.27 532.89,1200.11 538.5,1199C 541.859,1193.15 546.859,1189.48 553.5,1188C 556.753,1183.41 561.086,1180.41 566.5,1179C 568.5,1176.67 570.5,1174.33 572.5,1172C 578.856,1170.31 584.189,1166.98 588.5,1162C 591.244,1161.2 593.911,1160.2 596.5,1159C 599.411,1153.26 604.078,1150.09 610.5,1149.5C 612.557,1145.75 611.891,1142.25 608.5,1139C 602.84,1138.17 598.507,1135.34 595.5,1130.5C 592.034,1128.51 588.368,1127.01 584.5,1126C 582.457,1124.29 580.79,1122.29 579.5,1120C 573.618,1118.56 568.951,1115.4 565.5,1110.5C 558.772,1108.81 553.438,1105.14 549.5,1099.5C 543.739,1098.46 539.739,1095.3 537.5,1090C 532.086,1088.59 527.753,1085.59 524.5,1081C 518.179,1079.02 513.179,1075.35 509.5,1070C 503.715,1068.55 499.381,1065.21 496.5,1060C 491.086,1058.59 486.753,1055.59 483.5,1051C 477.194,1048.86 472.194,1045.03 468.5,1039.5C 463.559,1037.56 459.892,1034.23 457.5,1029.5C 452.92,1027.92 449.587,1024.92 447.5,1020.5C 442.75,1018.58 439.083,1015.42 436.5,1011C 435.167,1010.33 433.833,1009.67 432.5,1009C 417.998,994.831 403.831,980.331 390,965.5C 389.598,964.128 389.098,962.795 388.5,961.5C 383.304,959.134 380.137,955.134 379,949.5C 372.075,944.086 368.575,936.92 368.5,928C 364.64,924.781 362.473,920.614 362,915.5C 361.333,908.833 361.333,902.167 362,895.5C 365.532,889.101 368.532,882.434 371,875.5C 375.133,872.369 378.966,868.869 382.5,865C 387.637,863.6 391.971,860.933 395.5,857C 397.788,856.178 400.122,855.511 402.5,855C 428.202,854.057 453.869,854.39 479.5,856C 484.032,857.522 488.365,859.522 492.5,862C 499.776,863.364 507.109,864.364 514.5,865C 519.124,866.31 523.124,868.644 526.5,872C 532.45,873.279 538.45,874.279 544.5,875C 548.739,876.902 552.739,879.235 556.5,882C 562.484,883.093 568.484,884.093 574.5,885C 578.739,886.902 582.739,889.235 586.5,892C 592.244,893.013 597.911,894.346 603.5,896C 605.601,898.77 608.268,900.77 611.5,902C 616.615,902.955 621.615,904.289 626.5,906C 628.539,908.374 630.872,910.374 633.5,912C 638.167,913 642.833,914 647.5,915C 649.539,917.374 651.872,919.374 654.5,921C 659.768,922.587 665.101,923.92 670.5,925C 675.792,930.979 682.458,934.313 690.5,935C 695.961,940.607 702.628,943.94 710.5,945C 712.871,947.706 715.537,950.039 718.5,952C 720.81,952.497 723.143,952.663 725.5,952.5C 725.064,933.313 727.898,914.646 734,896.5C 735.044,884.504 736.044,872.504 737,860.5C 739.044,853.41 741.378,846.41 744,839.5C 745,828.833 746,818.167 747,807.5C 749.044,800.41 751.378,793.41 754,786.5C 754.898,776.156 755.898,765.822 757,755.5C 759.738,751.078 762.071,746.412 764,741.5C 764.854,734.476 765.854,727.476 767,720.5C 769.298,715.52 771.631,710.52 774,705.5C 774.721,699.45 775.721,693.45 777,687.5C 779.333,683.833 781.667,680.167 784,676.5C 784.723,671.104 785.723,665.771 787,660.5C 792.321,654.55 795.321,647.55 796,639.5C 797.23,636.268 799.23,633.601 802,631.5C 803.323,624.485 806.99,619.152 813,615.5C 814.433,610.402 817.6,606.902 822.5,605C 823.79,602.708 825.457,600.708 827.5,599C 833.665,597.344 839.665,595.511 845.5,593.5 Z"/></g>
</svg>
