<svg xmlns="http://www.w3.org/2000/svg" version="1.1" width="3000px" height="3000px" style="shape-rendering:geometricPrecision; text-rendering:geometricPrecision; image-rendering:optimizeQuality; fill-rule:evenodd; clip-rule:evenodd" xmlns:xlink="http://www.w3.org/1999/xlink">
<g><path style="opacity:0.998" fill="#000000" d="M 2092.5,555.5 C 2126.14,557.95 2159.8,560.117 2193.5,562C 2200.6,564.054 2207.6,566.387 2214.5,569C 2221.51,569.918 2228.51,570.918 2235.5,572C 2239.92,574.738 2244.59,577.071 2249.5,579C 2255.2,579.815 2260.87,580.815 2266.5,582C 2269.13,585.318 2272.47,587.651 2276.5,589C 2281.19,589.872 2285.86,590.872 2290.5,592C 2293.13,593.626 2295.46,595.626 2297.5,598C 2305.19,598.887 2311.52,602.22 2316.5,608C 2323.05,609.1 2328.05,612.433 2331.5,618C 2335.98,619.271 2340.31,620.938 2344.5,623C 2347.81,627.995 2352.48,630.995 2358.5,632C 2362.78,637.643 2368.45,640.976 2375.5,642C 2377.54,643.708 2379.21,645.708 2380.5,648C 2386.42,649.615 2390.75,653.115 2393.5,658.5C 2395.17,659.333 2396.83,660.167 2398.5,661C 2417.35,679.845 2436.85,698.011 2457,715.5C 2459.78,722.082 2463.78,727.748 2469,732.5C 2470,734.833 2471,737.167 2472,739.5C 2477.85,742.859 2481.52,747.859 2483,754.5C 2485.33,756.833 2487.67,759.167 2490,761.5C 2490.78,767.41 2493.78,771.743 2499,774.5C 2500.17,776.833 2501.33,779.167 2502.5,781.5C 2508.82,786.256 2512.65,792.589 2514,800.5C 2515.67,802.167 2517.33,803.833 2519,805.5C 2520.46,810.469 2521.79,815.469 2523,820.5C 2524.63,823.128 2526.63,825.461 2529,827.5C 2530.25,831.77 2531.25,836.104 2532,840.5C 2533.57,844.072 2535.9,847.072 2539,849.5C 2539.83,858.34 2543.16,866.006 2549,872.5C 2550.79,878.463 2552.46,884.463 2554,890.5C 2556.43,893.934 2558.43,897.6 2560,901.5C 2561,908.167 2562,914.833 2563,921.5C 2565,924.833 2567,928.167 2569,931.5C 2570.77,942.103 2572.11,952.77 2573,963.5C 2576.18,969.531 2578.52,975.864 2580,982.5C 2581.15,1008.57 2583.15,1034.57 2586,1060.5C 2586.67,1075.83 2586.67,1091.17 2586,1106.5C 2583.16,1131.76 2581.16,1157.1 2580,1182.5C 2578.48,1190.41 2576.14,1198.07 2573,1205.5C 2572.13,1214.18 2571.13,1222.85 2570,1231.5C 2568.21,1236.41 2565.88,1241.08 2563,1245.5C 2561.96,1254.22 2560.62,1262.88 2559,1271.5C 2556.75,1273.96 2554.75,1276.63 2553,1279.5C 2552.55,1289.66 2549.22,1298.66 2543,1306.5C 2541.77,1312.19 2540.44,1317.86 2539,1323.5C 2536.23,1325.6 2534.23,1328.27 2533,1331.5C 2532.69,1339.48 2529.69,1346.14 2524,1351.5C 2522.18,1356.44 2520.51,1361.44 2519,1366.5C 2513.74,1370.92 2510.74,1376.59 2510,1383.5C 2507.28,1386.56 2504.94,1389.89 2503,1393.5C 2501.97,1397.61 2500.64,1401.61 2499,1405.5C 2496.82,1406.93 2494.82,1408.6 2493,1410.5C 2491.98,1417.54 2488.65,1423.21 2483,1427.5C 2481.28,1430.67 2479.94,1434.01 2479,1437.5C 2477.62,1439.21 2475.96,1440.55 2474,1441.5C 2472.33,1445.83 2470.67,1450.17 2469,1454.5C 2467.29,1456.54 2465.29,1458.21 2463,1459.5C 2461.44,1464.65 2458.44,1468.65 2454,1471.5C 2451.72,1478.39 2447.72,1484.06 2442,1488.5C 2440.55,1494.29 2437.21,1498.62 2432,1501.5C 2431.53,1503.25 2430.86,1504.91 2430,1506.5C 2420.28,1517.38 2410.78,1528.38 2401.5,1539.5C 2399.56,1544.44 2396.23,1548.11 2391.5,1550.5C 2389.89,1555.1 2386.89,1558.44 2382.5,1560.5C 2379.97,1565.19 2376.31,1568.69 2371.5,1571C 2369.5,1575.67 2366.17,1579 2361.5,1581C 2359.5,1585.67 2356.17,1589 2351.5,1591C 2349.81,1595.36 2346.81,1598.36 2342.5,1600C 2340.08,1605.42 2336.08,1609.09 2330.5,1611C 2328,1616.76 2323.67,1620.43 2317.5,1622C 2314,1627.09 2309.33,1630.76 2303.5,1633C 2301.05,1637.45 2297.38,1640.45 2292.5,1642C 2290.83,1644.33 2289.17,1646.67 2287.5,1649C 2285.05,1649.72 2282.72,1650.72 2280.5,1652C 2277.12,1657.81 2272.12,1661.47 2265.5,1663C 2263.5,1665 2261.5,1667 2259.5,1669C 2256.76,1669.8 2254.09,1670.8 2251.5,1672C 2248.62,1677.21 2244.29,1680.55 2238.5,1682C 2233.99,1687.67 2228.16,1691.17 2221,1692.5C 2218.86,1694.64 2216.69,1696.81 2214.5,1699C 2207.41,1700.04 2201.75,1703.37 2197.5,1709C 2190.46,1710.02 2184.79,1713.35 2180.5,1719C 2176.39,1720.03 2172.39,1721.36 2168.5,1723C 2163.45,1728.53 2157.11,1731.53 2149.5,1732C 2145.93,1733.57 2142.93,1735.9 2140.5,1739C 2131.89,1739.64 2124.56,1742.98 2118.5,1749C 2112.81,1750.23 2107.14,1751.56 2101.5,1753C 2098.77,1755.39 2095.77,1757.39 2092.5,1759C 2086.87,1760.19 2081.2,1761.19 2075.5,1762C 2071.24,1763.93 2067.24,1766.27 2063.5,1769C 2055.5,1770.33 2047.5,1771.67 2039.5,1773C 2035.55,1775.81 2031.21,1777.81 2026.5,1779C 2017.53,1780.24 2008.53,1781.24 1999.5,1782C 1991.91,1785.75 1983.91,1788.08 1975.5,1789C 1960.85,1790.17 1946.18,1791 1931.5,1791.5C 1930.48,1849.85 1928.98,1908.18 1927,1966.5C 1925.11,1982.18 1923.11,1997.85 1921,2013.5C 1920.13,2031.17 1919.13,2048.84 1918,2066.5C 1916.45,2075.72 1914.11,2084.72 1911,2093.5C 1910.04,2110.2 1908.7,2126.87 1907,2143.5C 1904.8,2150.43 1902.8,2157.43 1901,2164.5C 1900,2173.5 1899,2182.5 1898,2191.5C 1896.5,2197.5 1894.17,2203.17 1891,2208.5C 1890.08,2218.24 1888.75,2227.91 1887,2237.5C 1881.03,2245.08 1878.03,2253.75 1878,2263.5C 1876.77,2266.73 1874.77,2269.4 1872,2271.5C 1870.21,2279.55 1868.21,2287.55 1866,2295.5C 1860.97,2299.22 1858.31,2304.22 1858,2310.5C 1856.39,2314.04 1854.06,2317.04 1851,2319.5C 1850.05,2326.01 1847.05,2331.35 1842,2335.5C 1840.33,2339.83 1838.67,2344.17 1837,2348.5C 1832.52,2350.98 1829.52,2354.64 1828,2359.5C 1826.02,2361.66 1823.69,2363.32 1821,2364.5C 1819.14,2369.69 1815.81,2373.69 1811,2376.5C 1803.54,2388.79 1793.37,2398.13 1780.5,2404.5C 1776.87,2410.48 1771.54,2413.65 1764.5,2414C 1760.89,2415.94 1757.56,2418.28 1754.5,2421C 1743.35,2421.83 1732.68,2424.5 1722.5,2429C 1699.71,2433.14 1677.38,2431.48 1655.5,2424C 1649.45,2423.28 1643.45,2422.28 1637.5,2421C 1631.43,2415.8 1624.43,2412.47 1616.5,2411C 1613.94,2406.11 1609.94,2403.11 1604.5,2402C 1602.38,2399.59 1600.38,2397.09 1598.5,2394.5C 1595.57,2393.45 1593.07,2391.79 1591,2389.5C 1588.37,2385.87 1585.37,2382.53 1582,2379.5C 1580.48,2374.64 1577.48,2370.98 1573,2368.5C 1572.28,2366.05 1571.28,2363.72 1570,2361.5C 1564.42,2357.57 1560.75,2352.23 1559,2345.5C 1553.64,2341.45 1550.31,2336.11 1549,2329.5C 1547.33,2327.83 1545.67,2326.17 1544,2324.5C 1542.41,2319.23 1541.08,2313.9 1540,2308.5C 1538,2305.83 1536,2303.17 1534,2300.5C 1532.29,2295.62 1530.96,2290.62 1530,2285.5C 1527.67,2281.83 1525.33,2278.17 1523,2274.5C 1521.78,2267.2 1520.78,2259.87 1520,2252.5C 1517.23,2248.06 1514.89,2243.39 1513,2238.5C 1511.81,2229.14 1510.48,2219.81 1509,2210.5C 1505.8,2204.91 1503.8,2198.91 1503,2192.5C 1501.88,2179.18 1500.88,2165.84 1500,2152.5C 1496.77,2140.68 1494.44,2128.68 1493,2116.5C 1491.7,2088.51 1490.7,2060.51 1490,2032.5C 1487.01,2005.22 1484.67,1977.89 1483,1950.5C 1481.12,1735.17 1481.12,1519.84 1483,1304.5C 1483.96,1249.78 1486.3,1195.11 1490,1140.5C 1490.79,1088.16 1491.79,1035.83 1493,983.5C 1494.96,961.796 1497.29,940.129 1500,918.5C 1500.82,890.159 1501.82,861.826 1503,833.5C 1504.39,823.28 1506.72,813.28 1510,803.5C 1510.67,793.463 1511.67,783.463 1513,773.5C 1513.56,771.275 1514.56,769.275 1516,767.5C 1520.19,762.94 1524.03,758.106 1527.5,753C 1533.75,751.388 1538.75,748.054 1542.5,743C 1545.83,741.667 1549.17,740.333 1552.5,739C 1553.93,736.815 1555.6,734.815 1557.5,733C 1561.83,731.333 1566.17,729.667 1570.5,728C 1572.89,722.946 1576.89,720.279 1582.5,720C 1587.01,718.494 1590.67,715.827 1593.5,712C 1600.02,711.073 1605.36,708.073 1609.5,703C 1613.78,701.514 1618.11,700.181 1622.5,699C 1625.13,697.374 1627.46,695.374 1629.5,693C 1633.71,691.29 1638.04,689.957 1642.5,689C 1645.5,686.667 1648.5,684.333 1651.5,682C 1659.36,681.496 1665.69,678.163 1670.5,672C 1675.32,671.17 1679.99,669.836 1684.5,668C 1685.83,666.333 1687.17,664.667 1688.5,663C 1692.78,661.514 1697.11,660.181 1701.5,659C 1704.49,656.714 1707.49,654.381 1710.5,652C 1714.83,651 1719.17,650 1723.5,649C 1726.83,646.667 1730.17,644.333 1733.5,642C 1738.48,640.893 1743.48,639.893 1748.5,639C 1752.16,636.731 1755.83,634.397 1759.5,632C 1764.17,631 1768.83,630 1773.5,629C 1777.17,626.667 1780.83,624.333 1784.5,622C 1794.17,621.75 1802.5,618.416 1809.5,612C 1814.48,610.893 1819.48,609.893 1824.5,609C 1828.17,606.667 1831.83,604.333 1835.5,602C 1841.13,600.815 1846.8,599.815 1852.5,599C 1856.83,596.667 1861.17,594.333 1865.5,592C 1871.82,590.918 1878.15,589.918 1884.5,589C 1889.41,587.071 1894.08,584.738 1898.5,582C 1906.79,580.671 1915.12,579.671 1923.5,579C 1929.05,576.39 1934.72,574.057 1940.5,572C 1949.81,570.82 1959.15,569.82 1968.5,569C 1977.38,566.261 1986.38,563.928 1995.5,562C 2021.15,560.445 2046.82,559.112 2072.5,558C 2079.37,557.608 2086.03,556.775 2092.5,555.5 Z M 2074.5,1029.5 C 2079.78,1030.37 2085.11,1031.2 2090.5,1032C 2094.27,1034.22 2098.27,1035.89 2102.5,1037C 2111.78,1036.89 2119.45,1040.22 2125.5,1047C 2130.56,1047.73 2133.73,1050.56 2135,1055.5C 2136.82,1057.4 2138.82,1059.07 2141,1060.5C 2142.24,1068.56 2145.57,1075.56 2151,1081.5C 2153.32,1093.46 2156.65,1105.13 2161,1116.5C 2162.54,1129.46 2162.88,1142.46 2162,1155.5C 2158.04,1168.67 2154.71,1182 2152,1195.5C 2150.06,1199.11 2147.72,1202.44 2145,1205.5C 2144.63,1213.71 2141.29,1220.38 2135,1225.5C 2134.44,1227.61 2133.61,1229.61 2132.5,1231.5C 2127.11,1234.25 2123.61,1238.58 2122,1244.5C 2116.83,1248.5 2112.99,1253.5 2110.5,1259.5C 2106.02,1262.14 2102.36,1265.64 2099.5,1270C 2098.17,1270.67 2096.83,1271.33 2095.5,1272C 2089.59,1277.98 2083.59,1283.98 2077.5,1290C 2070.88,1291.53 2065.88,1295.19 2062.5,1301C 2059.91,1302.2 2057.24,1303.2 2054.5,1304C 2050.08,1309.49 2044.42,1313.15 2037.5,1315C 2034.28,1320.28 2029.62,1323.62 2023.5,1325C 2019.89,1329.48 2015.23,1332.48 2009.5,1334C 2007.17,1336.33 2004.83,1338.67 2002.5,1341C 1999.17,1342.33 1995.83,1343.67 1992.5,1345C 1988.11,1350.36 1982.45,1353.36 1975.5,1354C 1972.87,1355.63 1970.54,1357.63 1968.5,1360C 1963.83,1361.67 1959.17,1363.33 1954.5,1365C 1953.26,1366.15 1952.26,1367.49 1951.5,1369C 1947.05,1371.26 1942.38,1372.93 1937.5,1374C 1935.98,1375.35 1934.65,1376.85 1933.5,1378.5C 1931.95,1379.45 1930.29,1379.79 1928.5,1379.5C 1928.87,1333.82 1928.37,1288.15 1927,1242.5C 1925.65,1228.74 1923.65,1215.08 1921,1201.5C 1919.92,1175.84 1918.92,1150.17 1918,1124.5C 1917.35,1112.43 1915.51,1100.6 1912.5,1089C 1913.26,1086.93 1913.76,1084.76 1914,1082.5C 1914.9,1081.3 1916.07,1080.47 1917.5,1080C 1921.89,1078.82 1926.22,1077.49 1930.5,1076C 1932.6,1073.23 1935.27,1071.23 1938.5,1070C 1942.83,1069 1947.17,1068 1951.5,1067C 1954.5,1064.67 1957.5,1062.33 1960.5,1060C 1964.9,1059.25 1969.23,1058.25 1973.5,1057C 1976.56,1054.28 1979.89,1051.94 1983.5,1050C 1989.13,1048.81 1994.8,1047.81 2000.5,1047C 2004.81,1044.7 2009.15,1042.37 2013.5,1040C 2034.27,1038.2 2054.61,1034.7 2074.5,1029.5 Z"/></g>
<g><path style="opacity:0.997" fill="#000000" d="M 870.5,556.5 C 873.85,556.335 877.183,556.502 880.5,557C 884.683,558.796 889.016,560.129 893.5,561C 896.781,565.403 900.614,569.237 905,572.5C 906.111,577.941 909.111,581.941 914,584.5C 915.759,589.711 917.092,595.044 918,600.5C 919.626,603.128 921.626,605.461 924,607.5C 925.697,615.772 927.03,624.105 928,632.5C 929.746,636.327 931.746,639.993 934,643.5C 935.727,652.771 937.061,662.104 938,671.5C 939.994,676.823 941.994,682.157 944,687.5C 945.711,700.792 947.045,714.125 948,727.5C 950.205,735.115 952.205,742.782 954,750.5C 955.756,769.799 957.089,789.132 958,808.5C 960.956,819.033 963.289,829.7 965,840.5C 966.08,859.829 967.08,879.162 968,898.5C 968.416,902.914 969.25,907.248 970.5,911.5C 970.392,912.442 970.059,913.275 969.5,914C 970.861,915.584 971.528,917.418 971.5,919.5C 978.579,921.368 984.246,919.201 988.5,913C 997.462,912.487 1005.13,909.154 1011.5,903C 1020.68,902.373 1028.68,899.04 1035.5,893C 1040.79,891.785 1046.12,890.785 1051.5,890C 1055.17,887.667 1058.83,885.333 1062.5,883C 1068.86,881.773 1075.2,880.44 1081.5,879C 1084.17,877 1086.83,875 1089.5,873C 1095.86,871.773 1102.2,870.44 1108.5,869C 1111.67,867.248 1114.67,865.248 1117.5,863C 1125.5,861.667 1133.5,860.333 1141.5,859C 1144.93,856.565 1148.6,854.565 1152.5,853C 1159.45,851.709 1166.45,850.709 1173.5,850C 1178.91,848.459 1183.91,846.126 1188.5,843C 1196.1,841.563 1203.77,840.563 1211.5,840C 1217.04,838.562 1222.38,836.562 1227.5,834C 1230.79,833.118 1234.12,832.452 1237.5,832C 1268.17,830.101 1298.84,830.101 1329.5,832C 1334.7,836.193 1340.2,840.027 1346,843.5C 1350.89,859.95 1350.55,876.283 1345,892.5C 1339.93,896.291 1336.6,901.291 1335,907.5C 1331.39,910.024 1328.73,913.357 1327,917.5C 1319.15,927.346 1310.65,936.513 1301.5,945C 1289.53,955.298 1277.87,965.965 1266.5,977C 1261.28,978.886 1257.28,982.219 1254.5,987C 1250.28,988.012 1247.45,990.512 1246,994.5C 1243.97,996.737 1241.47,998.237 1238.5,999C 1235.69,1003.81 1231.69,1007.14 1226.5,1009C 1222.2,1014.97 1216.53,1018.97 1209.5,1021C 1206.94,1025.89 1202.94,1028.89 1197.5,1030C 1194.29,1035.54 1189.63,1039.21 1183.5,1041C 1180.01,1045.91 1175.34,1049.08 1169.5,1050.5C 1167.13,1055.7 1163.13,1058.86 1157.5,1060C 1155.87,1062.63 1153.87,1064.96 1151.5,1067C 1145.81,1068.85 1141.15,1072.18 1137.5,1077C 1131.03,1077.9 1126.36,1081.23 1123.5,1087C 1117.18,1088.31 1112.18,1091.64 1108.5,1097C 1105.67,1098.17 1102.83,1099.33 1100,1100.5C 1096.39,1104.79 1092.22,1108.29 1087.5,1111C 1091.7,1116.53 1097.03,1120.53 1103.5,1123C 1106.28,1127.78 1110.28,1131.11 1115.5,1133C 1119.15,1137.82 1123.81,1141.15 1129.5,1143C 1132.21,1145.37 1134.54,1148.04 1136.5,1151C 1142.31,1152.14 1146.31,1155.47 1148.5,1161C 1153.36,1162.52 1157.02,1165.52 1159.5,1170C 1164.72,1171.89 1168.72,1175.22 1171.5,1180C 1177.37,1182.86 1182.37,1186.86 1186.5,1192C 1188.09,1192.86 1189.75,1193.53 1191.5,1194C 1197.17,1199.83 1202.83,1205.67 1208.5,1211.5C 1213.23,1213.39 1216.89,1216.56 1219.5,1221C 1224.36,1222.52 1228.02,1225.52 1230.5,1230C 1254.3,1250.46 1276.8,1272.3 1298,1295.5C 1298.67,1296.83 1299.33,1298.17 1300,1299.5C 1305.89,1304.93 1311.55,1310.6 1317,1316.5C 1317.47,1318.25 1318.14,1319.91 1319,1321.5C 1324.5,1323.67 1327.83,1327.67 1329,1333.5C 1334.84,1337.17 1338.18,1342.51 1339,1349.5C 1340.57,1353.07 1342.9,1356.07 1346,1358.5C 1347.83,1368.45 1349.33,1378.45 1350.5,1388.5C 1349.32,1396.56 1347.82,1404.56 1346,1412.5C 1344.17,1414.33 1342.33,1416.17 1340.5,1418C 1331.44,1419.43 1322.77,1422.1 1314.5,1426C 1311.24,1426.94 1307.9,1427.44 1304.5,1427.5C 1283.01,1422.92 1261.35,1419.42 1239.5,1417C 1235.78,1414.47 1231.78,1412.47 1227.5,1411C 1220.71,1410.22 1214.05,1408.89 1207.5,1407C 1205.4,1404.23 1202.73,1402.23 1199.5,1401C 1193.06,1400.13 1186.73,1398.8 1180.5,1397C 1177.77,1394.61 1174.77,1392.61 1171.5,1391C 1165.42,1390.04 1159.42,1388.7 1153.5,1387C 1151.02,1384.26 1148.02,1382.26 1144.5,1381C 1139.48,1380.11 1134.48,1379.11 1129.5,1378C 1126.44,1375.28 1123.11,1372.94 1119.5,1371C 1114.75,1369.92 1110.09,1368.58 1105.5,1367C 1100.14,1361.31 1093.48,1358.31 1085.5,1358C 1079.45,1351.98 1072.12,1348.64 1063.5,1348C 1057.44,1341.98 1050.11,1338.64 1041.5,1338C 1035.7,1332.27 1028.7,1328.93 1020.5,1328C 1017.5,1325.67 1014.5,1323.33 1011.5,1321C 1007.54,1319.87 1003.54,1318.87 999.5,1318C 996.113,1314.95 992.447,1312.28 988.5,1310C 984.582,1308.84 980.582,1308.34 976.5,1308.5C 976.051,1327.85 975.217,1347.18 974,1366.5C 972.638,1377.28 970.638,1387.95 968,1398.5C 967.119,1421.53 965.786,1444.53 964,1467.5C 961.841,1476.47 959.841,1485.47 958,1494.5C 957.139,1507.89 955.806,1521.22 954,1534.5C 952.277,1539.61 950.277,1544.61 948,1549.5C 947.258,1559.26 945.925,1568.92 944,1578.5C 942,1581.83 940,1585.17 938,1588.5C 937,1595.5 936,1602.5 935,1609.5C 933.487,1613.68 931.154,1617.35 928,1620.5C 927.976,1628.78 924.809,1635.44 918.5,1640.5C 917.236,1643.13 916.069,1645.79 915,1648.5C 911.464,1651.7 908.297,1655.2 905.5,1659C 902.833,1660.33 900.167,1661.67 897.5,1663C 895.461,1665.37 893.128,1667.37 890.5,1669C 879.167,1669.67 867.833,1669.67 856.5,1669C 853.29,1667.8 850.623,1665.8 848.5,1663C 844.91,1661.47 841.243,1660.14 837.5,1659C 832.886,1653.26 827.719,1648.1 822,1643.5C 820.102,1636.71 816.436,1631.04 811,1626.5C 809.533,1618.57 806.2,1611.57 801,1605.5C 799.667,1599.5 798.333,1593.5 797,1587.5C 794.23,1585.4 792.23,1582.73 791,1579.5C 789.559,1572.52 788.226,1565.52 787,1558.5C 784.565,1555.07 782.565,1551.4 781,1547.5C 779.798,1537.48 778.465,1527.48 777,1517.5C 774.122,1513.95 772.122,1509.95 771,1505.5C 769.685,1490.19 768.685,1474.86 768,1459.5C 765.87,1450.11 763.537,1440.78 761,1431.5C 759.685,1416.19 758.685,1400.86 758,1385.5C 755.796,1370.15 753.463,1354.81 751,1339.5C 750.82,1329.92 750.32,1320.42 749.5,1311C 747.63,1309.44 745.63,1309.44 743.5,1311C 738.223,1317.1 731.556,1320.77 723.5,1322C 722.547,1323.96 721.213,1325.62 719.5,1327C 714.452,1328.51 709.452,1330.18 704.5,1332C 703.547,1333.96 702.213,1335.62 700.5,1337C 696.289,1338.71 691.956,1340.04 687.5,1341C 684.5,1343.33 681.5,1345.67 678.5,1348C 674.465,1348.87 670.465,1349.87 666.5,1351C 663.5,1353.33 660.5,1355.67 657.5,1358C 649.831,1358.33 643.498,1361.33 638.5,1367C 634.289,1368.71 629.956,1370.04 625.5,1371C 621.89,1372.94 618.557,1375.28 615.5,1378C 611.535,1379.13 607.535,1380.13 603.5,1381C 599.739,1383.76 595.739,1386.1 591.5,1388C 585.449,1389.12 579.449,1390.45 573.5,1392C 571.191,1394.49 568.524,1396.49 565.5,1398C 555.263,1398.23 546.263,1401.57 538.5,1408C 533.187,1409.09 527.853,1410.09 522.5,1411C 518.294,1413.6 513.961,1415.94 509.5,1418C 501.518,1419.13 493.518,1420.13 485.5,1421C 480.533,1423.96 475.2,1425.96 469.5,1427C 451.487,1428.95 433.487,1428.95 415.5,1427C 410.289,1421.77 403.956,1418.77 396.5,1418C 391,1411.83 385.5,1405.67 380,1399.5C 378.927,1395.92 378.26,1392.25 378,1388.5C 377.333,1377.17 377.333,1365.83 378,1354.5C 377.754,1346.89 380.421,1340.56 386,1335.5C 387.019,1328.46 390.353,1322.79 396,1318.5C 397.97,1312.21 401.637,1307.21 407,1303.5C 408.91,1298.09 412.41,1294.09 417.5,1291.5C 419.193,1286.47 422.526,1283.14 427.5,1281.5C 428.99,1276.34 432.324,1273.34 437.5,1272.5C 438.473,1267.35 441.473,1263.85 446.5,1262C 448.698,1256.97 452.364,1253.47 457.5,1251.5C 459.892,1246.77 463.559,1243.44 468.5,1241.5C 471.091,1236.41 475.091,1232.91 480.5,1231C 484.167,1225.99 488.834,1222.16 494.5,1219.5C 497.267,1214.95 501.267,1212.11 506.5,1211C 509.305,1206.19 513.305,1202.86 518.5,1201C 522.939,1195.28 528.605,1191.28 535.5,1189C 538.059,1184.11 542.059,1181.11 547.5,1180C 549.978,1175.52 553.645,1172.52 558.5,1171C 561.167,1168.33 563.833,1165.67 566.5,1163C 572.618,1161.62 577.285,1158.28 580.5,1153C 583.244,1152.2 585.911,1151.2 588.5,1150C 591.715,1144.72 596.382,1141.38 602.5,1140C 606.553,1134.64 611.887,1131.31 618.5,1130C 621.6,1124.61 626.267,1121.44 632.5,1120.5C 634.207,1116.26 633.207,1112.76 629.5,1110C 623.619,1109.16 619.286,1106.16 616.5,1101C 609.292,1099.57 603.625,1095.91 599.5,1090C 593.552,1089.02 588.886,1086.02 585.5,1081C 579.097,1079.47 574.097,1075.97 570.5,1070.5C 564.214,1069.36 559.881,1065.86 557.5,1060C 552.086,1058.59 547.753,1055.59 544.5,1051C 537.859,1049.52 532.859,1045.85 529.5,1040C 523.715,1038.55 519.381,1035.21 516.5,1030C 511.086,1028.59 506.753,1025.59 503.5,1021C 496.941,1019.07 491.941,1015.24 488.5,1009.5C 483.413,1007.25 479.413,1003.75 476.5,999C 471.885,997.222 468.885,994.056 467.5,989.5C 462.227,988.073 458.227,984.906 455.5,980C 454.167,979.333 452.833,978.667 451.5,978C 444.769,970.933 437.769,964.267 430.5,958C 423.698,950.197 416.531,942.697 409,935.5C 407.829,933.158 406.662,930.824 405.5,928.5C 400.756,926.361 397.923,922.694 397,917.5C 390.46,912.898 387.127,906.565 387,898.5C 383.889,894.613 381.556,890.28 380,885.5C 379.333,877.833 379.333,870.167 380,862.5C 383.482,856.533 386.149,850.199 388,843.5C 394.047,836.787 401.214,831.62 409.5,828C 411.915,824.46 415.248,822.46 419.5,822C 444.496,820.108 469.496,820.108 494.5,822C 500.921,823.209 506.921,825.542 512.5,829C 519.8,830.219 527.133,831.219 534.5,832C 539.124,833.31 543.124,835.644 546.5,839C 553.833,840.333 561.167,841.667 568.5,843C 571.167,845 573.833,847 576.5,849C 583.833,850.333 591.167,851.667 598.5,853C 601.167,855 603.833,857 606.5,859C 612.244,860.013 617.911,861.346 623.5,863C 626.557,865.723 629.89,868.056 633.5,870C 638.22,870.786 642.886,871.786 647.5,873C 649.928,876.098 652.928,878.431 656.5,880C 664.732,880.294 671.732,883.294 677.5,889C 682.469,890.46 687.469,891.794 692.5,893C 698.304,898.734 705.304,902.068 713.5,903C 718.792,908.979 725.458,912.313 733.5,913C 735.871,915.706 738.537,918.039 741.5,920C 744.099,920.769 746.599,920.602 749,919.5C 749.309,918.234 749.809,917.067 750.5,916C 749.31,906.876 749.477,897.71 751,888.5C 753.623,878.915 755.956,869.249 758,859.5C 758.669,847.801 759.669,836.135 761,824.5C 763.629,817.58 765.963,810.58 768,803.5C 768.764,792.475 769.764,781.475 771,770.5C 772.717,765.397 774.717,760.397 777,755.5C 778.282,743.828 779.616,732.162 781,720.5C 782.731,716.705 784.731,713.038 787,709.5C 788.415,701.184 789.748,692.85 791,684.5C 793.333,679.5 795.667,674.5 798,669.5C 797.976,659.204 801.142,650.204 807.5,642.5C 808.465,635.705 809.965,629.038 812,622.5C 817.252,616.525 820.252,609.525 821,601.5C 825.607,596.624 828.941,590.957 831,584.5C 835.037,581.657 838.037,577.99 840,573.5C 842.13,570.77 844.797,568.77 848,567.5C 848.792,565.413 849.959,563.579 851.5,562C 857.959,560.217 864.292,558.384 870.5,556.5 Z"/></g>
</svg>
