<svg xmlns="http://www.w3.org/2000/svg" version="1.1" width="3000px" height="3000px" style="shape-rendering:geometricPrecision; text-rendering:geometricPrecision; image-rendering:optimizeQuality; fill-rule:evenodd; clip-rule:evenodd" xmlns:xlink="http://www.w3.org/1999/xlink">
<g><path style="opacity:0.99" fill="#000000" d="M 510.5,-0.5 C 538.5,-0.5 566.5,-0.5 594.5,-0.5C 593.699,1.04181 593.366,2.70848 593.5,4.5C 591.5,4.5 589.5,4.5 587.5,4.5C 578.621,43.2502 569.454,81.9169 560,120.5C 543.136,197.737 528.469,275.404 516,353.5C 512.586,381.639 508.253,409.639 503,437.5C 499.381,472.593 495.048,507.593 490,542.5C 486.486,580.883 482.486,619.216 478,657.5C 476.855,677.147 476.189,696.813 476,716.5C 475.579,720.872 474.912,725.205 474,729.5C 471.809,798.07 473.142,866.403 478,934.5C 478.667,936.5 479.333,938.5 480,940.5C 481.436,960.32 483.769,979.987 487,999.5C 491.709,1021.38 496.042,1043.38 500,1065.5C 505.348,1086.22 511.015,1106.89 517,1127.5C 526.158,1155.84 536.491,1183.84 548,1211.5C 579.513,1285.16 622.179,1351.83 676,1411.5C 727.466,1466.59 787.3,1509.43 855.5,1540C 895.997,1556.04 936.997,1570.71 978.5,1584C 981.833,1584.67 985.167,1585.33 988.5,1586C 1013.92,1594.42 1039.25,1603.08 1064.5,1612C 1136.69,1638.04 1199.52,1678.87 1253,1734.5C 1270.09,1753.58 1286.42,1773.25 1302,1793.5C 1319.86,1821.35 1336.86,1849.68 1353,1878.5C 1374.94,1925.32 1393.94,1973.32 1410,2022.5C 1416.4,2045.38 1423.4,2068.04 1431,2090.5C 1450.18,2166.36 1471.18,2241.69 1494,2316.5C 1514.36,2377.54 1540.36,2435.87 1572,2491.5C 1597.7,2531.88 1628.54,2568.05 1664.5,2600C 1704.71,2633.95 1750.05,2658.29 1800.5,2673C 1851.06,2684.84 1900.73,2682.17 1949.5,2665C 1956.53,2661.99 1963.53,2658.99 1970.5,2656C 1995.76,2642.08 2018.76,2625.08 2039.5,2605C 2066.95,2576.22 2091.11,2545.05 2112,2511.5C 2125.11,2485.77 2138.11,2460.1 2151,2434.5C 2157.22,2421.39 2162.89,2408.05 2168,2394.5C 2174.82,2375.57 2181.48,2356.57 2188,2337.5C 2204.55,2305.51 2216.55,2271.85 2224,2236.5C 2234.14,2206.73 2243.48,2176.73 2252,2146.5C 2273.4,2068.52 2293.4,1990.19 2312,1911.5C 2343.77,1764.19 2367.11,1615.53 2382,1465.5C 2394.57,1325.79 2401.23,1185.79 2402,1045.5C 2408.9,1025.94 2422.73,1016.77 2443.5,1018C 2461.88,1020.71 2472.71,1031.21 2476,1049.5C 2478.11,1168.73 2473.78,1287.73 2463,1406.5C 2451.86,1519.27 2437.53,1631.6 2420,1743.5C 2378.31,1980.03 2316.64,2211.03 2235,2436.5C 2213.78,2484.27 2189.45,2530.27 2162,2574.5C 2129.69,2621.81 2090.86,2662.97 2045.5,2698C 2037.83,2702.17 2030.49,2706.83 2023.5,2712C 2005.79,2721.45 1987.79,2730.12 1969.5,2738C 1955.66,2741.63 1942,2745.63 1928.5,2750C 1918.68,2750.95 1909.01,2752.61 1899.5,2755C 1875.5,2755.67 1851.5,2755.67 1827.5,2755C 1811.71,2752.72 1796.04,2749.72 1780.5,2746C 1763.18,2741.33 1746.18,2735.67 1729.5,2729C 1720.59,2723.77 1711.26,2719.44 1701.5,2716C 1620.05,2671.55 1555.21,2609.71 1507,2530.5C 1494.78,2509.39 1483.12,2488.06 1472,2466.5C 1442.9,2401.1 1418.24,2334.1 1398,2265.5C 1381.86,2203.93 1365.19,2142.59 1348,2081.5C 1342.92,2064 1337.26,2046.67 1331,2029.5C 1323.07,2009.79 1315.73,1989.79 1309,1969.5C 1295.67,1938.51 1281,1908.17 1265,1878.5C 1242.32,1839.67 1215.15,1804.17 1183.5,1772C 1173.5,1763.33 1163.5,1754.67 1153.5,1746C 1136.64,1733.78 1119.3,1722.44 1101.5,1712C 1089.29,1705.73 1076.96,1699.73 1064.5,1694C 1045.64,1686.96 1026.98,1679.63 1008.5,1672C 966.068,1657.79 923.401,1644.13 880.5,1631C 865.516,1625.34 850.516,1619.67 835.5,1614C 780.727,1590.97 730.06,1560.64 683.5,1523C 642.479,1488.11 605.646,1449.28 573,1406.5C 559.651,1388.14 546.651,1369.47 534,1350.5C 522.287,1330.67 510.954,1310.67 500,1290.5C 491.129,1271.54 482.463,1252.54 474,1233.5C 467.853,1217.93 461.853,1202.27 456,1186.5C 449.531,1165.11 443.197,1143.78 437,1122.5C 436.085,1121.67 435.419,1120.67 435,1119.5C 431.85,1107.9 428.85,1096.23 426,1084.5C 422.589,1063.28 418.256,1042.28 413,1021.5C 410.094,1003.54 407.428,985.541 405,967.5C 403.86,953.178 402.86,938.845 402,924.5C 401.118,921.211 400.452,917.877 400,914.5C 398.432,877.829 396.932,841.162 395.5,804.5C 396.839,760.997 398.339,717.331 400,673.5C 402.485,654.923 404.152,636.257 405,617.5C 405.333,615.833 405.667,614.167 406,612.5C 406.667,613.167 407.333,613.833 408,614.5C 409.342,591.113 411.342,567.779 414,544.5C 421.788,491.955 428.788,439.288 435,386.5C 445.808,326.931 456.141,267.264 466,207.5C 478.365,148.039 491.365,88.706 505,29.5C 507.237,21.2261 509.737,13.0594 512.5,5C 511.552,4.51722 510.552,4.35055 509.5,4.5C 509.629,2.7839 509.962,1.11723 510.5,-0.5 Z"/></g>
</svg>
